<?xml version="1.0" standalone="no"?>
<!DOCTYPE svg PUBLIC "-//W3C//DTD SVG 1.1//EN" "http://www.w3.org/Graphics/SVG/1.1/DTD/svg11.dtd" >
<svg>
<metadata>
Created by FontForge 20120731 at Tue Apr 25 18:32:46 2017
 By www-data
Copyright (c) 2008 by Ramiz Guseynov. All rights reserved.
</metadata>
<defs>
<font id="DecimaNovaPro" horiz-adv-x="580" >
  <font-face 
    font-family="Decima Nova Pro"
    font-weight="400"
    font-stretch="normal"
    units-per-em="1000"
    panose-1="2 0 5 6 0 0 0 2 0 4"
    ascent="750"
    descent="-250"
    x-height="500"
    cap-height="700"
    bbox="-73 -242 1165 915"
    underline-thickness="50"
    underline-position="-50"
    stemh="79"
    stemv="78"
    unicode-range="U+0020-FB12"
  />
<missing-glyph horiz-adv-x="220" 
 />
    <glyph glyph-name="fi" unicode="fi" horiz-adv-x="541" 
d="M390 0v429h-216v-429h-78v429h-76v71h76v72c0 81 49 138 137 138c39 0 98 -9 98 -9l-5 -68s-47 6 -94 6c-34 0 -58 -19 -58 -73v-66h294v-500h-78zM388 602v98h83v-98h-83z" />
    <glyph glyph-name="fl" unicode="fl" horiz-adv-x="537" 
d="M390 0v634s-99 5 -158 5c-34 0 -58 -19 -58 -73v-66h143v-71h-143v-429h-78v429h-76v71h76v72c0 81 49 138 137 138c72 0 233 -10 234 -10v-700h-77z" />
    <glyph glyph-name=".notdef" horiz-adv-x="220" 
 />
    <glyph glyph-name="B" unicode="B" horiz-adv-x="590" 
d="M333 700c131 0 195 -71 195 -184c0 -116 -84 -150 -84 -150s96 -34 96 -165c0 -127 -65 -201 -229 -201h-231v700h253zM344 623h-180v-221h168c68 0 115 39 115 112c0 65 -35 109 -103 109zM164 326v-249h152c111 0 140 40 140 124c0 67 -28 125 -124 125h-168z" />
    <glyph glyph-name="C" unicode="C" horiz-adv-x="547" 
d="M499 88l3 -74s-99 -24 -180 -24c-154 0 -252 103 -255 228c-2 88 -2 176 0 264c3 125 103 228 255 228c84 0 175 -23 175 -23l-3 -74s-111 19 -172 19c-106 0 -167 -71 -169 -150c-2 -88 -2 -176 0 -264c2 -79 61 -150 169 -150c59 0 177 20 177 20z" />
    <glyph glyph-name="D" unicode="D" horiz-adv-x="622" 
d="M75 0v700h225c152 0 252 -93 255 -218c2 -88 2 -176 0 -264c-3 -125 -101 -218 -255 -218h-225zM300 622h-141v-544h141c108 0 167 61 169 140c2 88 2 176 0 264c-2 79 -63 140 -169 140z" />
    <glyph glyph-name="E" unicode="E" horiz-adv-x="578" 
d="M80 700h438v-78h-354v-220h323v-77h-323v-246h364v-79h-448v700z" />
    <glyph glyph-name="F" unicode="F" horiz-adv-x="553" 
d="M80 700h438v-78h-354v-232h323v-78h-323v-312h-84v700z" />
    <glyph glyph-name="G" unicode="G" horiz-adv-x="621" 
d="M335 283v77h216v-333s-113 -37 -229 -37c-154 0 -252 103 -255 228c-2 88 -2 176 0 264c3 125 103 228 255 228c124 0 216 -25 216 -25l-4 -74s-107 21 -212 21c-106 0 -167 -71 -169 -150c-2 -88 -2 -176 0 -264c2 -79 61 -151 169 -151c81 0 145 14 145 14v202h-132z
" />
    <glyph glyph-name="H" unicode="H" horiz-adv-x="656" 
d="M492 700h84v-700h-84v325h-328v-325h-84v700h84v-298h328v298z" />
    <glyph glyph-name="O" unicode="O" horiz-adv-x="643" 
d="M576 482c2 -88 2 -176 0 -264c-3 -125 -103 -228 -254 -228c-154 0 -252 103 -255 228c-2 88 -2 176 0 264c3 125 103 228 255 228c153 0 251 -103 254 -228zM490 217c2 89 2 177 0 266c-2 80 -60 152 -168 152c-107 0 -169 -72 -171 -152c-2 -89 -2 -177 0 -266
c2 -80 62 -152 171 -152c106 0 166 72 168 152z" />
    <glyph glyph-name="I" unicode="I" horiz-adv-x="244" 
d="M164 700v-700h-84v700h84z" />
    <glyph glyph-name="J" unicode="J" horiz-adv-x="305" 
d="M20 0l2 68s37 -2 59 -2c64 0 65 49 65 113v521h84v-549c0 -122 -62 -161 -132 -161c-39 0 -78 10 -78 10z" />
    <glyph glyph-name="K" unicode="K" horiz-adv-x="569" 
d="M531 700l-270 -333l288 -367h-103l-282 366l266 334h101zM164 700v-700h-84v700h84z" />
    <glyph glyph-name="L" unicode="L" horiz-adv-x="500" 
d="M80 700h85v-621h315v-79h-400v700z" />
    <glyph glyph-name="M" unicode="M" horiz-adv-x="759" 
d="M679 700v-700h-84v531l3 57l-31 -64l-143 -240h-89l-143 240l-31 64l3 -57v-531h-84v700h100l199 -344l200 344h100z" />
    <glyph glyph-name="N" unicode="N" horiz-adv-x="656" 
d="M493 700h83v-700h-99l-290 519l-28 65l4 -68v-516h-83v700h99l291 -520l27 -64l-4 67v517z" />
    <glyph glyph-name="P" unicode="P" horiz-adv-x="572" 
d="M80 0v700h270c114 0 174 -69 179 -156c3 -48 3 -96 0 -144c-5 -88 -65 -157 -179 -157h-186v-243h-84zM444 397c3 49 3 100 0 149c-3 42 -25 76 -92 76h-188v-301h188c67 0 89 35 92 76z" />
    <glyph glyph-name="Q" unicode="Q" horiz-adv-x="643" 
d="M576 482c2 -88 2 -176 0 -264c-1 -46 -14 -86 -39 -122l59 -69l-61 -46l-51 59c-43 -31 -98 -50 -162 -50c-154 0 -252 103 -255 228c-2 88 -2 176 0 264c3 125 103 228 255 228c153 0 251 -103 254 -228zM491 216c2 89 2 178 0 267c-2 80 -61 152 -169 152
c-107 0 -170 -72 -172 -152c-2 -89 -2 -178 0 -267c1 -42 17 -64 17 -64s58 54 155 54c89 0 152 -54 152 -54s16 22 17 64zM322 66c59 0 105 30 105 30s-50 39 -105 39c-62 0 -109 -38 -109 -38s44 -31 109 -31z" />
    <glyph glyph-name="R" unicode="R" horiz-adv-x="604" 
d="M461 0l-137 255h-160v-255h-84v700h270c114 0 174 -69 179 -156c3 -48 3 -84 0 -132c-4 -72 -44 -131 -120 -150l145 -262h-93zM444 409c3 49 3 88 0 137c-3 42 -25 76 -92 76h-188v-289h188c67 0 89 35 92 76z" />
    <glyph glyph-name="S" unicode="S" horiz-adv-x="578" 
d="M486 687l-4 -74s-108 19 -192 19c-85 0 -149 -29 -149 -109c0 -188 392 -65 392 -334c0 -127 -76 -199 -258 -199c-110 0 -208 25 -208 25l4 75s101 -22 197 -22c133 0 179 33 179 113c0 197 -392 71 -392 339c0 133 101 190 235 190c122 0 196 -23 196 -23z" />
    <glyph glyph-name="W" unicode="W" horiz-adv-x="885" 
d="M654 142l104 558h87l-137 -700h-125l-122 510l-16 110h-5l-15 -110l-123 -510h-125l-137 700h87l104 -558l8 -66h4l12 70l129 554h117l129 -554l12 -70h4z" />
    <glyph glyph-name="T" unicode="T" horiz-adv-x="505" 
d="M20 622v78h465v-78h-191v-622h-84v622h-190z" />
    <glyph glyph-name="U" unicode="U" horiz-adv-x="659" 
d="M500 700h84v-482c0 -125 -103 -228 -254 -228c-154 0 -255 103 -255 228v482h84v-482c0 -79 63 -150 171 -150c105 0 170 71 170 150v482z" />
    <glyph glyph-name="V" unicode="V" horiz-adv-x="587" 
d="M107 700l184 -624h5l184 624h87l-210 -700h-127l-210 700h87z" />
    <glyph glyph-name="space" unicode=" " horiz-adv-x="220" 
 />
    <glyph glyph-name="X" unicode="X" horiz-adv-x="608" 
d="M131 700l173 -270l173 270h95l-219 -341l235 -359h-96l-188 292l-188 -292h-96l235 359l-219 341h95z" />
    <glyph glyph-name="Y" unicode="Y" horiz-adv-x="584" 
d="M111 700l181 -332l180 332h97l-235 -416v-284h-84v284l-235 416h96z" />
    <glyph glyph-name="Z" unicode="Z" horiz-adv-x="587" 
d="M533 616l-385 -534v-4h389v-78h-487v84l383 534v4h-375v78h475v-84z" />
    <glyph glyph-name="a" unicode="a" horiz-adv-x="495" 
d="M359 0l-5 44s-79 -54 -154 -54c-95 0 -150 65 -150 156c0 87 47 162 150 162h153v34c0 50 -36 97 -99 97c-74 0 -171 -18 -171 -18l-7 68s94 21 177 21c117 0 177 -73 177 -162v-348h-71zM203 62c73 0 150 68 150 68v107h-149c-58 0 -76 -42 -76 -90c0 -47 19 -85 75 -85
z" />
    <glyph glyph-name="b" unicode="b" horiz-adv-x="517" 
d="M70 15v685h77v-231s70 38 143 38c110 0 162 -70 165 -159c2 -65 2 -131 0 -196c-3 -90 -60 -162 -184 -162c-104 0 -201 25 -201 25zM377 158c2 61 2 123 0 184c-2 50 -29 94 -89 94c-65 0 -141 -42 -141 -42v-321s44 -12 124 -12c70 0 104 47 106 97z" />
    <glyph glyph-name="five" unicode="5" 
d="M72 15l4 75s102 -24 181 -24c132 0 169 49 169 157c0 90 -30 142 -151 142c-83 0 -169 -40 -169 -40l-38 60l23 315h387v-79h-311l-14 -204s63 24 134 24c142 0 224 -68 224 -217c0 -131 -66 -234 -251 -234c-124 0 -188 25 -188 25z" />
    <glyph glyph-name="d" unicode="d" horiz-adv-x="517" 
d="M447 700v-700h-72l-5 35s-72 -45 -145 -45c-110 0 -160 70 -163 159c-2 65 -2 131 0 196c3 90 60 164 184 164c58 0 124 -20 124 -20v211h77zM140 339c-2 -61 -2 -123 0 -184c2 -50 27 -94 87 -94c65 0 143 49 143 49v306s-44 22 -124 22c-70 0 -104 -49 -106 -99z" />
    <glyph glyph-name="f" unicode="f" horiz-adv-x="341" 
d="M20 429v71h76v72c0 81 49 138 137 138c39 0 98 -9 98 -9l-5 -68s-47 6 -94 6c-34 0 -58 -19 -58 -73v-66h143v-71h-143v-429h-78v429h-76z" />
    <glyph glyph-name="h" unicode="h" horiz-adv-x="520" 
d="M148 0h-78v700h78v-234s74 41 147 41c110 0 160 -70 160 -159v-348h-78v342c0 50 -24 94 -84 94c-65 0 -145 -45 -145 -45v-391z" />
    <glyph glyph-name="i" unicode="i" horiz-adv-x="223" 
d="M72 0v500h78v-500h-78zM70 602v98h83v-98h-83z" />
    <glyph glyph-name="l" unicode="l" horiz-adv-x="217" 
d="M70 0v700h77v-700h-77z" />
    <glyph glyph-name="c" unicode="c" horiz-adv-x="420" 
d="M380 77l10 -70s-64 -17 -144 -17c-119 0 -181 72 -184 162c-2 65 -2 131 0 196c3 89 66 162 185 162c74 0 135 -12 135 -12l-7 -71s-68 12 -129 12c-65 0 -104 -45 -106 -95c-2 -61 -2 -127 0 -188c2 -50 40 -95 106 -95c80 0 134 16 134 16z" />
    <glyph glyph-name="e" unicode="e" horiz-adv-x="487" 
d="M408 81l10 -67s-59 -24 -170 -24c-119 0 -182 72 -186 162c-1 32 -2 65 -2 98s1 65 2 98c4 89 72 162 186 162c111 0 184 -73 184 -162v-128h-293s0 -41 1 -62c2 -51 40 -97 107 -97c81 0 161 20 161 20zM140 342c-1 -16 -1 -51 -1 -51h216s0 35 -1 51
c-2 52 -44 97 -104 97c-69 0 -107 -44 -110 -97z" />
    <glyph glyph-name="o" unicode="o" horiz-adv-x="514" 
d="M452 152c-3 -90 -77 -162 -194 -162c-127 0 -193 72 -196 162c-2 65 -2 131 0 196c3 89 69 162 196 162c117 0 191 -73 194 -162c2 -65 2 -131 0 -196zM374 344c-3 53 -43 95 -117 95c-73 0 -114 -42 -117 -95c-3 -61 -3 -127 0 -188c3 -53 44 -95 118 -95
c73 0 113 42 116 95c3 61 3 127 0 188z" />
    <glyph glyph-name="n" unicode="n" horiz-adv-x="520" 
d="M148 0h-78v500h73l5 -34s71 44 147 44c110 0 160 -73 160 -162v-348h-78v342c0 50 -24 97 -84 97c-68 0 -145 -48 -145 -48v-391z" />
    <glyph glyph-name="m" unicode="m" horiz-adv-x="740" 
d="M413 0h-78v356c0 42 -25 83 -72 83c-54 0 -116 -49 -116 -49v-390h-77v500h73l4 -37s64 47 128 47c71 0 108 -58 108 -58s65 58 136 58c92 0 156 -61 156 -162v-348h-78v342c0 58 -34 97 -82 97c-50 0 -102 -47 -102 -47v-392z" />
    <glyph glyph-name="p" unicode="p" horiz-adv-x="517" 
d="M70 -180v680h72l5 -35s72 45 145 45c110 0 160 -69 163 -158c2 -65 2 -131 0 -196c-3 -90 -60 -164 -184 -164c-58 0 -124 19 -124 19v-191h-77zM377 162c2 61 2 123 0 184c-2 50 -27 93 -87 93c-65 0 -143 -49 -143 -49v-306s44 -21 124 -21c70 0 104 49 106 99z" />
    <glyph glyph-name="y" unicode="y" horiz-adv-x="491" 
d="M190 20l-170 480h87l135 -397h4l147 397h83l-261 -680h-81l75 193z" />
    <glyph glyph-name="r" unicode="r" horiz-adv-x="315" 
d="M305 510v-71c-92 0 -157 -86 -157 -86v-353h-78v500h73l3 -61s63 70 159 71z" />
    <glyph glyph-name="s" unicode="s" horiz-adv-x="441" 
d="M370 492l-8 -69s-77 16 -140 16c-52 0 -94 -20 -94 -69c0 -115 273 -41 273 -231c0 -95 -56 -149 -188 -149c-84 0 -158 24 -158 24l10 68s76 -21 143 -21c85 0 114 24 114 73c0 122 -272 44 -272 234c0 99 73 142 172 142c83 0 148 -18 148 -18z" />
    <glyph glyph-name="t" unicode="t" horiz-adv-x="337" 
d="M20 429v71h76v120h78v-120h143v-71h-143v-295c0 -54 19 -73 53 -73c47 0 83 6 83 6l5 -68s-48 -9 -94 -9c-86 0 -125 57 -125 130v309h-76z" />
    <glyph glyph-name="v" unicode="v" horiz-adv-x="456" 
d="M97 500l129 -441h4l130 441h81l-153 -500h-120l-153 500h82z" />
    <glyph glyph-name="w" unicode="w" horiz-adv-x="666" 
d="M491 62l63 438h82l-83 -500h-124l-94 417h-4l-94 -417h-124l-83 500h82l63 -438h4l102 438h104l102 -438h4z" />
    <glyph glyph-name="q" unicode="q" horiz-adv-x="517" 
d="M447 485v-665h-77v211s-70 -38 -143 -38c-110 0 -162 70 -165 159c-2 65 -2 131 0 196c3 90 60 162 184 162c104 0 201 -25 201 -25zM140 342c-2 -61 -2 -123 0 -184c2 -50 29 -94 89 -94c65 0 141 42 141 42v321s-44 12 -124 12c-70 0 -104 -47 -106 -97z" />
    <glyph glyph-name="z" unicode="z" horiz-adv-x="433" 
d="M389 428l-256 -353v-4h260v-71h-353v73l257 352v4h-246v71h338v-72z" />
    <glyph glyph-name="j" unicode="j" horiz-adv-x="225" 
d="M72 602v98h83v-98h-83zM151 500v-552c0 -81 -49 -138 -137 -138c-39 0 -72 9 -72 9l5 68s21 -6 68 -6c34 0 59 19 59 73v546h77z" />
    <glyph glyph-name="k" unicode="k" horiz-adv-x="452" 
d="M70 0v700h77v-700h-77zM354 0l-207 264l194 236h91l-196 -236l211 -264h-93z" />
    <glyph glyph-name="g" unicode="g" horiz-adv-x="470" 
d="M393 363v-73c0 -70 -54 -128 -137 -140v-26c0 -19 12 -26 22 -32l97 -53c40 -22 60 -49 60 -104c0 -99 -108 -125 -210 -125c-117 0 -185 44 -185 44l19 64s76 -38 166 -38c80 0 132 10 132 55c0 28 -8 35 -25 44l-122 64c-25 13 -34 38 -34 74v34
c-87 13 -134 70 -134 139v73c0 80 63 143 177 143c26 0 45 -2 67 -10l25 31c21 26 51 30 68 30c33 0 61 -6 61 -6l-8 -62h-38c-11 0 -24 -4 -31 -13l-13 -16c27 -25 43 -60 43 -97zM316 293v67c0 44 -37 76 -98 76c-60 0 -99 -32 -99 -76v-67c0 -43 39 -75 100 -75
c60 0 97 32 97 75z" />
    <glyph glyph-name="u" unicode="u" horiz-adv-x="520" 
d="M372 500h78v-500h-73l-5 34s-71 -44 -147 -44c-110 0 -160 73 -160 162v348h78v-342c0 -50 24 -97 84 -97c68 0 145 48 145 48v391z" />
    <glyph glyph-name="x" unicode="x" horiz-adv-x="466" 
d="M120 500l113 -179l113 179h89l-157 -240l168 -260h-88l-125 196l-125 -196h-88l168 260l-157 240h89z" />
    <glyph glyph-name="one" unicode="1" 
d="M80 0v78h195v544l-182 -77v75l176 80h90v-622h162v-78h-441z" />
    <glyph glyph-name="zero" unicode="0" 
d="M524 492c2 -88 2 -196 0 -284c-2 -125 -98 -218 -234 -218c-139 0 -233 93 -235 218c-2 88 -2 196 0 284c2 125 98 218 235 218c138 0 231 -93 234 -218zM441 208c2 88 2 196 0 284c-1 79 -57 141 -151 141c-93 0 -153 -62 -154 -141c-2 -88 -2 -196 0 -284
c1 -79 59 -141 154 -141c92 0 150 62 151 141z" />
    <glyph glyph-name="nine" unicode="9" 
d="M106 11l3 74s104 -20 174 -20c104 0 154 71 156 152c1 25 1 80 1 80s-83 -39 -162 -39c-146 0 -224 74 -224 220c0 148 97 232 233 232c151 0 233 -104 236 -229c2 -86 2 -173 0 -264c-3 -124 -85 -228 -240 -228c-85 0 -177 22 -177 22zM284 335c79 3 156 37 156 37
s0 75 -1 109c-2 79 -48 152 -151 152c-98 0 -150 -49 -150 -155c0 -101 47 -143 146 -143z" />
    <glyph glyph-name="eight" unicode="8" 
d="M517 524c0 -83 -36 -130 -88 -163c64 -40 104 -87 104 -176c0 -139 -113 -195 -242 -195c-132 0 -244 56 -244 195c0 89 40 136 104 176c-52 34 -88 82 -88 163c0 108 88 186 228 186c137 0 226 -80 226 -186zM291 67c81 0 158 30 158 121c0 90 -81 134 -158 134
c-78 0 -160 -44 -160 -134c0 -91 78 -121 160 -121zM434 524c0 66 -58 109 -143 109c-91 0 -145 -43 -145 -109c0 -76 54 -125 145 -125c85 0 143 49 143 125z" />
    <glyph glyph-name="seven" unicode="7" 
d="M85 623v77h410v-88l-273 -612h-85l275 617v6h-327z" />
    <glyph glyph-name="six" unicode="6" 
d="M473 688l-3 -74s-104 20 -174 20c-104 0 -154 -71 -156 -152c-1 -25 -1 -80 -1 -80s83 39 162 39c146 0 224 -74 224 -220c0 -148 -97 -232 -233 -232c-151 0 -233 104 -236 229c-2 86 -2 173 0 264c3 124 85 228 240 228c85 0 177 -22 177 -22zM295 364
c-79 -3 -156 -37 -156 -37s0 -75 1 -109c2 -79 48 -152 151 -152c98 0 150 49 150 155c0 101 -47 143 -146 143z" />
    <glyph glyph-name="four" unicode="4" 
d="M39 148v78l253 474h92l-256 -474h255v183h84v-183h74v-78h-74v-148h-84v148h-344z" />
    <glyph glyph-name="three" unicode="3" 
d="M75 622v78h406v-74l-167 -200c80 -6 195 -47 195 -201c0 -189 -144 -235 -241 -235c-131 0 -197 25 -197 25l4 75s92 -23 189 -23c119 0 160 66 160 160c0 125 -97 125 -164 125h-46v72l158 194v4h-297z" />
    <glyph glyph-name="two" unicode="2" 
d="M97 612l-4 74s75 24 189 24c132 0 227 -57 227 -200c0 -101 -29 -141 -96 -200l-257 -228v-4h355v-78h-443v106l274 248c65 59 82 88 82 159c0 88 -65 120 -150 120c-91 0 -177 -21 -177 -21z" />
    <glyph glyph-name="period" unicode="." horiz-adv-x="242" 
d="M80 0v98h82v-98h-82z" />
    <glyph glyph-name="comma" unicode="," horiz-adv-x="243" 
d="M78 0v98h85v-90c0 -104 -60 -125 -95 -125v38c31 0 45 30 45 63c0 8 -1 16 -1 16h-34z" />
    <glyph glyph-name="colon" unicode=":" horiz-adv-x="242" 
d="M80 0v98h82v-98h-82zM80 402v98h82v-98h-82z" />
    <glyph glyph-name="semicolon" unicode=";" horiz-adv-x="230" 
d="M80 402v98h82v-98h-82zM78 0v98h85v-90c0 -104 -60 -125 -95 -125v38c31 0 45 30 45 63c0 8 -1 16 -1 16h-34z" />
    <glyph glyph-name="exclam" unicode="!" horiz-adv-x="266" 
d="M92 0v98h82v-98h-82zM176 700l-7 -512h-72l-7 512h86z" />
    <glyph glyph-name="question" unicode="?" horiz-adv-x="526" 
d="M54 612l-9 71s80 27 204 27c126 0 227 -57 227 -183c0 -254 -240 -130 -240 -338c1 0 -78 0 -78 0c0 269 232 146 232 334c0 80 -64 109 -149 109c-91 0 -187 -20 -187 -20zM156 0v98h82v-98h-82z" />
    <glyph glyph-name="hyphen" unicode="-" horiz-adv-x="374" 
d="M309 330v-75h-244v75h244z" />
    <glyph glyph-name="equal" unicode="=" 
d="M511 227v-75h-443v75h443zM511 432v-75h-443v75h443z" />
    <glyph glyph-name="plus" unicode="+" 
d="M251 508h78v-178h182v-75h-182v-179h-78v179h-182v75h182v178z" />
    <glyph glyph-name="quotedbl" unicode="&#x22;" horiz-adv-x="334" 
d="M60 475v225h71l-10 -225h-61zM203 475v225h71l-10 -225h-61z" />
    <glyph glyph-name="quotesingle" unicode="'" horiz-adv-x="191" 
d="M60 475v225h71l-10 -225h-61z" />
    <glyph glyph-name="numbersign" unicode="#" 
d="M45 425v75h107l29 200h70l-29 -200h179l29 200h70l-29 -200h95v-75h-106l-21 -150h96v-75h-107l-29 -200h-70l29 200h-179l-29 -200h-70l29 200h-95v75h106l21 150h-96zM211 425l-21 -150h179l21 150h-179z" />
    <glyph glyph-name="dollar" unicode="$" 
d="M242 -48v52c-92 4 -162 25 -162 25l3 71s89 -20 182 -20c128 0 164 31 164 107c0 189 -360 69 -360 327c0 112 67 168 173 180v54h79v-53c104 -4 140 -23 140 -23l-4 -70s-84 18 -171 18c-81 0 -135 -27 -135 -103c0 -182 360 -63 360 -322c0 -109 -51 -177 -190 -189
v-54h-79z" />
    <glyph glyph-name="ampersand" unicode="&#x26;" horiz-adv-x="579" 
d="M447 227v97h77v-99c0 -66 -17 -115 -43 -150l41 -75h-85l-13 23c-42 -24 -92 -33 -133 -33c-97 0 -226 46 -226 235c0 118 58 182 140 204l-99 183v88h380v-77h-297v-6l249 -462c6 21 9 45 9 72zM295 66c40 0 71 8 94 22l-149 275c-52 -7 -90 -37 -90 -136
c0 -94 26 -161 145 -161z" />
    <glyph glyph-name="parenleft" unicode="(" horiz-adv-x="327" 
d="M282 -111v-79c-109 0 -197 83 -197 185v532c0 102 88 184 197 184v-81c-66 0 -114 -45 -114 -104v-532c0 -59 48 -105 114 -105z" />
    <glyph glyph-name="parenright" unicode=")" horiz-adv-x="328" 
d="M45 -190v79c66 0 113 46 113 105v532c0 59 -47 104 -113 104v81c109 0 198 -82 198 -184v-532c0 -102 -89 -185 -198 -185z" />
    <glyph glyph-name="asterisk" unicode="*" horiz-adv-x="450" 
d="M261 700v-125l119 39l20 -67l-118 -38l74 -101l-57 -40l-72 99l-73 -102l-56 42l73 99l-121 40l22 66l120 -39v127h69z" />
    <glyph glyph-name="slash" unicode="/" horiz-adv-x="320" 
d="M20 0l199 700h81l-200 -700h-80z" />
    <glyph glyph-name="less" unicode="&#x3c;" 
d="M68 256v73l443 218v-86l-356 -169l356 -168v-86z" />
    <glyph glyph-name="greater" unicode="&#x3e;" 
d="M511 329v-73l-443 -218v86l356 169l-356 168v86z" />
    <glyph glyph-name="backslash" unicode="\" horiz-adv-x="320" 
d="M101 700l199 -700h-80l-200 700h81z" />
    <glyph glyph-name="percent" unicode="%" horiz-adv-x="886" 
d="M380 570v-90c0 -85 -67 -140 -147 -140h-7c-79 0 -146 57 -146 140v90c0 84 67 140 146 140h7c80 0 147 -56 147 -140zM307 471v107c0 46 -33 71 -79 71c-44 0 -76 -25 -76 -71v-106c0 -47 32 -71 78 -71c44 0 77 24 77 70zM246 0l319 700h74l-317 -700h-76zM806 219v-90
c0 -85 -67 -140 -147 -140h-7c-79 0 -146 57 -146 140v90c0 84 67 140 146 140h7c80 0 147 -56 147 -140zM733 120v107c0 46 -33 71 -79 71c-44 0 -76 -25 -76 -71v-106c0 -47 32 -71 78 -71c44 0 77 24 77 70z" />
    <glyph glyph-name="bracketleft" unicode="[" horiz-adv-x="327" 
d="M282 -100v-79h-197v879h197v-81h-114v-719h114z" />
    <glyph glyph-name="bracketright" unicode="]" horiz-adv-x="327" 
d="M45 -179v79h114v719h-114v81h197v-879h-197z" />
    <glyph glyph-name="braceleft" unicode="{" horiz-adv-x="335" 
d="M290 -111v-79c-109 0 -196 83 -196 185v189c0 23 -24 44 -54 44v75c29 0 54 20 54 43v181c0 102 87 184 196 184v-81c-65 0 -112 -46 -112 -104v-170c0 -44 -31 -76 -58 -92c27 -15 58 -46 58 -91v-179c0 -59 47 -105 112 -105z" />
    <glyph glyph-name="braceright" unicode="}" horiz-adv-x="335" 
d="M45 -190v79c65 0 112 46 112 105v179c0 45 31 76 58 91c-27 16 -58 48 -58 92v170c0 58 -47 104 -112 104v81c109 0 196 -82 196 -184v-181c0 -23 25 -43 54 -43v-75c-30 0 -54 -21 -54 -44v-189c0 -102 -87 -185 -196 -185z" />
    <glyph glyph-name="asciicircum" unicode="^" horiz-adv-x="499" 
d="M216 700h68l165 -369h-79l-120 274l-121 -274h-79z" />
    <glyph glyph-name="bar" unicode="|" horiz-adv-x="235" 
d="M85 -180v880h65v-880h-65z" />
    <glyph glyph-name="underscore" unicode="_" horiz-adv-x="577" 
d="M0 -75h577v-67h-577v67z" />
    <glyph glyph-name="grave" unicode="`" horiz-adv-x="230" 
d="M230 562h-89l-141 138h114z" />
    <glyph glyph-name="acute" unicode="&#xb4;" horiz-adv-x="229" 
d="M89 562h-89l116 138h114z" />
    <glyph glyph-name="circumflex" unicode="&#x2c6;" horiz-adv-x="290" 
d="M72 562h-72l103 138h82l105 -138h-73l-74 75z" />
    <glyph glyph-name="at" unicode="@" horiz-adv-x="864" 
d="M659 19c-74 0 -103 49 -103 49s-87 -49 -152 -49c-99 0 -146 63 -149 143c-2 58 -2 118 0 176c3 81 54 146 166 146c93 0 181 -29 181 -29v-308c0 -39 20 -65 57 -65c48 0 53 43 54 80c3 91 2 161 0 277c-2 105 -98 199 -280 199c-177 0 -279 -94 -282 -199
c-4 -116 -4 -232 0 -348c3 -105 102 -199 282 -199c103 0 191 22 191 22l14 -71s-99 -23 -205 -23c-218 0 -355 128 -360 282c-3 108 -3 218 0 326c5 154 146 282 360 282c217 0 356 -128 359 -282c2 -108 2 -176 0 -256c-3 -117 -74 -153 -133 -153zM325 333
c-2 -55 -2 -111 0 -166c1 -45 26 -84 80 -84c59 0 127 38 127 38v281s-39 18 -111 18c-63 0 -94 -42 -96 -87z" />
    <glyph glyph-name="asciitilde" unicode="~" horiz-adv-x="596" 
d="M205 366c72 0 131 -73 192 -73c41 0 59 42 82 74l57 -37c-22 -32 -58 -112 -145 -112c-72 0 -131 73 -192 73c-41 0 -59 -42 -82 -74l-57 37c22 32 58 112 145 112z" />
    <glyph glyph-name="Euro" unicode="&#x20ac;" 
d="M428 309v-67h-221c0 -5 1 -20 1 -24c2 -79 61 -150 169 -150c59 0 144 14 144 14l3 -74s-66 -18 -147 -18c-154 0 -252 103 -255 228c0 4 -1 19 -1 24h-66v67h65v77h-65v68h66c0 6 1 22 1 28c3 125 103 228 255 228c84 0 144 -17 144 -17l-3 -74s-80 13 -141 13
c-106 0 -167 -71 -169 -150c0 -6 -1 -22 -1 -28h247v-68h-248v-77h222z" />
    <glyph glyph-name="OE" unicode="&#x152;" horiz-adv-x="920" 
d="M322 700h538v-78h-333v-220h302v-77h-302v-246h343v-79h-548c-154 0 -252 93 -255 218c-2 88 -2 176 0 264c3 125 103 218 255 218zM153 218c2 -79 61 -140 169 -140h120v544h-120c-106 0 -167 -61 -169 -140c-2 -88 -2 -176 0 -264z" />
    <glyph glyph-name="endash" unicode="&#x2013;" horiz-adv-x="390" 
d="M390 330v-75h-390v75h390z" />
    <glyph glyph-name="emdash" unicode="&#x2014;" horiz-adv-x="780" 
d="M780 330v-75h-780v75h780z" />
    <glyph glyph-name="bullet" unicode="&#x2022;" horiz-adv-x="452" 
d="M75 359c0 83 67 151 151 151c83 0 151 -68 151 -151c0 -84 -68 -151 -151 -151c-84 0 -151 67 -151 151z" />
    <glyph glyph-name="dieresis" unicode="&#xa8;" horiz-adv-x="252" 
d="M0 590v98h82v-98h-82zM170 590v98h82v-98h-82z" />
    <glyph glyph-name="tilde" unicode="&#x2dc;" horiz-adv-x="311" 
d="M70 579h-70c0 51 39 105 91 105c47 0 94 -42 125 -42c15 0 23 22 23 36h72c0 -51 -38 -105 -89 -105c-47 0 -95 42 -125 42c-16 0 -25 -20 -27 -36z" />
    <glyph glyph-name="perthousand" unicode="&#x2030;" horiz-adv-x="1245" 
d="M380 570v-90c0 -85 -67 -140 -147 -140h-7c-79 0 -146 57 -146 140v90c0 84 67 140 146 140h7c80 0 147 -56 147 -140zM307 471v107c0 46 -33 71 -79 71c-44 0 -76 -25 -76 -71v-106c0 -47 32 -71 78 -71c44 0 77 24 77 70zM246 0l319 700h74l-317 -700h-76zM806 219v-90
c0 -85 -67 -140 -147 -140h-7c-79 0 -146 57 -146 140v90c0 84 67 140 146 140h7c80 0 147 -56 147 -140zM733 120v107c0 46 -33 71 -79 71c-44 0 -76 -25 -76 -71v-106c0 -47 32 -71 78 -71c44 0 77 24 77 70zM1165 219v-90c0 -85 -67 -140 -147 -140h-7
c-79 0 -146 57 -146 140v90c0 84 67 140 146 140h7c80 0 147 -56 147 -140zM1092 120v107c0 46 -33 71 -79 71c-44 0 -76 -25 -76 -71v-106c0 -47 32 -71 78 -71c44 0 77 24 77 70z" />
    <glyph glyph-name="florin" unicode="&#x192;" 
d="M331 359l-44 -418c-8 -73 -53 -130 -139 -130c-46 0 -83 9 -83 9l12 68s25 -6 72 -6c34 0 55 19 61 73l43 404h-76l7 71h76l15 142c8 81 63 138 151 138c39 0 88 -9 88 -9l-13 -68s-36 6 -83 6c-34 0 -60 -19 -66 -73l-14 -136h143l-7 -71h-143z" />
    <glyph glyph-name="quotesinglbase" unicode="&#x201a;" horiz-adv-x="206" 
d="M56 0v98h85v-90c0 -104 -60 -125 -95 -125v38c31 0 45 30 45 63c0 8 -1 16 -1 16h-34z" />
    <glyph glyph-name="quotedblbase" unicode="&#x201e;" horiz-adv-x="358" 
d="M56 0v98h85v-90c0 -104 -60 -125 -95 -125v38c31 0 45 30 45 63c0 8 -1 16 -1 16h-34zM208 0v98h85v-90c0 -104 -60 -125 -95 -125v38c31 0 45 30 45 63c0 8 -1 16 -1 16h-34z" />
    <glyph glyph-name="quoteright" unicode="&#x2019;" horiz-adv-x="161" 
d="M56 602v98h85v-90c0 -104 -60 -125 -95 -125v38c31 0 45 30 45 63c0 8 -1 16 -1 16h-34z" />
    <glyph glyph-name="quoteleft" unicode="&#x2018;" horiz-adv-x="161" 
d="M105 594v-98h-85v90c0 104 60 125 95 125v-38c-31 0 -45 -30 -45 -63c0 -8 1 -16 1 -16h34z" />
    <glyph glyph-name="quotedblright" unicode="&#x201d;" horiz-adv-x="313" 
d="M56 602v98h85v-90c0 -104 -60 -125 -95 -125v38c31 0 45 30 45 63c0 8 -1 16 -1 16h-34zM208 602v98h85v-90c0 -104 -60 -125 -95 -125v38c31 0 45 30 45 63c0 8 -1 16 -1 16h-34z" />
    <glyph glyph-name="quotedblleft" unicode="&#x201c;" horiz-adv-x="313" 
d="M257 594v-98h-85v90c0 104 60 125 95 125v-38c-31 0 -45 -30 -45 -63c0 -8 1 -16 1 -16h34zM105 594v-98h-85v90c0 104 60 125 95 125v-38c-31 0 -45 -30 -45 -63c0 -8 1 -16 1 -16h34z" />
    <glyph glyph-name="dagger" unicode="&#x2020;" horiz-adv-x="564" 
d="M317 429v-609h-78v609h-179v71h179v200h78v-200h187v-71h-187z" />
    <glyph glyph-name="daggerdbl" unicode="&#x2021;" horiz-adv-x="564" 
d="M504 91v-71h-187v-200h-78v200h-179v71h179v338h-179v71h179v200h78v-200h187v-71h-187v-338h187z" />
    <glyph glyph-name="caron" unicode="&#x2c7;" horiz-adv-x="290" 
d="M0 700h72l71 -75l74 75h73l-105 -138h-82z" />
    <glyph glyph-name="guilsinglleft" unicode="&#x2039;" horiz-adv-x="346" 
d="M276 133h-89l-122 158l122 159h88l-123 -159z" />
    <glyph glyph-name="guilsinglright" unicode="&#x203a;" horiz-adv-x="346" 
d="M159 133h-88l123 158l-124 159h89l122 -159z" />
    <glyph glyph-name="guillemotleft" unicode="&#xab;" horiz-adv-x="525" 
d="M276 133h-89l-122 158l122 159h88l-123 -159zM455 133h-89l-122 158l122 159h88l-123 -159z" />
    <glyph glyph-name="guillemotright" unicode="&#xbb;" horiz-adv-x="525" 
d="M338 133h-89l124 158l-123 159h88l122 -159zM159 133h-89l124 158l-123 159h88l122 -159z" />
    <glyph glyph-name="oe" unicode="&#x153;" horiz-adv-x="799" 
d="M720 81l10 -67s-59 -24 -170 -24c-69 0 -119 24 -150 61c-32 -37 -85 -61 -152 -61c-127 0 -193 72 -196 162c-2 65 -2 131 0 196c3 89 69 162 196 162c68 0 120 -25 153 -63c31 38 82 63 149 63c111 0 184 -73 184 -162v-128h-293s0 -41 1 -62c2 -51 40 -97 107 -97
c81 0 161 20 161 20zM258 61c72 0 116 41 116 93v191c0 53 -44 94 -117 94s-114 -42 -117 -95c-3 -61 -3 -127 0 -188c3 -53 44 -95 118 -95zM452 342c-1 -16 -1 -51 -1 -51h216s0 35 -1 51c-2 52 -44 97 -104 97c-69 0 -107 -44 -110 -97z" />
    <glyph glyph-name="trademark" unicode="&#x2122;" horiz-adv-x="758" 
d="M70 647v53h239v-53h-92v-296h-56v296h-91zM668 700v-349h-56v249l-72 -113h-51l-68 113v-249h-57v349h62l90 -153l90 153h62z" />
    <glyph glyph-name="exclamdown" unicode="&#xa1;" horiz-adv-x="266" 
d="M174 500v-98h-82v98h82zM90 -200l7 512h72l7 -512h-86z" />
    <glyph glyph-name="cent" unicode="&#xa2;" 
d="M277 -50v52c-97 12 -148 79 -150 160c-2 65 -2 131 0 196c2 80 53 147 150 160v52h78v-51c53 -3 92 -11 92 -11l-7 -71s-68 12 -129 12c-65 0 -104 -45 -106 -95c-2 -61 -2 -127 0 -188c2 -50 40 -95 106 -95c80 0 134 16 134 16l10 -70s-43 -11 -100 -16v-51h-78z" />
    <glyph glyph-name="sterling" unicode="&#xa3;" 
d="M71 325v68h49c-9 35 -18 81 -18 128c0 142 101 189 235 189c77 0 151 -15 151 -15l-4 -74s-73 11 -147 11c-85 0 -151 -25 -151 -111c0 -54 11 -96 22 -128h261v-68h-241c5 -21 8 -46 8 -76c0 -94 -63 -171 -63 -171h336v-78h-435v82s78 51 78 167c0 24 -6 48 -14 76h-67
z" />
    <glyph glyph-name="yen" unicode="&#xa5;" 
d="M490 249v-67h-158v-182h-84v182h-158v67h150l-35 76h-115v68h84l-141 307h96l161 -380l161 380h96l-141 -307h84v-68h-116l-35 -76h151z" />
    <glyph glyph-name="currency" unicode="&#xa4;" 
d="M71 458l54 54l53 -54c29 24 66 37 111 37c44 0 83 -13 112 -37l54 54l53 -54l-64 -63c6 -17 10 -35 10 -54v-99c0 -19 -3 -36 -9 -51l64 -63l-54 -54l-53 54c-29 -24 -69 -38 -113 -38c-46 0 -83 12 -112 37l-54 -53l-53 53l63 62c-6 16 -9 34 -9 53v99c0 19 5 37 10 53z
M374 233v117c0 51 -37 78 -87 78c-49 0 -84 -27 -84 -78v-116c0 -52 35 -77 86 -77c48 0 85 25 85 76z" />
    <glyph glyph-name="brokenbar" unicode="&#xa6;" horiz-adv-x="236" 
d="M85 337v364h66v-364h-66zM85 -180v362h66v-362h-66z" />
    <glyph glyph-name="ordfeminine" unicode="&#xaa;" horiz-adv-x="369" 
d="M250 377l-2 27c-9 -6 -54 -33 -99 -33c-62 0 -99 43 -99 102c0 58 32 107 99 107h97v20c0 31 -22 61 -62 61c-49 0 -112 -12 -112 -12l-5 47s61 14 116 14c77 0 116 -47 116 -106v-227h-49zM151 422c42 0 95 42 95 42v67h-94c-35 0 -47 -27 -47 -57s12 -52 46 -52z
M60 277v47h239v-47h-239z" />
    <glyph glyph-name="ordmasculine" unicode="&#xba;" horiz-adv-x="359" 
d="M308 477c-2 -58 -50 -106 -127 -106c-82 0 -126 49 -129 106c-2 43 -2 84 0 127c3 58 47 106 129 106c77 0 125 -47 127 -106c1 -43 1 -84 0 -127zM254 601c-2 34 -27 60 -74 60c-44 0 -71 -27 -73 -60c-3 -40 -3 -81 0 -121c2 -33 29 -59 74 -59s71 26 73 59
c3 39 2 81 0 121zM58 277v47h243v-47h-243z" />
    <glyph glyph-name="questiondown" unicode="&#xbf;" horiz-adv-x="526" 
d="M481 -183l-9 71s-96 -20 -187 -20c-85 0 -149 29 -149 109c0 188 232 65 232 334c0 0 -79 0 -78 0c0 -208 -240 -84 -240 -338c0 -126 101 -183 227 -183c124 0 204 27 204 27zM370 500v-98h-82v98h82z" />
    <glyph glyph-name="copyright" unicode="&#xa9;" horiz-adv-x="840" 
d="M60 350c0 199 161 360 360 360s360 -161 360 -360s-161 -360 -360 -360s-360 161 -360 360zM126 350c0 -162 132 -294 294 -294s294 132 294 294s-132 294 -294 294s-294 -132 -294 -294zM517 221l8 -57s-46 -14 -111 -14c-96 0 -147 59 -149 132c-2 52 -2 86 0 138
c2 72 54 132 150 132c59 0 104 -10 104 -10l-6 -58s-49 10 -99 10c-53 0 -85 -36 -86 -77c-1 -49 -1 -83 0 -133c1 -40 32 -76 86 -76c65 0 103 13 103 13z" />
    <glyph glyph-name="registered" unicode="&#xae;" horiz-adv-x="544" 
d="M323 372l-44 80h-42v-80h-38v235h92c39 0 62 -25 62 -55v-43c0 -22 -13 -43 -35 -53l51 -84h-46zM315 507v46c0 7 -5 15 -24 15h-54v-78h54c19 0 24 8 24 17zM50 489c0 122 100 222 222 222s222 -100 222 -222s-100 -222 -222 -222s-222 100 -222 222zM99 489
c0 -97 76 -173 173 -173s173 76 173 173s-76 173 -173 173s-173 -76 -173 -173z" />
    <glyph glyph-name="onesuperior" unicode="&#xb9;" horiz-adv-x="251" 
d="M47 605v58l74 37h60v-440h-62v376z" />
    <glyph glyph-name="twosuperior" unicode="&#xb2;" horiz-adv-x="392" 
d="M76 634l-2 60s50 16 117 16c81 0 141 -37 141 -129c0 -62 -21 -92 -59 -128l-139 -131h197v-61h-271v71l161 157c36 36 46 53 46 94c0 48 -35 66 -81 66c-51 0 -110 -15 -110 -15z" />
    <glyph glyph-name="threesuperior" unicode="&#xb3;" horiz-adv-x="388" 
d="M62 641v59h251v-60l-93 -110c46 -8 108 -30 108 -129c0 -122 -87 -151 -147 -151c-76 0 -121 19 -121 19l2 58s61 -17 116 -17c66 0 87 38 87 93c0 69 -52 70 -88 70h-33v52l94 116h-176z" />
    <glyph glyph-name="onequarter" unicode="&#xbc;" horiz-adv-x="761" 
d="M384 92v55l148 294h70l-146 -288h129v112h62v-112h44v-61h-44v-92h-62v92h-201zM130 0l319 700h69l-317 -700h-71zM47 605v58l74 37h60v-440h-62v376z" />
    <glyph glyph-name="uni00AD" unicode="&#xad;" horiz-adv-x="833" 
 />
    <glyph glyph-name="onehalf" unicode="&#xbd;" horiz-adv-x="791" 
d="M130 0l319 700h69l-317 -700h-71zM463 433l2 -60s59 15 110 15c46 0 81 -18 81 -66c0 -41 -10 -58 -46 -94l-161 -157v-71h271v61h-197l139 131c38 36 59 66 59 128c0 92 -60 129 -141 129c-67 0 -117 -16 -117 -16zM47 605v58l74 37h60v-440h-62v376z" />
    <glyph glyph-name="threequarters" unicode="&#xbe;" horiz-adv-x="891" 
d="M514 92v55l148 294h70l-146 -288h129v112h62v-112h44v-61h-44v-92h-62v92h-201zM260 0l319 700h69l-317 -700h-71zM72 641v59h251v-60l-93 -110c46 -8 108 -30 108 -129c0 -122 -87 -151 -147 -151c-76 0 -121 19 -121 19l2 58s61 -17 116 -17c66 0 87 38 87 93
c0 69 -52 70 -88 70h-33v52l94 116h-176z" />
    <glyph glyph-name="degree" unicode="&#xb0;" horiz-adv-x="402" 
d="M55 565c0 80 66 146 146 146s146 -66 146 -146s-66 -146 -146 -146s-146 66 -146 146zM120 565c0 -44 36 -81 80 -81c45 0 81 37 81 81s-36 81 -81 81c-44 0 -80 -37 -80 -81z" />
    <glyph glyph-name="logicalnot" unicode="&#xac;" 
d="M511 330v-254h-80v179h-363v75h443z" />
    <glyph glyph-name="macron" unicode="&#xaf;" horiz-adv-x="302" 
d="M0 594v71h302v-71h-302z" />
    <glyph glyph-name="plusminus" unicode="&#xb1;" 
d="M511 74v-74h-442v74h442zM251 500h78v-148h182v-75h-182v-149h-78v149h-182v75h182v148z" />
    <glyph glyph-name="periodcentered" unicode="&#xb7;" horiz-adv-x="242" 
d="M80 242v98h82v-98h-82z" />
    <glyph glyph-name="dotaccent" unicode="&#x2d9;" horiz-adv-x="82" 
d="M0 590v98h82v-98h-82z" />
    <glyph glyph-name="ring" unicode="&#x2da;" horiz-adv-x="174" 
d="M0 630c0 49 37 85 86 85c48 0 88 -36 88 -85c0 -48 -40 -84 -88 -84c-49 0 -86 36 -86 84zM51 631c0 -20 14 -35 35 -35s36 15 36 35c0 21 -15 36 -36 36s-35 -15 -35 -36z" />
    <glyph glyph-name="breve" unicode="&#x2d8;" horiz-adv-x="279" 
d="M0 700h74c0 -29 21 -58 66 -58c46 0 65 29 65 58h74c0 -71 -55 -127 -139 -127c-86 0 -140 56 -140 127z" />
    <glyph glyph-name="ogonek" unicode="&#x2db;" horiz-adv-x="157" 
d="M149 -119l8 -57s-38 -13 -71 -13c-56 0 -86 41 -86 82c0 61 77 107 77 107h79s-85 -49 -85 -99c0 -15 15 -26 31 -26c23 0 47 6 47 6z" />
    <glyph glyph-name="cedilla" unicode="&#xb8;" horiz-adv-x="222" 
d="M222 -109c0 -57 -34 -81 -85 -81c-39 0 -77 6 -77 6l3 43s35 -4 59 -4c25 0 40 11 40 36c0 22 -15 30 -40 30h-40l17 79h55l-8 -40c42 0 76 -12 76 -69z" />
    <glyph glyph-name="hungarumlaut" unicode="&#x2dd;" horiz-adv-x="424" 
d="M89 562h-89l116 138h114zM283 562h-89l116 138h114z" />
    <glyph glyph-name="section" unicode="&#xa7;" horiz-adv-x="570" 
d="M434 143c33 -22 56 -55 56 -118c0 -115 -81 -170 -212 -170c-82 0 -176 18 -176 18l4 68s118 -17 169 -17c92 0 132 31 132 99c0 163 -332 33 -332 262c0 72 58 138 58 138c-30 22 -53 55 -53 118c0 115 81 170 212 170c82 0 176 -18 176 -18l-4 -68s-118 17 -169 17
c-92 0 -132 -31 -132 -99c0 -163 332 -33 332 -262c0 -72 -61 -138 -61 -138zM197 392c0 0 -41 -45 -41 -97c0 -107 144 -88 217 -121c0 0 41 45 41 97c0 107 -146 88 -217 121z" />
    <glyph glyph-name="multiply" unicode="&#xd7;" 
d="M151 99l-53 53l139 138l-141 141l53 53l141 -141l140 140l53 -53l-140 -140l138 -138l-53 -53l-138 138z" />
    <glyph glyph-name="divide" unicode="&#xf7;" 
d="M240 86v99h100v-99h-100zM240 405v99h100v-99h-100zM69 330h442v-75h-442v75z" />
    <glyph glyph-name="minus" unicode="&#x2212;" 
d="M69 330h442v-75h-442v75z" />
    <glyph glyph-name="Oslash" unicode="&#xd8;" horiz-adv-x="643" 
d="M67 0l49 80c-31 39 -48 86 -49 138c-2 88 -2 176 0 264c3 125 103 228 255 228c60 0 111 -16 152 -43l20 33h81l-49 -80c31 -39 49 -87 50 -138c2 -88 2 -176 0 -264c-3 -125 -103 -228 -254 -228c-61 0 -114 16 -155 43l-20 -33h-80zM151 217c0 -21 4 -40 12 -59
l270 442c-28 21 -65 35 -111 35c-107 0 -169 -72 -171 -152c-2 -89 -2 -177 0 -266zM490 217c2 89 2 177 0 266c-1 20 -5 40 -12 58l-270 -441c28 -22 66 -35 114 -35c106 0 166 72 168 152z" />
    <glyph glyph-name="eth" unicode="&#xf0;" horiz-adv-x="515" 
d="M455 678v-75l-48 -22c31 -55 45 -118 45 -173c0 0 2 -199 0 -256c-3 -90 -77 -162 -194 -162c-127 0 -193 72 -196 162c-2 65 -2 96 0 161c3 89 69 162 196 162c53 0 116 -21 116 -21c0 32 -12 67 -32 98l-88 -39v75l40 18c-26 19 -56 31 -88 31c-23 0 -54 -1 -54 -1
l-5 71s39 3 49 3c73 0 130 -29 170 -72zM374 381c0 0 -43 23 -117 23c-73 0 -114 -42 -117 -95c-3 -61 -3 -92 0 -153c3 -53 44 -95 118 -95c73 0 116 48 116 95v225z" />
    <glyph glyph-name="germandbls" unicode="&#xdf;" horiz-adv-x="539" 
d="M202 5l11 69s61 -11 93 -11c85 0 114 22 114 71c0 122 -162 89 -162 241c0 96 115 147 115 147v19c0 57 -44 98 -115 98c-73 0 -110 -42 -110 -98v-541h-78v548c0 89 62 162 189 162c110 0 189 -72 189 -162v-61s-112 -46 -112 -107c0 -94 163 -76 163 -241
c0 -95 -56 -146 -188 -146c-41 0 -109 12 -109 12z" />
    <glyph glyph-name="mu" unicode="&#xb5;" horiz-adv-x="525" 
d="M70 -180v680h78v-342c0 -50 24 -97 84 -97c68 0 145 48 145 48v391h78v-500h-73l-5 34s-71 -44 -147 -44c-55 0 -82 22 -82 22v-192h-78z" />
    <glyph glyph-name="paragraph" unicode="&#xb6;" horiz-adv-x="529" 
d="M248 -180v492c-109 0 -198 91 -198 192c0 109 89 196 199 196h200v-880h-67v806h-67v-806h-67z" />
    <glyph glyph-name="fraction" unicode="&#x2044;" horiz-adv-x="245" 
d="M-73 0l319 700h69l-317 -700h-71z" />
    <glyph glyph-name="Lslash" unicode="&#x141;" horiz-adv-x="501" 
d="M20 310l61 34v356h85v-308l199 113v-86l-199 -113v-227h315v-79h-400v258l-61 -34v86z" />
    <glyph glyph-name="lslash" unicode="&#x142;" horiz-adv-x="261" 
d="M77 0v300l-57 -32v81l57 32v319h77v-275l87 50v-81l-87 -50v-344h-77z" />
    <glyph glyph-name="A" unicode="A" horiz-adv-x="607" 
d="M240 700h125l222 -700h-89l-62 203h-266l-62 -203h-88zM413 278l-107 346h-7l-107 -346h221z" />
    <glyph glyph-name="ellipsis" unicode="&#x2026;" horiz-adv-x="726" 
d="M80 0v98h82v-98h-82zM322 0v98h82v-98h-82zM564 0v98h82v-98h-82z" />
    <glyph glyph-name="Ccedilla" unicode="&#xc7;" horiz-adv-x="547" 
d="M499 88l3 -74s-80 -19 -154 -23l-6 -31c42 0 76 -12 76 -69s-34 -81 -85 -81c-39 0 -77 6 -77 6l3 43s35 -4 59 -4c25 0 40 11 40 36c0 22 -15 30 -40 30h-40l15 70c-137 12 -223 110 -226 227c-2 88 -2 176 0 264c3 125 103 228 255 228c84 0 175 -23 175 -23l-3 -74
s-111 19 -172 19c-106 0 -167 -71 -169 -150c-2 -88 -2 -176 0 -264c2 -79 61 -150 169 -150c59 0 177 20 177 20z" />
    <glyph glyph-name="AE" unicode="&#xc6;" horiz-adv-x="954" 
d="M398 700h496v-78h-333v-220h302v-77h-302v-246h343v-79h-428v203h-271l-115 -203h-90zM476 278v344h-32l-195 -344h227z" />
    <glyph glyph-name="Eth" unicode="&#xd0;" horiz-adv-x="628" 
d="M81 0v325h-61v78h61v297h225c152 0 252 -93 255 -218c2 -88 2 -176 0 -264c-3 -125 -101 -218 -255 -218h-225zM311 403v-78h-146v-247h141c108 0 167 61 169 140c2 88 2 176 0 264c-2 79 -63 140 -169 140h-141v-219h146z" />
    <glyph glyph-name="ae" unicode="&#xe6;" horiz-adv-x="779" 
d="M700 81l10 -67s-59 -24 -170 -24c-75 0 -128 28 -158 71c-29 -19 -107 -71 -182 -71c-95 0 -150 65 -150 156c0 87 47 150 150 150h153s0 20 -1 46c-2 50 -35 97 -98 97c-74 0 -171 -18 -171 -18l-7 68s94 21 177 21c65 0 112 -23 142 -59c32 36 81 59 145 59
c111 0 184 -73 184 -162v-123h-293s0 -46 1 -67c2 -51 40 -97 107 -97c81 0 161 20 161 20zM203 62c73 0 153 71 153 71c-4 33 -4 92 -4 92h-148c-58 0 -76 -30 -76 -78c0 -47 19 -85 75 -85zM432 342c-1 -16 -1 -46 -1 -46h216s0 30 -1 46c-3 52 -44 97 -104 97
c-69 0 -107 -44 -110 -97z" />
    <glyph glyph-name="oslash" unicode="&#xf8;" horiz-adv-x="514" 
d="M452 152c-3 -90 -77 -162 -194 -162c-45 0 -82 9 -111 24l-9 -14h-75l34 54c-22 27 -34 61 -35 98c-2 65 -2 131 0 196c3 89 69 162 196 162c42 0 79 -10 109 -27l11 17h76l-37 -58c22 -27 34 -59 35 -94c2 -65 2 -131 0 -196zM140 156c0 -9 2 -18 5 -26l183 291
c-18 11 -42 18 -71 18c-73 0 -114 -42 -117 -95c-3 -61 -3 -127 0 -188zM374 344c-1 8 -2 15 -4 23l-183 -289c19 -11 42 -17 71 -17c73 0 113 42 116 95c3 61 3 127 0 188z" />
    <glyph glyph-name="Scaron" unicode="&#x160;" horiz-adv-x="578" 
d="M486 687l-4 -74s-108 19 -192 19c-85 0 -149 -29 -149 -109c0 -188 392 -65 392 -334c0 -127 -76 -199 -258 -199c-110 0 -208 25 -208 25l4 75s101 -22 197 -22c133 0 179 33 179 113c0 197 -392 71 -392 339c0 133 101 190 235 190c122 0 196 -23 196 -23zM144 900h72
l71 -75l74 75h73l-105 -138h-82z" />
    <glyph glyph-name="Zcaron" unicode="&#x17d;" horiz-adv-x="587" 
d="M533 616l-385 -534v-4h389v-78h-487v84l383 534v4h-375v78h475v-84zM148 900h72l71 -75l74 75h73l-105 -138h-82z" />
    <glyph glyph-name="scaron" unicode="&#x161;" horiz-adv-x="441" 
d="M362 423l8 69s-65 18 -148 18c-99 0 -172 -43 -172 -142c0 -190 272 -112 272 -234c0 -49 -29 -73 -114 -73c-67 0 -143 21 -143 21l-10 -68s74 -24 158 -24c132 0 188 54 188 149c0 190 -273 116 -273 231c0 49 42 69 94 69c63 0 140 -16 140 -16zM75 700h72l71 -75
l74 75h73l-105 -138h-82z" />
    <glyph glyph-name="zcaron" unicode="&#x17e;" horiz-adv-x="433" 
d="M389 428l-256 -353v-4h260v-71h-353v73l257 352v4h-246v71h338v-72zM71 700h72l71 -75l74 75h73l-105 -138h-82z" />
    <glyph glyph-name="Ydieresis" unicode="&#x178;" horiz-adv-x="584" 
d="M111 700l181 -332l180 332h97l-235 -416v-284h-84v284l-235 416h96zM166 790v98h82v-98h-82zM336 790v98h82v-98h-82z" />
    <glyph glyph-name="Agrave" unicode="&#xc0;" horiz-adv-x="607" 
d="M240 700h125l222 -700h-89l-62 203h-266l-62 -203h-88zM413 278l-107 346h-7l-107 -346h221zM348 762h-89l-141 138h114z" />
    <glyph glyph-name="Aacute" unicode="&#xc1;" horiz-adv-x="607" 
d="M240 700h125l222 -700h-89l-62 203h-266l-62 -203h-88zM413 278l-107 346h-7l-107 -346h221zM344 762h-89l116 138h114z" />
    <glyph glyph-name="Acircumflex" unicode="&#xc2;" horiz-adv-x="607" 
d="M240 700h125l222 -700h-89l-62 203h-266l-62 -203h-88zM413 278l-107 346h-7l-107 -346h221zM230 762h-72l103 138h82l105 -138h-73l-74 75z" />
    <glyph glyph-name="Atilde" unicode="&#xc3;" horiz-adv-x="607" 
d="M240 700h125l222 -700h-89l-62 203h-266l-62 -203h-88zM413 278l-107 346h-7l-107 -346h221zM218 779h-70c0 51 39 105 91 105c47 0 94 -42 125 -42c15 0 23 22 23 36h72c0 -51 -38 -105 -89 -105c-47 0 -95 42 -125 42c-16 0 -25 -20 -27 -36z" />
    <glyph glyph-name="Adieresis" unicode="&#xc4;" horiz-adv-x="607" 
d="M240 700h125l222 -700h-89l-62 203h-266l-62 -203h-88zM413 278l-107 346h-7l-107 -346h221zM177 790v98h82v-98h-82zM347 790v98h82v-98h-82z" />
    <glyph glyph-name="Aring" unicode="&#xc5;" horiz-adv-x="607" 
d="M240 700h125l222 -700h-89l-62 203h-266l-62 -203h-88zM413 278l-107 346h-7l-107 -346h221zM216 830c0 49 37 85 86 85c48 0 88 -36 88 -85c0 -48 -40 -84 -88 -84c-49 0 -86 36 -86 84zM267 831c0 -20 14 -35 35 -35s36 15 36 35c0 21 -15 36 -36 36s-35 -15 -35 -36z
" />
    <glyph glyph-name="Egrave" unicode="&#xc8;" horiz-adv-x="578" 
d="M80 700h438v-78h-354v-220h323v-77h-323v-246h364v-79h-448v700zM361 762h-89l-141 138h114z" />
    <glyph glyph-name="Eacute" unicode="&#xc9;" horiz-adv-x="578" 
d="M80 700h438v-78h-354v-220h323v-77h-323v-246h364v-79h-448v700zM335 762h-89l116 138h114z" />
    <glyph glyph-name="Ecircumflex" unicode="&#xca;" horiz-adv-x="578" 
d="M80 700h438v-78h-354v-220h323v-77h-323v-246h364v-79h-448v700zM238 762h-72l103 138h82l105 -138h-73l-74 75z" />
    <glyph glyph-name="Edieresis" unicode="&#xcb;" horiz-adv-x="578" 
d="M80 700h438v-78h-354v-220h323v-77h-323v-246h364v-79h-448v700zM185 790v98h82v-98h-82zM355 790v98h82v-98h-82z" />
    <glyph glyph-name="Igrave" unicode="&#xcc;" horiz-adv-x="244" 
d="M164 700v-700h-84v700h84zM166 762h-89l-141 138h114z" />
    <glyph glyph-name="Iacute" unicode="&#xcd;" horiz-adv-x="244" 
d="M164 700v-700h-84v700h84zM164 762h-89l116 138h114z" />
    <glyph glyph-name="Icircumflex" unicode="&#xce;" horiz-adv-x="244" 
d="M164 700v-700h-84v700h84zM49 762h-72l103 138h82l105 -138h-73l-74 75z" />
    <glyph glyph-name="Idieresis" unicode="&#xcf;" horiz-adv-x="244" 
d="M164 700v-700h-84v700h84zM-4 790v98h82v-98h-82zM166 790v98h82v-98h-82z" />
    <glyph glyph-name="dotlessi" unicode="&#x131;" horiz-adv-x="223" 
d="M72 0v500h78v-500h-78z" />
    <glyph glyph-name="Ntilde" unicode="&#xd1;" horiz-adv-x="656" 
d="M493 700h83v-700h-99l-290 519l-28 65l4 -68v-516h-83v700h99l291 -520l27 -64l-4 67v517zM242 779h-70c0 51 39 105 91 105c47 0 94 -42 125 -42c15 0 23 22 23 36h72c0 -51 -38 -105 -89 -105c-47 0 -95 42 -125 42c-16 0 -25 -20 -27 -36z" />
    <glyph glyph-name="Ograve" unicode="&#xd2;" horiz-adv-x="643" 
d="M576 482c2 -88 2 -176 0 -264c-3 -125 -103 -228 -254 -228c-154 0 -252 103 -255 228c-2 88 -2 176 0 264c3 125 103 228 255 228c153 0 251 -103 254 -228zM490 217c2 89 2 177 0 266c-2 80 -60 152 -168 152c-107 0 -169 -72 -171 -152c-2 -89 -2 -177 0 -266
c2 -80 62 -152 171 -152c106 0 166 72 168 152zM365 762h-89l-141 138h114z" />
    <glyph glyph-name="Oacute" unicode="&#xd3;" horiz-adv-x="643" 
d="M576 482c2 -88 2 -176 0 -264c-3 -125 -103 -228 -254 -228c-154 0 -252 103 -255 228c-2 88 -2 176 0 264c3 125 103 228 255 228c153 0 251 -103 254 -228zM490 217c2 89 2 177 0 266c-2 80 -60 152 -168 152c-107 0 -169 -72 -171 -152c-2 -89 -2 -177 0 -266
c2 -80 62 -152 171 -152c106 0 166 72 168 152zM361 762h-89l116 138h114z" />
    <glyph glyph-name="Ocircumflex" unicode="&#xd4;" horiz-adv-x="643" 
d="M576 482c2 -88 2 -176 0 -264c-3 -125 -103 -228 -254 -228c-154 0 -252 103 -255 228c-2 88 -2 176 0 264c3 125 103 228 255 228c153 0 251 -103 254 -228zM490 217c2 89 2 177 0 266c-2 80 -60 152 -168 152c-107 0 -169 -72 -171 -152c-2 -89 -2 -177 0 -266
c2 -80 62 -152 171 -152c106 0 166 72 168 152zM248 762h-72l103 138h82l105 -138h-73l-74 75z" />
    <glyph glyph-name="Otilde" unicode="&#xd5;" horiz-adv-x="643" 
d="M576 482c2 -88 2 -176 0 -264c-3 -125 -103 -228 -254 -228c-154 0 -252 103 -255 228c-2 88 -2 176 0 264c3 125 103 228 255 228c153 0 251 -103 254 -228zM490 217c2 89 2 177 0 266c-2 80 -60 152 -168 152c-107 0 -169 -72 -171 -152c-2 -89 -2 -177 0 -266
c2 -80 62 -152 171 -152c106 0 166 72 168 152zM236 779h-70c0 51 39 105 91 105c47 0 94 -42 125 -42c15 0 23 22 23 36h72c0 -51 -38 -105 -89 -105c-47 0 -95 42 -125 42c-16 0 -25 -20 -27 -36z" />
    <glyph glyph-name="Odieresis" unicode="&#xd6;" horiz-adv-x="643" 
d="M576 482c2 -88 2 -176 0 -264c-3 -125 -103 -228 -254 -228c-154 0 -252 103 -255 228c-2 88 -2 176 0 264c3 125 103 228 255 228c153 0 251 -103 254 -228zM490 217c2 89 2 177 0 266c-2 80 -60 152 -168 152c-107 0 -169 -72 -171 -152c-2 -89 -2 -177 0 -266
c2 -80 62 -152 171 -152c106 0 166 72 168 152zM195 790v98h82v-98h-82zM365 790v98h82v-98h-82z" />
    <glyph glyph-name="Ugrave" unicode="&#xd9;" horiz-adv-x="659" 
d="M500 700h84v-482c0 -125 -103 -228 -254 -228c-154 0 -255 103 -255 228v482h84v-482c0 -79 63 -150 171 -150c105 0 170 71 170 150v482zM397 762h-89l-141 138h114z" />
    <glyph glyph-name="Uacute" unicode="&#xda;" horiz-adv-x="659" 
d="M500 700h84v-482c0 -125 -103 -228 -254 -228c-154 0 -255 103 -255 228v482h84v-482c0 -79 63 -150 171 -150c105 0 170 71 170 150v482zM366 762h-89l116 138h114z" />
    <glyph glyph-name="Ucircumflex" unicode="&#xdb;" horiz-adv-x="659" 
d="M500 700h84v-482c0 -125 -103 -228 -254 -228c-154 0 -255 103 -255 228v482h84v-482c0 -79 63 -150 171 -150c105 0 170 71 170 150v482zM256 762h-72l103 138h82l105 -138h-73l-74 75z" />
    <glyph glyph-name="Udieresis" unicode="&#xdc;" horiz-adv-x="659" 
d="M500 700h84v-482c0 -125 -103 -228 -254 -228c-154 0 -255 103 -255 228v482h84v-482c0 -79 63 -150 171 -150c105 0 170 71 170 150v482zM203 790v98h82v-98h-82zM373 790v98h82v-98h-82z" />
    <glyph glyph-name="Yacute" unicode="&#xdd;" horiz-adv-x="584" 
d="M111 700l181 -332l180 332h97l-235 -416v-284h-84v284l-235 416h96zM324 762h-89l116 138h114z" />
    <glyph glyph-name="agrave" unicode="&#xe0;" horiz-adv-x="495" 
d="M359 0l-5 44s-79 -54 -154 -54c-95 0 -150 65 -150 156c0 87 47 162 150 162h153v34c0 50 -36 97 -99 97c-74 0 -171 -18 -171 -18l-7 68s94 21 177 21c117 0 177 -73 177 -162v-348h-71zM203 62c73 0 150 68 150 68v107h-149c-58 0 -76 -42 -76 -90c0 -47 19 -85 75 -85
zM293 562h-89l-141 138h114z" />
    <glyph glyph-name="aacute" unicode="&#xe1;" horiz-adv-x="495" 
d="M359 0l-5 44s-79 -54 -154 -54c-95 0 -150 65 -150 156c0 87 47 162 150 162h153v34c0 50 -36 97 -99 97c-74 0 -171 -18 -171 -18l-7 68s94 21 177 21c117 0 177 -73 177 -162v-348h-71zM203 62c73 0 150 68 150 68v107h-149c-58 0 -76 -42 -76 -90c0 -47 19 -85 75 -85
zM287 562h-89l116 138h114z" />
    <glyph glyph-name="acircumflex" unicode="&#xe2;" horiz-adv-x="495" 
d="M359 0l-5 44s-79 -54 -154 -54c-95 0 -150 65 -150 156c0 87 47 162 150 162h153v34c0 50 -36 97 -99 97c-74 0 -171 -18 -171 -18l-7 68s94 21 177 21c117 0 177 -73 177 -162v-348h-71zM203 62c73 0 150 68 150 68v107h-149c-58 0 -76 -42 -76 -90c0 -47 19 -85 75 -85
zM179 562h-72l103 138h82l105 -138h-73l-74 75z" />
    <glyph glyph-name="atilde" unicode="&#xe3;" horiz-adv-x="495" 
d="M359 0l-5 44s-79 -54 -154 -54c-95 0 -150 65 -150 156c0 87 47 162 150 162h153v34c0 50 -36 97 -99 97c-74 0 -171 -18 -171 -18l-7 68s94 21 177 21c117 0 177 -73 177 -162v-348h-71zM203 62c73 0 150 68 150 68v107h-149c-58 0 -76 -42 -76 -90c0 -47 19 -85 75 -85
zM162 579h-70c0 51 39 105 91 105c47 0 94 -42 125 -42c15 0 23 22 23 36h72c0 -51 -38 -105 -89 -105c-47 0 -95 42 -125 42c-16 0 -25 -20 -27 -36z" />
    <glyph glyph-name="adieresis" unicode="&#xe4;" horiz-adv-x="495" 
d="M359 0l-5 44s-79 -54 -154 -54c-95 0 -150 65 -150 156c0 87 47 162 150 162h153v34c0 50 -36 97 -99 97c-74 0 -171 -18 -171 -18l-7 68s94 21 177 21c117 0 177 -73 177 -162v-348h-71zM203 62c73 0 150 68 150 68v107h-149c-58 0 -76 -42 -76 -90c0 -47 19 -85 75 -85
zM121 590v98h82v-98h-82zM291 590v98h82v-98h-82z" />
    <glyph glyph-name="aring" unicode="&#xe5;" horiz-adv-x="495" 
d="M359 0l-5 44s-79 -54 -154 -54c-95 0 -150 65 -150 156c0 87 47 162 150 162h153v34c0 50 -36 97 -99 97c-74 0 -171 -18 -171 -18l-7 68s94 21 177 21c117 0 177 -73 177 -162v-348h-71zM203 62c73 0 150 68 150 68v107h-149c-58 0 -76 -42 -76 -90c0 -47 19 -85 75 -85
zM164 630c0 49 37 85 86 85c48 0 88 -36 88 -85c0 -48 -40 -84 -88 -84c-49 0 -86 36 -86 84zM215 631c0 -20 14 -35 35 -35s36 15 36 35c0 21 -15 36 -36 36s-35 -15 -35 -36z" />
    <glyph glyph-name="ccedilla" unicode="&#xe7;" horiz-adv-x="420" 
d="M380 77l10 -70s-52 -13 -120 -16l-6 -31c42 0 76 -12 76 -69s-34 -81 -85 -81c-39 0 -77 6 -77 6l3 43s35 -4 59 -4c25 0 40 11 40 36c0 22 -15 30 -40 30h-40l15 71c-99 11 -151 78 -153 160c-2 65 -2 131 0 196c3 89 66 162 185 162c74 0 135 -12 135 -12l-7 -71
s-68 12 -129 12c-65 0 -104 -45 -106 -95c-2 -61 -2 -127 0 -188c2 -50 40 -95 106 -95c80 0 134 16 134 16z" />
    <glyph glyph-name="egrave" unicode="&#xe8;" horiz-adv-x="487" 
d="M408 81l10 -67s-59 -24 -170 -24c-119 0 -182 72 -186 162c-1 32 -2 65 -2 98s1 65 2 98c4 89 72 162 186 162c111 0 184 -73 184 -162v-128h-293s0 -41 1 -62c2 -51 40 -97 107 -97c81 0 161 20 161 20zM140 342c-1 -16 -1 -51 -1 -51h216s0 35 -1 51
c-2 52 -44 97 -104 97c-69 0 -107 -44 -110 -97zM299 562h-89l-141 138h114z" />
    <glyph glyph-name="eacute" unicode="&#xe9;" horiz-adv-x="487" 
d="M408 81l10 -67s-59 -24 -170 -24c-119 0 -182 72 -186 162c-1 32 -2 65 -2 98s1 65 2 98c4 89 72 162 186 162c111 0 184 -73 184 -162v-128h-293s0 -41 1 -62c2 -51 40 -97 107 -97c81 0 161 20 161 20zM140 342c-1 -16 -1 -51 -1 -51h216s0 35 -1 51
c-2 52 -44 97 -104 97c-69 0 -107 -44 -110 -97zM281 562h-89l116 138h114z" />
    <glyph glyph-name="ecircumflex" unicode="&#xea;" horiz-adv-x="487" 
d="M408 81l10 -67s-59 -24 -170 -24c-119 0 -182 72 -186 162c-1 32 -2 65 -2 98s1 65 2 98c4 89 72 162 186 162c111 0 184 -73 184 -162v-128h-293s0 -41 1 -62c2 -51 40 -97 107 -97c81 0 161 20 161 20zM140 342c-1 -16 -1 -51 -1 -51h216s0 35 -1 51
c-2 52 -44 97 -104 97c-69 0 -107 -44 -110 -97zM175 562h-72l103 138h82l105 -138h-73l-74 75z" />
    <glyph glyph-name="edieresis" unicode="&#xeb;" horiz-adv-x="487" 
d="M408 81l10 -67s-59 -24 -170 -24c-119 0 -182 72 -186 162c-1 32 -2 65 -2 98s1 65 2 98c4 89 72 162 186 162c111 0 184 -73 184 -162v-128h-293s0 -41 1 -62c2 -51 40 -97 107 -97c81 0 161 20 161 20zM140 342c-1 -16 -1 -51 -1 -51h216s0 35 -1 51
c-2 52 -44 97 -104 97c-69 0 -107 -44 -110 -97zM121 590v98h82v-98h-82zM291 590v98h82v-98h-82z" />
    <glyph glyph-name="igrave" unicode="&#xec;" horiz-adv-x="223" 
d="M72 0v500h78v-500h-78zM165 562h-89l-141 138h114z" />
    <glyph glyph-name="iacute" unicode="&#xed;" horiz-adv-x="223" 
d="M72 0v500h78v-500h-78zM136 562h-89l116 138h114z" />
    <glyph glyph-name="icircumflex" unicode="&#xee;" horiz-adv-x="223" 
d="M72 0v500h78v-500h-78zM39 562h-72l103 138h82l105 -138h-73l-74 75z" />
    <glyph glyph-name="idieresis" unicode="&#xef;" horiz-adv-x="223" 
d="M72 0v500h78v-500h-78zM-14 590v98h82v-98h-82zM156 590v98h82v-98h-82z" />
    <glyph glyph-name="ntilde" unicode="&#xf1;" horiz-adv-x="520" 
d="M148 0h-78v500h73l5 -34s71 44 147 44c110 0 160 -73 160 -162v-348h-78v342c0 50 -24 97 -84 97c-68 0 -145 -48 -145 -48v-391zM174 579h-70c0 51 39 105 91 105c47 0 94 -42 125 -42c15 0 23 22 23 36h72c0 -51 -38 -105 -89 -105c-47 0 -95 42 -125 42
c-16 0 -25 -20 -27 -36z" />
    <glyph glyph-name="ograve" unicode="&#xf2;" horiz-adv-x="514" 
d="M452 152c-3 -90 -77 -162 -194 -162c-127 0 -193 72 -196 162c-2 65 -2 131 0 196c3 89 69 162 196 162c117 0 191 -73 194 -162c2 -65 2 -131 0 -196zM374 344c-3 53 -43 95 -117 95c-73 0 -114 -42 -117 -95c-3 -61 -3 -127 0 -188c3 -53 44 -95 118 -95
c73 0 113 42 116 95c3 61 3 127 0 188zM308 562h-89l-141 138h114z" />
    <glyph glyph-name="oacute" unicode="&#xf3;" horiz-adv-x="514" 
d="M452 152c-3 -90 -77 -162 -194 -162c-127 0 -193 72 -196 162c-2 65 -2 131 0 196c3 89 69 162 196 162c117 0 191 -73 194 -162c2 -65 2 -131 0 -196zM374 344c-3 53 -43 95 -117 95c-73 0 -114 -42 -117 -95c-3 -61 -3 -127 0 -188c3 -53 44 -95 118 -95
c73 0 113 42 116 95c3 61 3 127 0 188zM281 562h-89l116 138h114z" />
    <glyph glyph-name="ocircumflex" unicode="&#xf4;" horiz-adv-x="514" 
d="M452 152c-3 -90 -77 -162 -194 -162c-127 0 -193 72 -196 162c-2 65 -2 131 0 196c3 89 69 162 196 162c117 0 191 -73 194 -162c2 -65 2 -131 0 -196zM374 344c-3 53 -43 95 -117 95c-73 0 -114 -42 -117 -95c-3 -61 -3 -127 0 -188c3 -53 44 -95 118 -95
c73 0 113 42 116 95c3 61 3 127 0 188zM184 562h-72l103 138h82l105 -138h-73l-74 75z" />
    <glyph glyph-name="otilde" unicode="&#xf5;" horiz-adv-x="514" 
d="M452 152c-3 -90 -77 -162 -194 -162c-127 0 -193 72 -196 162c-2 65 -2 131 0 196c3 89 69 162 196 162c117 0 191 -73 194 -162c2 -65 2 -131 0 -196zM374 344c-3 53 -43 95 -117 95c-73 0 -114 -42 -117 -95c-3 -61 -3 -127 0 -188c3 -53 44 -95 118 -95
c73 0 113 42 116 95c3 61 3 127 0 188zM171 579h-70c0 51 39 105 91 105c47 0 94 -42 125 -42c15 0 23 22 23 36h72c0 -51 -38 -105 -89 -105c-47 0 -95 42 -125 42c-16 0 -25 -20 -27 -36z" />
    <glyph glyph-name="odieresis" unicode="&#xf6;" horiz-adv-x="514" 
d="M452 152c-3 -90 -77 -162 -194 -162c-127 0 -193 72 -196 162c-2 65 -2 131 0 196c3 89 69 162 196 162c117 0 191 -73 194 -162c2 -65 2 -131 0 -196zM374 344c-3 53 -43 95 -117 95c-73 0 -114 -42 -117 -95c-3 -61 -3 -127 0 -188c3 -53 44 -95 118 -95
c73 0 113 42 116 95c3 61 3 127 0 188zM131 590v98h82v-98h-82zM301 590v98h82v-98h-82z" />
    <glyph glyph-name="ugrave" unicode="&#xf9;" horiz-adv-x="520" 
d="M372 500h78v-500h-73l-5 34s-71 -44 -147 -44c-110 0 -160 73 -160 162v348h78v-342c0 -50 24 -97 84 -97c68 0 145 48 145 48v391zM319 562h-89l-141 138h114z" />
    <glyph glyph-name="uacute" unicode="&#xfa;" horiz-adv-x="520" 
d="M372 500h78v-500h-73l-5 34s-71 -44 -147 -44c-110 0 -160 73 -160 162v348h78v-342c0 -50 24 -97 84 -97c68 0 145 48 145 48v391zM285 562h-89l116 138h114z" />
    <glyph glyph-name="ucircumflex" unicode="&#xfb;" horiz-adv-x="520" 
d="M372 500h78v-500h-73l-5 34s-71 -44 -147 -44c-110 0 -160 73 -160 162v348h78v-342c0 -50 24 -97 84 -97c68 0 145 48 145 48v391zM187 562h-72l103 138h82l105 -138h-73l-74 75z" />
    <glyph glyph-name="udieresis" unicode="&#xfc;" horiz-adv-x="520" 
d="M372 500h78v-500h-73l-5 34s-71 -44 -147 -44c-110 0 -160 73 -160 162v348h78v-342c0 -50 24 -97 84 -97c68 0 145 48 145 48v391zM134 590v98h82v-98h-82zM304 590v98h82v-98h-82z" />
    <glyph glyph-name="yacute" unicode="&#xfd;" horiz-adv-x="486" 
d="M185 20l-170 480h87l135 -397h4l147 397h83l-261 -680h-81l75 193zM276 562h-89l116 138h114z" />
    <glyph glyph-name="ydieresis" unicode="&#xff;" horiz-adv-x="486" 
d="M185 20l-170 480h87l135 -397h4l147 397h83l-261 -680h-81l75 193zM116 590v98h82v-98h-82zM286 590v98h82v-98h-82z" />
    <glyph glyph-name="Thorn" unicode="&#xde;" horiz-adv-x="572" 
d="M80 0v700h84v-90h186c114 0 174 -69 179 -156c3 -48 3 -96 0 -144c-5 -88 -65 -157 -179 -157h-186v-153h-84zM444 307c3 49 3 100 0 149c-3 42 -25 76 -92 76h-188v-301h188c67 0 89 35 92 76z" />
    <glyph glyph-name="thorn" unicode="&#xfe;" horiz-adv-x="517" 
d="M70 -180v881h77v-236s72 45 145 45c110 0 160 -69 163 -158c2 -65 2 -131 0 -196c-3 -90 -60 -164 -184 -164c-58 0 -124 19 -124 19v-191h-77zM377 162c2 61 2 123 0 184c-2 50 -27 93 -87 93c-65 0 -143 -49 -143 -49v-306s44 -21 124 -21c70 0 104 49 106 99z" />
    <glyph glyph-name="Asmall" unicode="&#xf761;" horiz-adv-x="514" 
d="M203 537h108l183 -537h-81l-49 147h-215l-48 -147h-81zM341 218l-85 254l-83 -254h168z" />
    <glyph glyph-name="Bsmall" unicode="&#xf762;" horiz-adv-x="498" 
d="M279 537c115 0 165 -58 165 -135c0 -90 -64 -121 -64 -121s73 -29 73 -125c0 -99 -54 -156 -190 -156h-193v537h209zM289 467h-143v-156h133c54 0 89 29 89 81c0 50 -29 75 -79 75zM146 245v-175h121c87 0 109 25 109 86c0 48 -22 89 -97 89h-133z" />
    <glyph glyph-name="Csmall" unicode="&#xf763;" horiz-adv-x="462" 
d="M422 80l5 -71s-86 -19 -152 -19c-126 0 -210 83 -213 178c-2 66 -2 134 0 201c3 96 89 178 213 178c69 0 148 -18 148 -18l-6 -69s-93 16 -142 16c-83 0 -132 -51 -134 -107c-3 -67 -3 -136 0 -201c2 -58 49 -107 134 -107c48 0 147 19 147 19z" />
    <glyph glyph-name="Dsmall" unicode="&#xf764;" horiz-adv-x="531" 
d="M70 0v537h186c136 0 210 -75 213 -170c2 -66 2 -134 0 -199c-3 -94 -77 -168 -213 -168h-186zM256 467h-110v-397h110c86 0 134 41 135 98c2 65 2 133 0 199c-1 58 -48 100 -135 100z" />
    <glyph glyph-name="Esmall" unicode="&#xf765;" horiz-adv-x="494" 
d="M70 537h365v-70h-289v-154h263v-70h-263v-173h298v-70h-374v537z" />
    <glyph glyph-name="Fsmall" unicode="&#xf766;" horiz-adv-x="465" 
d="M70 537h365v-70h-289v-163h263v-70h-263v-234h-76v537z" />
    <glyph glyph-name="Gsmall" unicode="&#xf767;" horiz-adv-x="524" 
d="M280 208v70h184v-259s-96 -29 -190 -29c-126 0 -209 84 -212 178c-2 68 -2 133 0 201c3 95 88 178 212 178c101 0 179 -20 179 -20l-5 -69s-91 18 -174 18s-130 -51 -133 -107c-3 -64 -3 -139 0 -201c3 -57 48 -108 133 -108c61 0 115 13 115 13v135h-109z" />
    <glyph glyph-name="Hsmall" unicode="&#xf768;" horiz-adv-x="552" 
d="M406 537h76v-537h-76v243h-260v-243h-76v537h76v-224h260v224z" />
    <glyph glyph-name="Ismall" unicode="&#xf769;" horiz-adv-x="218" 
d="M148 537v-537h-78v537h78z" />
    <glyph glyph-name="Jsmall" unicode="&#xf76a;" horiz-adv-x="264" 
d="M15 -1l2 60s32 -1 52 -1c48 0 48 33 48 79v400h77v-422c0 -94 -54 -125 -112 -125c-33 0 -67 9 -67 9z" />
    <glyph glyph-name="Ksmall" unicode="&#xf76b;" horiz-adv-x="485" 
d="M146 537v-253l217 253h94l-223 -256l236 -281h-96l-228 277v-277h-76v537h76z" />
    <glyph glyph-name="Lsmall" unicode="&#xf76c;" horiz-adv-x="424" 
d="M70 537h78v-467h256v-70h-334v537z" />
    <glyph glyph-name="Msmall" unicode="&#xf76d;" horiz-adv-x="641" 
d="M571 537v-537h-77v406l2 27l-16 -29l-121 -189h-77l-118 184l-19 34l2 -27v-406h-77v537h88l163 -258l162 258h88z" />
    <glyph glyph-name="Nsmall" unicode="&#xf76e;" horiz-adv-x="556" 
d="M410 537h76v-537h-87l-241 393l-15 35l3 -43v-385h-76v537h87l242 -395l14 -33l-3 40v388z" />
    <glyph glyph-name="Osmall" unicode="&#xf76f;" horiz-adv-x="551" 
d="M489 369c2 -67 2 -135 0 -201c-3 -97 -88 -178 -213 -178c-127 0 -211 83 -214 178c-2 66 -2 134 0 201c3 96 89 178 214 178c127 0 210 -80 213 -178zM410 173c2 67 2 119 0 187c-2 58 -50 116 -134 116c-86 0 -134 -57 -136 -116c-2 -68 -2 -120 0 -187
c2 -60 47 -112 136 -112c84 0 132 52 134 112z" />
    <glyph glyph-name="Psmall" unicode="&#xf770;" horiz-adv-x="480" 
d="M70 0v537h220c98 0 149 -54 153 -123c2 -37 2 -72 0 -109c-4 -69 -55 -123 -153 -123h-144v-182h-76zM365 307c2 37 2 69 0 106c-2 29 -19 54 -73 54h-146v-215h146c54 0 71 26 73 55z" />
    <glyph glyph-name="Qsmall" unicode="&#xf771;" horiz-adv-x="552" 
d="M489 369c2 -67 2 -135 0 -201c-1 -33 -12 -64 -30 -91l44 -48l-52 -46l-43 44c-35 -23 -80 -37 -132 -37c-127 0 -211 83 -214 178c-2 66 -2 134 0 201c3 96 89 178 214 178c127 0 210 -80 213 -178zM410 173c2 67 2 119 0 187c-2 58 -50 116 -134 116
c-86 0 -134 -57 -136 -116c-2 -68 -2 -120 0 -187c1 -30 11 -47 11 -47s46 45 125 45c69 0 122 -44 122 -44s11 20 12 46zM276 61c49 0 76 18 76 18s-32 30 -77 30c-46 0 -79 -30 -79 -30s30 -18 80 -18z" />
    <glyph glyph-name="Rsmall" unicode="&#xf772;" horiz-adv-x="506" 
d="M374 0l-109 189h-119v-189h-76v537h223c97 0 147 -55 151 -123c2 -36 2 -63 0 -99c-3 -56 -39 -105 -96 -119l118 -196h-92zM365 312c2 36 2 66 0 102c-2 29 -19 53 -72 53h-147v-208h147c53 0 70 24 72 53z" />
    <glyph glyph-name="Ssmall" unicode="&#xf773;" horiz-adv-x="495" 
d="M412 529l-4 -69s-92 16 -159 16c-69 0 -121 -17 -121 -75c0 -135 322 -49 322 -251c0 -104 -64 -160 -217 -160c-90 0 -175 20 -175 20l3 72s83 -21 162 -21c107 0 147 21 147 81c0 139 -320 43 -320 256c0 103 84 149 196 149c101 0 166 -18 166 -18z" />
    <glyph glyph-name="Tsmall" unicode="&#xf774;" horiz-adv-x="418" 
d="M15 467v70h388v-70h-155v-467h-78v467h-155z" />
    <glyph glyph-name="Usmall" unicode="&#xf775;" horiz-adv-x="557" 
d="M65 537h78v-364c0 -60 47 -112 136 -112c84 0 134 52 134 112v364h79v-369c0 -97 -88 -178 -213 -178c-127 0 -214 83 -214 178v369z" />
    <glyph glyph-name="Vsmall" unicode="&#xf776;" horiz-adv-x="490" 
d="M96 537l147 -474h4l147 474h81l-174 -537h-112l-174 537h81z" />
    <glyph glyph-name="Wsmall" unicode="&#xf777;" horiz-adv-x="726" 
d="M538 141l79 396h79l-114 -537h-107l-98 377l-12 80h-4l-12 -80l-98 -377h-107l-114 537h79l79 -397l10 -72h4l11 71l99 398h102l99 -398l11 -71h4z" />
    <glyph glyph-name="Xsmall" unicode="&#xf778;" horiz-adv-x="516" 
d="M121 537l137 -203l137 203h89l-183 -262l195 -275h-89l-149 215l-149 -215h-89l195 275l-183 262h89z" />
    <glyph glyph-name="Ysmall" unicode="&#xf779;" horiz-adv-x="485" 
d="M103 537l140 -249l138 249h89l-189 -325v-212h-77v212l-189 325h88z" />
    <glyph glyph-name="Zsmall" unicode="&#xf77a;" horiz-adv-x="486" 
d="M437 467l-306 -396h315v-71h-406v70l306 396h-300v71h391v-70z" />
    <glyph glyph-name="cyrbreve" unicode="&#xf6d4;" horiz-adv-x="279" 
d="M0 700h74c0 -37 16 -69 66 -69c51 0 65 32 65 69h74c0 -76 -50 -127 -139 -127c-91 0 -140 51 -140 127z" />
    <glyph glyph-name="commaaccent" unicode="&#xf6c3;" horiz-adv-x="85" 
d="M0 -133v88h85v-80c0 -104 -60 -117 -95 -117v35c31 0 45 25 45 58c0 8 -1 16 -1 16h-34z" />
    <glyph glyph-name="dblgrave" unicode="&#xf6d3;" horiz-adv-x="424" 
d="M230 562h-89l-141 138h114zM424 562h-89l-141 138h114z" />
    <glyph glyph-name="Abreve" unicode="&#x102;" horiz-adv-x="607" 
d="M240 700h125l222 -700h-89l-62 203h-266l-62 -203h-88zM413 278l-107 346h-7l-107 -346h221zM164 900h74c0 -29 21 -58 66 -58c46 0 65 29 65 58h74c0 -71 -55 -127 -139 -127c-86 0 -140 56 -140 127z" />
    <glyph glyph-name="Amacron" unicode="&#x100;" horiz-adv-x="607" 
d="M240 700h125l222 -700h-89l-62 203h-266l-62 -203h-88zM413 278l-107 346h-7l-107 -346h221zM152 794v71h302v-71h-302z" />
    <glyph glyph-name="Aogonek" unicode="&#x104;" horiz-adv-x="607" 
d="M240 700h125l222 -700s-86 -49 -86 -99c0 -15 15 -26 31 -26c23 0 47 6 47 6l8 -57s-38 -13 -71 -13c-56 0 -86 41 -86 82c0 64 68 107 68 107l-62 203h-266l-62 -203h-88zM413 278l-107 346h-7l-107 -346h221z" />
    <glyph glyph-name="AEacute" unicode="&#x1fc;" horiz-adv-x="954" 
d="M398 700h496v-78h-333v-220h302v-77h-302v-246h343v-79h-428v203h-271l-115 -203h-90zM476 278v344h-32l-195 -344h227zM574 762h-89l116 138h114z" />
    <glyph glyph-name="Cacute" unicode="&#x106;" horiz-adv-x="547" 
d="M499 88l3 -74s-99 -24 -180 -24c-154 0 -252 103 -255 228c-2 88 -2 176 0 264c3 125 103 228 255 228c84 0 175 -23 175 -23l-3 -74s-111 19 -172 19c-106 0 -167 -71 -169 -150c-2 -88 -2 -176 0 -264c2 -79 61 -150 169 -150c59 0 177 20 177 20zM368 762h-89l116 138
h114z" />
    <glyph glyph-name="Ccaron" unicode="&#x10c;" horiz-adv-x="547" 
d="M499 88l3 -74s-99 -24 -180 -24c-154 0 -252 103 -255 228c-2 88 -2 176 0 264c3 125 103 228 255 228c84 0 175 -23 175 -23l-3 -74s-111 19 -172 19c-106 0 -167 -71 -169 -150c-2 -88 -2 -176 0 -264c2 -79 61 -150 169 -150c59 0 177 20 177 20zM187 900h72l71 -75
l74 75h73l-105 -138h-82z" />
    <glyph glyph-name="Ccircumflex" unicode="&#x108;" horiz-adv-x="547" 
d="M499 88l3 -74s-99 -24 -180 -24c-154 0 -252 103 -255 228c-2 88 -2 176 0 264c3 125 103 228 255 228c84 0 175 -23 175 -23l-3 -74s-111 19 -172 19c-106 0 -167 -71 -169 -150c-2 -88 -2 -176 0 -264c2 -79 61 -150 169 -150c59 0 177 20 177 20zM250 762h-72l103 138
h82l105 -138h-73l-74 75z" />
    <glyph glyph-name="Cdotaccent" unicode="&#x10a;" horiz-adv-x="547" 
d="M499 88l3 -74s-99 -24 -180 -24c-154 0 -252 103 -255 228c-2 88 -2 176 0 264c3 125 103 228 255 228c84 0 175 -23 175 -23l-3 -74s-111 19 -172 19c-106 0 -167 -71 -169 -150c-2 -88 -2 -176 0 -264c2 -79 61 -150 169 -150c59 0 177 20 177 20zM280 790v98h82v-98
h-82z" />
    <glyph glyph-name="Dcaron" unicode="&#x10e;" horiz-adv-x="622" 
d="M75 0v700h225c152 0 252 -93 255 -218c2 -88 2 -176 0 -264c-3 -125 -101 -218 -255 -218h-225zM300 622h-141v-544h141c108 0 167 61 169 140c2 88 2 176 0 264c-2 79 -63 140 -169 140zM147 900h72l71 -75l74 75h73l-105 -138h-82z" />
    <glyph glyph-name="Dcroat" unicode="&#x110;" horiz-adv-x="628" 
d="M81 0v325h-61v78h61v297h225c152 0 252 -93 255 -218c2 -88 2 -176 0 -264c-3 -125 -101 -218 -255 -218h-225zM311 403v-78h-146v-247h141c108 0 167 61 169 140c2 88 2 176 0 264c-2 79 -63 140 -169 140h-141v-219h146z" />
    <glyph glyph-name="Ebreve" unicode="&#x114;" horiz-adv-x="578" 
d="M80 700h438v-78h-354v-220h323v-77h-323v-246h364v-79h-448v700zM149 900h74c0 -29 21 -58 66 -58c46 0 65 29 65 58h74c0 -71 -55 -127 -139 -127c-86 0 -140 56 -140 127z" />
    <glyph glyph-name="Ecaron" unicode="&#x11a;" horiz-adv-x="578" 
d="M80 700h438v-78h-354v-220h323v-77h-323v-246h364v-79h-448v700zM144 900h72l71 -75l74 75h73l-105 -138h-82z" />
    <glyph glyph-name="Edotaccent" unicode="&#x116;" horiz-adv-x="578" 
d="M80 700h438v-78h-354v-220h323v-77h-323v-246h364v-79h-448v700zM248 790v98h82v-98h-82z" />
    <glyph glyph-name="Emacron" unicode="&#x112;" horiz-adv-x="578" 
d="M80 700h438v-78h-354v-220h323v-77h-323v-246h364v-79h-448v700zM138 794v71h302v-71h-302z" />
    <glyph glyph-name="Eogonek" unicode="&#x118;" horiz-adv-x="578" 
d="M80 700h438v-78h-354v-220h323v-77h-323v-246h364v-79s-85 -49 -85 -99c0 -15 15 -26 31 -26c23 0 47 6 47 6l8 -57s-38 -13 -71 -13c-56 0 -86 41 -86 82c0 61 77 107 77 107h-369v700z" />
    <glyph glyph-name="Gbreve" unicode="&#x11e;" horiz-adv-x="621" 
d="M335 283v77h216v-333s-113 -37 -229 -37c-154 0 -252 103 -255 228c-2 88 -2 176 0 264c3 125 103 228 255 228c124 0 216 -25 216 -25l-4 -74s-107 21 -212 21c-106 0 -167 -71 -169 -150c-2 -88 -2 -176 0 -264c2 -79 61 -151 169 -151c81 0 145 14 145 14v202h-132z
M184 900h74c0 -29 21 -58 66 -58c46 0 65 29 65 58h74c0 -71 -55 -127 -139 -127c-86 0 -140 56 -140 127z" />
    <glyph glyph-name="Gcircumflex" unicode="&#x11c;" horiz-adv-x="621" 
d="M335 283v77h216v-333s-113 -37 -229 -37c-154 0 -252 103 -255 228c-2 88 -2 176 0 264c3 125 103 228 255 228c124 0 216 -25 216 -25l-4 -74s-107 21 -212 21c-106 0 -167 -71 -169 -150c-2 -88 -2 -176 0 -264c2 -79 61 -151 169 -151c81 0 145 14 145 14v202h-132z
M254 762h-72l103 138h82l105 -138h-73l-74 75z" />
    <glyph glyph-name="Gcommaaccent" unicode="&#x122;" horiz-adv-x="621" 
d="M335 283v77h216v-333s-113 -37 -229 -37c-154 0 -252 103 -255 228c-2 88 -2 176 0 264c3 125 103 228 255 228c124 0 216 -25 216 -25l-4 -74s-107 21 -212 21c-106 0 -167 -71 -169 -150c-2 -88 -2 -176 0 -264c2 -79 61 -151 169 -151c81 0 145 14 145 14v202h-132z
M290 -133v88h85v-80c0 -104 -60 -117 -95 -117v35c31 0 45 25 45 58c0 8 -1 16 -1 16h-34z" />
    <glyph glyph-name="Gdotaccent" unicode="&#x120;" horiz-adv-x="621" 
d="M335 283v77h216v-333s-113 -37 -229 -37c-154 0 -252 103 -255 228c-2 88 -2 176 0 264c3 125 103 228 255 228c124 0 216 -25 216 -25l-4 -74s-107 21 -212 21c-106 0 -167 -71 -169 -150c-2 -88 -2 -176 0 -264c2 -79 61 -151 169 -151c81 0 145 14 145 14v202h-132z
M279 790v98h82v-98h-82z" />
    <glyph glyph-name="Hcircumflex" unicode="&#x124;" horiz-adv-x="656" 
d="M492 700h84v-700h-84v325h-328v-325h-84v700h84v-298h328v298zM255 762h-72l103 138h82l105 -138h-73l-74 75z" />
    <glyph glyph-name="Hbar" unicode="&#x126;" horiz-adv-x="656" 
d="M492 700h84v-120h50v-71h-50v-509h-84v325h-328v-325h-84v509h-50v71h50v120h84v-120h328v120zM164 402h328v107h-328v-107z" />
    <glyph glyph-name="Ibreve" unicode="&#x12c;" horiz-adv-x="244" 
d="M164 700v-700h-84v700h84zM-17 900h74c0 -29 21 -58 66 -58c46 0 65 29 65 58h74c0 -71 -55 -127 -139 -127c-86 0 -140 56 -140 127z" />
    <glyph glyph-name="Idotaccent" unicode="&#x130;" horiz-adv-x="244" 
d="M164 700v-700h-84v700h84zM81 790v98h82v-98h-82z" />
    <glyph glyph-name="Imacron" unicode="&#x12a;" horiz-adv-x="244" 
d="M164 700v-700h-84v700h84zM-29 794v71h302v-71h-302z" />
    <glyph glyph-name="Iogonek" unicode="&#x12e;" horiz-adv-x="244" 
d="M164 700v-700s-85 -49 -85 -99c0 -15 15 -26 31 -26c23 0 47 6 47 6l8 -57s-38 -13 -71 -13c-56 0 -86 41 -86 82c0 61 72 107 72 107v700h84z" />
    <glyph glyph-name="Itilde" unicode="&#x128;" horiz-adv-x="244" 
d="M164 700v-700h-84v700h84zM37 779h-70c0 51 39 105 91 105c47 0 94 -42 125 -42c15 0 23 22 23 36h72c0 -51 -38 -105 -89 -105c-47 0 -95 42 -125 42c-16 0 -25 -20 -27 -36z" />
    <glyph glyph-name="IJ" unicode="&#x132;" horiz-adv-x="514" 
d="M164 700v-700h-84v700h84zM229 0l2 68s37 -2 59 -2c64 0 65 49 65 113v521h84v-549c0 -122 -62 -161 -132 -161c-39 0 -78 10 -78 10z" />
    <glyph glyph-name="Jcircumflex" unicode="&#x134;" horiz-adv-x="305" 
d="M20 0l2 68s37 -2 59 -2c64 0 65 49 65 113v521h84v-549c0 -122 -62 -161 -132 -161c-39 0 -78 10 -78 10zM108 762h-72l103 138h82l105 -138h-73l-74 75z" />
    <glyph glyph-name="Kcommaaccent" unicode="&#x136;" horiz-adv-x="569" 
d="M531 700l-270 -333l288 -367h-103l-282 366l266 334h101zM164 700v-700h-84v700h84zM237 -133v88h85v-80c0 -104 -60 -117 -95 -117v35c31 0 45 25 45 58c0 8 -1 16 -1 16h-34z" />
    <glyph glyph-name="Lacute" unicode="&#x139;" horiz-adv-x="500" 
d="M80 700h85v-621h315v-79h-400v700zM176 762h-89l116 138h114z" />
    <glyph glyph-name="Lcaron" unicode="&#x13d;" horiz-adv-x="500" 
d="M80 700h85v-621h315v-79h-400v700zM337 602v98h85v-90c0 -104 -60 -125 -95 -125v38c31 0 45 30 45 63c0 8 -1 16 -1 16h-34z" />
    <glyph glyph-name="Lcommaaccent" unicode="&#x13b;" horiz-adv-x="500" 
d="M80 700h85v-621h315v-79h-400v700zM232 -133v88h85v-80c0 -104 -60 -117 -95 -117v35c31 0 45 25 45 58c0 8 -1 16 -1 16h-34z" />
    <glyph glyph-name="Ldot" unicode="&#x13f;" horiz-adv-x="500" 
d="M80 700h85v-621h315v-79h-400v700zM340 301v98h82v-98h-82z" />
    <glyph glyph-name="Nacute" unicode="&#x143;" horiz-adv-x="656" 
d="M493 700h83v-700h-99l-290 519l-28 65l4 -68v-516h-83v700h99l291 -520l27 -64l-4 67v517zM371 762h-89l116 138h114z" />
    <glyph glyph-name="Ncaron" unicode="&#x147;" horiz-adv-x="656" 
d="M493 700h83v-700h-99l-290 519l-28 65l4 -68v-516h-83v700h99l291 -520l27 -64l-4 67v517zM193 900h72l71 -75l74 75h73l-105 -138h-82z" />
    <glyph glyph-name="Ncommaaccent" unicode="&#x145;" horiz-adv-x="656" 
d="M493 700h83v-700h-99l-290 519l-28 65l4 -68v-516h-83v700h99l291 -520l27 -64l-4 67v517zM280 -133v88h85v-80c0 -104 -60 -117 -95 -117v35c31 0 45 25 45 58c0 8 -1 16 -1 16h-34z" />
    <glyph glyph-name="Obreve" unicode="&#x14e;" horiz-adv-x="643" 
d="M576 482c2 -88 2 -176 0 -264c-3 -125 -103 -228 -254 -228c-154 0 -252 103 -255 228c-2 88 -2 176 0 264c3 125 103 228 255 228c153 0 251 -103 254 -228zM490 217c2 89 2 177 0 266c-2 80 -60 152 -168 152c-107 0 -169 -72 -171 -152c-2 -89 -2 -177 0 -266
c2 -80 62 -152 171 -152c106 0 166 72 168 152zM182 900h74c0 -29 21 -58 66 -58c46 0 65 29 65 58h74c0 -71 -55 -127 -139 -127c-86 0 -140 56 -140 127z" />
    <glyph glyph-name="Ohungarumlaut" unicode="&#x150;" horiz-adv-x="643" 
d="M576 482c2 -88 2 -176 0 -264c-3 -125 -103 -228 -254 -228c-154 0 -252 103 -255 228c-2 88 -2 176 0 264c3 125 103 228 255 228c153 0 251 -103 254 -228zM490 217c2 89 2 177 0 266c-2 80 -60 152 -168 152c-107 0 -169 -72 -171 -152c-2 -89 -2 -177 0 -266
c2 -80 62 -152 171 -152c106 0 166 72 168 152zM266 762h-89l116 138h114zM460 762h-89l116 138h114z" />
    <glyph glyph-name="Omacron" unicode="&#x14c;" horiz-adv-x="643" 
d="M576 482c2 -88 2 -176 0 -264c-3 -125 -103 -228 -254 -228c-154 0 -252 103 -255 228c-2 88 -2 176 0 264c3 125 103 228 255 228c153 0 251 -103 254 -228zM490 217c2 89 2 177 0 266c-2 80 -60 152 -168 152c-107 0 -169 -72 -171 -152c-2 -89 -2 -177 0 -266
c2 -80 62 -152 171 -152c106 0 166 72 168 152zM170 794v71h302v-71h-302z" />
    <glyph glyph-name="Oslashacute" unicode="&#x1fe;" horiz-adv-x="643" 
d="M67 0l49 80c-31 39 -48 86 -49 138c-2 88 -2 176 0 264c3 125 103 228 255 228c60 0 111 -16 152 -43l20 33h81l-49 -80c31 -39 49 -87 50 -138c2 -88 2 -176 0 -264c-3 -125 -103 -228 -254 -228c-61 0 -114 16 -155 43l-20 -33h-80zM151 217c0 -21 4 -40 12 -59
l270 442c-28 21 -65 35 -111 35c-107 0 -169 -72 -171 -152c-2 -89 -2 -177 0 -266zM490 217c2 89 2 177 0 266c-1 20 -5 40 -12 58l-270 -441c28 -22 66 -35 114 -35c106 0 166 72 168 152zM357 762h-89l116 138h114z" />
    <glyph glyph-name="Racute" unicode="&#x154;" horiz-adv-x="604" 
d="M461 0l-137 255h-160v-255h-84v700h270c114 0 174 -69 179 -156c3 -48 3 -84 0 -132c-4 -72 -44 -131 -120 -150l145 -262h-93zM444 409c3 49 3 88 0 137c-3 42 -25 76 -92 76h-188v-289h188c67 0 89 35 92 76zM315 762h-89l116 138h114z" />
    <glyph glyph-name="Rcaron" unicode="&#x158;" horiz-adv-x="604" 
d="M461 0l-137 255h-160v-255h-84v700h270c114 0 174 -69 179 -156c3 -48 3 -84 0 -132c-4 -72 -44 -131 -120 -150l145 -262h-93zM444 409c3 49 3 88 0 137c-3 42 -25 76 -92 76h-188v-289h188c67 0 89 35 92 76zM157 900h72l71 -75l74 75h73l-105 -138h-82z" />
    <glyph glyph-name="Rcommaaccent" unicode="&#x156;" horiz-adv-x="604" 
d="M461 0l-137 255h-160v-255h-84v700h270c114 0 174 -69 179 -156c3 -48 3 -84 0 -132c-4 -72 -44 -131 -120 -150l145 -262h-93zM444 409c3 49 3 88 0 137c-3 42 -25 76 -92 76h-188v-289h188c67 0 89 35 92 76zM247 -133v88h85v-80c0 -104 -60 -117 -95 -117v35
c31 0 45 25 45 58c0 8 -1 16 -1 16h-34z" />
    <glyph glyph-name="Sacute" unicode="&#x15a;" horiz-adv-x="578" 
d="M486 687l-4 -74s-108 19 -192 19c-85 0 -149 -29 -149 -109c0 -188 392 -65 392 -334c0 -127 -76 -199 -258 -199c-110 0 -208 25 -208 25l4 75s101 -22 197 -22c133 0 179 33 179 113c0 197 -392 71 -392 339c0 133 101 190 235 190c122 0 196 -23 196 -23zM332 762h-89
l116 138h114z" />
    <glyph glyph-name="Scedilla" unicode="&#x15e;" horiz-adv-x="578" 
d="M486 687l-4 -74s-108 19 -192 19c-85 0 -149 -29 -149 -109c0 -188 392 -65 392 -334c0 -119 -67 -189 -224 -198l-6 -31c42 0 76 -12 76 -69s-34 -81 -85 -81c-39 0 -77 6 -77 6l3 43s35 -4 59 -4c25 0 40 11 40 36c0 22 -15 30 -40 30h-40l15 69
c-101 3 -187 25 -187 25l4 75s101 -22 197 -22c133 0 179 33 179 113c0 197 -392 71 -392 339c0 133 101 190 235 190c122 0 196 -23 196 -23z" />
    <glyph glyph-name="Scircumflex" unicode="&#x15c;" horiz-adv-x="578" 
d="M486 687l-4 -74s-108 19 -192 19c-85 0 -149 -29 -149 -109c0 -188 392 -65 392 -334c0 -127 -76 -199 -258 -199c-110 0 -208 25 -208 25l4 75s101 -22 197 -22c133 0 179 33 179 113c0 197 -392 71 -392 339c0 133 101 190 235 190c122 0 196 -23 196 -23zM216 762h-72
l103 138h82l105 -138h-73l-74 75z" />
    <glyph glyph-name="Scommaaccent" unicode="&#x218;" horiz-adv-x="578" 
d="M245 -133v88h85v-80c0 -104 -60 -117 -95 -117v35c31 0 45 25 45 58c0 8 -1 16 -1 16h-34zM486 687l-4 -74s-108 19 -192 19c-85 0 -149 -29 -149 -109c0 -188 392 -65 392 -334c0 -127 -76 -199 -258 -199c-110 0 -208 25 -208 25l4 75s101 -22 197 -22
c133 0 179 33 179 113c0 197 -392 71 -392 339c0 133 101 190 235 190c122 0 196 -23 196 -23z" />
    <glyph glyph-name="Tbar" unicode="&#x166;" horiz-adv-x="505" 
d="M20 622v78h465v-78h-191v-188h124v-71h-124v-363h-84v363h-124v71h124v188h-190z" />
    <glyph glyph-name="Tcaron" unicode="&#x164;" horiz-adv-x="505" 
d="M20 622v78h465v-78h-191v-622h-84v622h-190zM107 900h72l71 -75l74 75h73l-105 -138h-82z" />
    <glyph glyph-name="Tcommaaccent" unicode="&#x162;" horiz-adv-x="505" 
d="M20 622v78h465v-78h-191v-622h-84v622h-190zM210 -133v88h85v-80c0 -104 -60 -117 -95 -117v35c31 0 45 25 45 58c0 8 -1 16 -1 16h-34z" />
    <glyph glyph-name="Ubreve" unicode="&#x16c;" horiz-adv-x="659" 
d="M500 700h84v-482c0 -125 -103 -228 -254 -228c-154 0 -255 103 -255 228v482h84v-482c0 -79 63 -150 171 -150c105 0 170 71 170 150v482zM190 900h74c0 -29 21 -58 66 -58c46 0 65 29 65 58h74c0 -71 -55 -127 -139 -127c-86 0 -140 56 -140 127z" />
    <glyph glyph-name="Uhungarumlaut" unicode="&#x170;" horiz-adv-x="659" 
d="M500 700h84v-482c0 -125 -103 -228 -254 -228c-154 0 -255 103 -255 228v482h84v-482c0 -79 63 -150 171 -150c105 0 170 71 170 150v482zM276 762h-89l116 138h114zM470 762h-89l116 138h114z" />
    <glyph glyph-name="Umacron" unicode="&#x16a;" horiz-adv-x="659" 
d="M500 700h84v-482c0 -125 -103 -228 -254 -228c-154 0 -255 103 -255 228v482h84v-482c0 -79 63 -150 171 -150c105 0 170 71 170 150v482zM178 794v71h302v-71h-302z" />
    <glyph glyph-name="Uogonek" unicode="&#x172;" horiz-adv-x="659" 
d="M500 700h84v-482c0 -102 -69 -190 -176 -218c0 0 -85 -49 -85 -99c0 -15 15 -26 31 -26c23 0 47 6 47 6l8 -57s-38 -13 -71 -13c-56 0 -86 41 -86 82c0 45 41 81 63 98c-146 6 -240 106 -240 227v482h84v-482c0 -79 63 -150 171 -150c105 0 170 71 170 150v482z" />
    <glyph glyph-name="Uring" unicode="&#x16e;" horiz-adv-x="659" 
d="M500 700h84v-482c0 -125 -103 -228 -254 -228c-154 0 -255 103 -255 228v482h84v-482c0 -79 63 -150 171 -150c105 0 170 71 170 150v482zM242 830c0 49 37 85 86 85c48 0 88 -36 88 -85c0 -48 -40 -84 -88 -84c-49 0 -86 36 -86 84zM293 831c0 -20 14 -35 35 -35
s36 15 36 35c0 21 -15 36 -36 36s-35 -15 -35 -36z" />
    <glyph glyph-name="Utilde" unicode="&#x168;" horiz-adv-x="659" 
d="M500 700h84v-482c0 -125 -103 -228 -254 -228c-154 0 -255 103 -255 228v482h84v-482c0 -79 63 -150 171 -150c105 0 170 71 170 150v482zM244 779h-70c0 51 39 105 91 105c47 0 94 -42 125 -42c15 0 23 22 23 36h72c0 -51 -38 -105 -89 -105c-47 0 -95 42 -125 42
c-16 0 -25 -20 -27 -36z" />
    <glyph glyph-name="Wacute" unicode="&#x1e82;" horiz-adv-x="885" 
d="M654 142l104 558h87l-137 -700h-125l-122 510l-16 110h-5l-15 -110l-123 -510h-125l-137 700h87l104 -558l8 -66h4l12 70l129 554h117l129 -554l12 -70h4zM478 762h-89l116 138h114z" />
    <glyph glyph-name="Wcircumflex" unicode="&#x174;" horiz-adv-x="885" 
d="M654 142l104 558h87l-137 -700h-125l-122 510l-16 110h-5l-15 -110l-123 -510h-125l-137 700h87l104 -558l8 -66h4l12 70l129 554h117l129 -554l12 -70h4zM369 762h-72l103 138h82l105 -138h-73l-74 75z" />
    <glyph glyph-name="Wdieresis" unicode="&#x1e84;" horiz-adv-x="885" 
d="M654 142l104 558h87l-137 -700h-125l-122 510l-16 110h-5l-15 -110l-123 -510h-125l-137 700h87l104 -558l8 -66h4l12 70l129 554h117l129 -554l12 -70h4zM316 790v98h82v-98h-82zM486 790v98h82v-98h-82z" />
    <glyph glyph-name="Wgrave" unicode="&#x1e80;" horiz-adv-x="885" 
d="M654 142l104 558h87l-137 -700h-125l-122 510l-16 110h-5l-15 -110l-123 -510h-125l-137 700h87l104 -558l8 -66h4l12 70l129 554h117l129 -554l12 -70h4zM478 762h-89l-141 138h114z" />
    <glyph glyph-name="Ycircumflex" unicode="&#x176;" horiz-adv-x="584" 
d="M111 700l181 -332l180 332h97l-235 -416v-284h-84v284l-235 416h96zM219 762h-72l103 138h82l105 -138h-73l-74 75z" />
    <glyph glyph-name="Ygrave" unicode="&#x1ef2;" horiz-adv-x="584" 
d="M111 700l181 -332l180 332h97l-235 -416v-284h-84v284l-235 416h96zM361 762h-89l-141 138h114z" />
    <glyph glyph-name="Zacute" unicode="&#x179;" horiz-adv-x="587" 
d="M533 616l-385 -534v-4h389v-78h-487v84l383 534v4h-375v78h475v-84zM324 762h-89l116 138h114z" />
    <glyph glyph-name="Zdotaccent" unicode="&#x17b;" horiz-adv-x="587" 
d="M533 616l-385 -534v-4h389v-78h-487v84l383 534v4h-375v78h475v-84zM252 790v98h82v-98h-82z" />
    <glyph glyph-name="abreve" unicode="&#x103;" horiz-adv-x="495" 
d="M359 0l-5 44s-79 -54 -154 -54c-95 0 -150 65 -150 156c0 87 47 162 150 162h153v34c0 50 -36 97 -99 97c-74 0 -171 -18 -171 -18l-7 68s94 21 177 21c117 0 177 -73 177 -162v-348h-71zM203 62c73 0 150 68 150 68v107h-149c-58 0 -76 -42 -76 -90c0 -47 19 -85 75 -85
zM108 700h74c0 -29 21 -58 66 -58c46 0 65 29 65 58h74c0 -71 -55 -127 -139 -127c-86 0 -140 56 -140 127z" />
    <glyph glyph-name="amacron" unicode="&#x101;" horiz-adv-x="495" 
d="M359 0l-5 44s-79 -54 -154 -54c-95 0 -150 65 -150 156c0 87 47 162 150 162h153v34c0 50 -36 97 -99 97c-74 0 -171 -18 -171 -18l-7 68s94 21 177 21c117 0 177 -73 177 -162v-348h-71zM203 62c73 0 150 68 150 68v107h-149c-58 0 -76 -42 -76 -90c0 -47 19 -85 75 -85
zM96 594v71h302v-71h-302z" />
    <glyph glyph-name="aogonek" unicode="&#x105;" horiz-adv-x="495" 
d="M423 -119l8 -57s-38 -13 -71 -13c-56 0 -86 41 -86 82c0 61 85 107 85 107l-5 44s-79 -54 -154 -54c-95 0 -150 65 -150 156c0 87 47 162 150 162h153v34c0 50 -36 97 -99 97c-74 0 -171 -18 -171 -18l-7 68s94 21 177 21c117 0 177 -73 177 -162v-348s-85 -49 -85 -99
c0 -15 15 -26 31 -26c23 0 47 6 47 6zM203 62c73 0 150 68 150 68v107h-149c-58 0 -76 -42 -76 -90c0 -47 19 -85 75 -85z" />
    <glyph glyph-name="aeacute" unicode="&#x1fd;" horiz-adv-x="779" 
d="M700 81l10 -67s-59 -24 -170 -24c-75 0 -128 28 -158 71c-29 -19 -107 -71 -182 -71c-95 0 -150 65 -150 156c0 87 47 150 150 150h153s0 20 -1 46c-2 50 -35 97 -98 97c-74 0 -171 -18 -171 -18l-7 68s94 21 177 21c65 0 112 -23 142 -59c32 36 81 59 145 59
c111 0 184 -73 184 -162v-123h-293s0 -46 1 -67c2 -51 40 -97 107 -97c81 0 161 20 161 20zM203 62c73 0 153 71 153 71c-4 33 -4 92 -4 92h-148c-58 0 -76 -30 -76 -78c0 -47 19 -85 75 -85zM432 342c-1 -16 -1 -46 -1 -46h216s0 30 -1 46c-3 52 -44 97 -104 97
c-69 0 -107 -44 -110 -97zM429 562h-89l116 138h114z" />
    <glyph glyph-name="cacute" unicode="&#x107;" horiz-adv-x="420" 
d="M380 77l10 -70s-64 -17 -144 -17c-119 0 -181 72 -184 162c-2 65 -2 131 0 196c3 89 66 162 185 162c74 0 135 -12 135 -12l-7 -71s-68 12 -129 12c-65 0 -104 -45 -106 -95c-2 -61 -2 -127 0 -188c2 -50 40 -95 106 -95c80 0 134 16 134 16zM282 562h-89l116 138h114z
" />
    <glyph glyph-name="ccaron" unicode="&#x10d;" horiz-adv-x="420" 
d="M380 77l10 -70s-64 -17 -144 -17c-119 0 -181 72 -184 162c-2 65 -2 131 0 196c3 89 66 162 185 162c74 0 135 -12 135 -12l-7 -71s-68 12 -129 12c-65 0 -104 -45 -106 -95c-2 -61 -2 -127 0 -188c2 -50 40 -95 106 -95c80 0 134 16 134 16zM107 700h72l71 -75l74 75h73
l-105 -138h-82z" />
    <glyph glyph-name="ccircumflex" unicode="&#x109;" horiz-adv-x="420" 
d="M380 77l10 -70s-64 -17 -144 -17c-119 0 -181 72 -184 162c-2 65 -2 131 0 196c3 89 66 162 185 162c74 0 135 -12 135 -12l-7 -71s-68 12 -129 12c-65 0 -104 -45 -106 -95c-2 -61 -2 -127 0 -188c2 -50 40 -95 106 -95c80 0 134 16 134 16zM181 562h-72l103 138h82
l105 -138h-73l-74 75z" />
    <glyph glyph-name="cdotaccent" unicode="&#x10b;" horiz-adv-x="420" 
d="M380 77l10 -70s-64 -17 -144 -17c-119 0 -181 72 -184 162c-2 65 -2 131 0 196c3 89 66 162 185 162c74 0 135 -12 135 -12l-7 -71s-68 12 -129 12c-65 0 -104 -45 -106 -95c-2 -61 -2 -127 0 -188c2 -50 40 -95 106 -95c80 0 134 16 134 16zM213 590v98h82v-98h-82z" />
    <glyph glyph-name="dcaron" unicode="&#x10f;" horiz-adv-x="604" 
d="M447 700v-700h-72l-5 35s-72 -45 -145 -45c-110 0 -160 70 -163 159c-2 65 -2 131 0 196c3 90 60 164 184 164c58 0 124 -20 124 -20v211h77zM140 339c-2 -61 -2 -123 0 -184c2 -50 27 -94 87 -94c65 0 143 49 143 49v306s-44 22 -124 22c-70 0 -104 -49 -106 -99z
M519 602v98h85v-90c0 -104 -60 -125 -95 -125v38c31 0 45 30 45 63c0 8 -1 16 -1 16h-34z" />
    <glyph glyph-name="dcroat" unicode="&#x111;" horiz-adv-x="517" 
d="M447 700v-57h52v-67h-52v-576h-72l-5 35s-72 -45 -145 -45c-110 0 -160 70 -163 159c-2 65 -2 131 0 196c3 90 60 164 184 164c58 0 124 -20 124 -20v87h-115v67h115v57h77zM140 339c-2 -61 -2 -123 0 -184c2 -50 27 -94 87 -94c65 0 143 49 143 49v306s-44 22 -124 22
c-70 0 -104 -49 -106 -99z" />
    <glyph glyph-name="ebreve" unicode="&#x115;" horiz-adv-x="487" 
d="M408 81l10 -67s-59 -24 -170 -24c-119 0 -182 72 -186 162c-1 32 -2 65 -2 98s1 65 2 98c4 89 72 162 186 162c111 0 184 -73 184 -162v-128h-293s0 -41 1 -62c2 -51 40 -97 107 -97c81 0 161 20 161 20zM140 342c-1 -16 -1 -51 -1 -51h216s0 35 -1 51
c-2 52 -44 97 -104 97c-69 0 -107 -44 -110 -97zM110 700h74c0 -29 21 -58 66 -58c46 0 65 29 65 58h74c0 -71 -55 -127 -139 -127c-86 0 -140 56 -140 127z" />
    <glyph glyph-name="ecaron" unicode="&#x11b;" horiz-adv-x="487" 
d="M408 81l10 -67s-59 -24 -170 -24c-119 0 -182 72 -186 162c-1 32 -2 65 -2 98s1 65 2 98c4 89 72 162 186 162c111 0 184 -73 184 -162v-128h-293s0 -41 1 -62c2 -51 40 -97 107 -97c81 0 161 20 161 20zM140 342c-1 -16 -1 -51 -1 -51h216s0 35 -1 51
c-2 52 -44 97 -104 97c-69 0 -107 -44 -110 -97zM105 700h72l71 -75l74 75h73l-105 -138h-82z" />
    <glyph glyph-name="edotaccent" unicode="&#x117;" horiz-adv-x="487" 
d="M408 81l10 -67s-59 -24 -170 -24c-119 0 -182 72 -186 162c-1 32 -2 65 -2 98s1 65 2 98c4 89 72 162 186 162c111 0 184 -73 184 -162v-128h-293s0 -41 1 -62c2 -51 40 -97 107 -97c81 0 161 20 161 20zM140 342c-1 -16 -1 -51 -1 -51h216s0 35 -1 51
c-2 52 -44 97 -104 97c-69 0 -107 -44 -110 -97zM205 590v98h82v-98h-82z" />
    <glyph glyph-name="emacron" unicode="&#x113;" horiz-adv-x="487" 
d="M408 81l10 -67s-59 -24 -170 -24c-119 0 -182 72 -186 162c-1 32 -2 65 -2 98s1 65 2 98c4 89 72 162 186 162c111 0 184 -73 184 -162v-128h-293s0 -41 1 -62c2 -51 40 -97 107 -97c81 0 161 20 161 20zM140 342c-1 -16 -1 -51 -1 -51h216s0 35 -1 51
c-2 52 -44 97 -104 97c-69 0 -107 -44 -110 -97zM92 594v71h302v-71h-302z" />
    <glyph glyph-name="eogonek" unicode="&#x119;" horiz-adv-x="487" 
d="M408 81l10 -67s-21 -8 -56 -14c-5 -3 -84 -50 -84 -99c0 -15 15 -26 31 -26c23 0 47 6 47 6l8 -57s-38 -13 -71 -13c-56 0 -86 41 -86 82c0 57 74 99 74 99s-24 -2 -33 -2c-119 0 -182 72 -186 162c-1 32 -2 65 -2 98s1 65 2 98c4 89 72 162 186 162
c111 0 184 -73 184 -162v-128h-293s0 -41 1 -62c2 -51 40 -97 107 -97c81 0 161 20 161 20zM140 342c-1 -16 -1 -51 -1 -51h216s0 35 -1 51c-2 52 -44 97 -104 97c-69 0 -107 -44 -110 -97z" />
    <glyph glyph-name="gbreve" unicode="&#x11f;" horiz-adv-x="470" 
d="M393 363v-73c0 -70 -54 -128 -137 -140v-26c0 -19 12 -26 22 -32l97 -53c40 -22 60 -49 60 -104c0 -99 -108 -125 -210 -125c-117 0 -185 44 -185 44l19 64s76 -38 166 -38c80 0 132 10 132 55c0 28 -8 35 -25 44l-122 64c-25 13 -34 38 -34 74v34
c-87 13 -134 70 -134 139v73c0 80 63 143 177 143c26 0 45 -2 67 -10l25 31c21 26 51 30 68 30c33 0 61 -6 61 -6l-8 -62h-38c-11 0 -24 -4 -31 -13l-13 -16c27 -25 43 -60 43 -97zM316 293v67c0 44 -37 76 -98 76c-60 0 -99 -32 -99 -76v-67c0 -43 39 -75 100 -75
c60 0 97 32 97 75zM78 700h74c0 -29 21 -58 66 -58c46 0 65 29 65 58h74c0 -71 -55 -127 -139 -127c-86 0 -140 56 -140 127z" />
    <glyph glyph-name="gcircumflex" unicode="&#x11d;" horiz-adv-x="470" 
d="M144 569h-72l100 131h80l102 -131h-73l-69 68zM393 363v-73c0 -70 -54 -128 -137 -140v-26c0 -19 12 -26 22 -32l97 -53c40 -22 60 -49 60 -104c0 -99 -108 -125 -210 -125c-117 0 -185 44 -185 44l19 64s76 -38 166 -38c80 0 132 10 132 55c0 28 -8 35 -25 44l-122 64
c-25 13 -34 38 -34 74v34c-87 13 -134 70 -134 139v73c0 80 63 143 177 143c26 0 45 -2 67 -10l25 31c21 26 51 26 68 26c33 0 61 -6 61 -6l-8 -62h-38c-11 0 -24 0 -31 -9l-13 -16c27 -25 43 -60 43 -97zM316 293v67c0 44 -37 76 -98 76c-60 0 -99 -32 -99 -76v-67
c0 -43 39 -75 100 -75c60 0 97 32 97 75z" />
    <glyph glyph-name="gcommaaccent" unicode="&#x123;" horiz-adv-x="470" 
d="M393 363v-73c0 -70 -54 -128 -137 -140v-26c0 -19 12 -26 22 -32l97 -53c40 -22 60 -49 60 -104c0 -99 -108 -125 -210 -125c-117 0 -185 44 -185 44l19 64s76 -38 166 -38c80 0 132 10 132 55c0 28 -8 35 -25 44l-122 64c-25 13 -34 38 -34 74v34
c-87 13 -134 70 -134 139v73c0 80 63 143 177 143c26 0 45 -2 67 -10l25 31c21 26 51 30 68 30c33 0 61 -6 61 -6l-8 -62h-38c-11 0 -24 -4 -31 -13l-13 -16c27 -25 43 -60 43 -97zM316 293v67c0 44 -37 76 -98 76c-60 0 -99 -32 -99 -76v-67c0 -43 39 -75 100 -75
c60 0 97 32 97 75zM258 687v-98h-85v90c0 104 60 125 95 125v-38c-31 0 -45 -30 -45 -63c0 -8 1 -16 1 -16h34z" />
    <glyph glyph-name="gdotaccent" unicode="&#x121;" horiz-adv-x="470" 
d="M393 363v-73c0 -70 -54 -128 -137 -140v-26c0 -19 12 -26 22 -32l97 -53c40 -22 60 -49 60 -104c0 -99 -108 -125 -210 -125c-117 0 -185 44 -185 44l19 64s76 -38 166 -38c80 0 132 10 132 55c0 28 -8 35 -25 44l-122 64c-25 13 -34 38 -34 74v34
c-87 13 -134 70 -134 139v73c0 80 63 143 177 143c26 0 45 -2 67 -10l25 31c21 26 51 30 68 30c33 0 61 -6 61 -6l-8 -62h-38c-11 0 -24 -4 -31 -13l-13 -16c27 -25 43 -60 43 -97zM316 293v67c0 44 -37 76 -98 76c-60 0 -99 -32 -99 -76v-67c0 -43 39 -75 100 -75
c60 0 97 32 97 75zM173 590v98h82v-98h-82z" />
    <glyph glyph-name="hbar" unicode="&#x127;" horiz-adv-x="520" 
d="M18 576v67h52v57h78v-57h114v-67h-114v-110s74 41 147 41c110 0 160 -70 160 -159v-348h-78v342c0 50 -24 94 -84 94c-65 0 -145 -45 -145 -45v-391h-78v576h-52z" />
    <glyph glyph-name="hcircumflex" unicode="&#x125;" horiz-adv-x="520" 
d="M148 0h-78v700h78v-234s74 41 147 41c110 0 160 -70 160 -159v-348h-78v342c0 50 -24 94 -84 94c-65 0 -145 -45 -145 -45v-391zM143 762h-72l103 138h82l105 -138h-73l-74 75z" />
    <glyph glyph-name="ibreve" unicode="&#x12d;" horiz-adv-x="223" 
d="M72 0v500h78v-500h-78zM-28 700h74c0 -29 21 -58 66 -58c46 0 65 29 65 58h74c0 -71 -55 -127 -139 -127c-86 0 -140 56 -140 127z" />
    <glyph glyph-name="imacron" unicode="&#x12b;" horiz-adv-x="223" 
d="M72 0v500h78v-500h-78zM-39 594v71h302v-71h-302z" />
    <glyph glyph-name="iogonek" unicode="&#x12f;" horiz-adv-x="223" 
d="M143 -119l8 -57s-38 -13 -71 -13c-56 0 -86 41 -86 82c0 61 78 107 78 107v500h78v-500s-85 -49 -85 -99c0 -15 15 -26 31 -26c23 0 47 6 47 6zM70 602v98h83v-98h-83z" />
    <glyph glyph-name="itilde" unicode="&#x129;" horiz-adv-x="223" 
d="M72 0v500h78v-500h-78zM26 579h-70c0 51 39 105 91 105c47 0 94 -42 125 -42c15 0 23 22 23 36h72c0 -51 -38 -105 -89 -105c-47 0 -95 42 -125 42c-16 0 -25 -20 -27 -36z" />
    <glyph glyph-name="ij" unicode="&#x133;" horiz-adv-x="406" 
d="M72 0v500h78v-500h-78zM70 602v98h83v-98h-83zM253 602v98h83v-98h-83zM332 500v-552c0 -81 -49 -138 -137 -138c-39 0 -72 9 -72 9l5 68s21 -6 68 -6c34 0 59 19 59 73v546h77z" />
    <glyph glyph-name="jcircumflex" unicode="&#x135;" horiz-adv-x="225" 
d="M151 500v-552c0 -81 -49 -138 -137 -138c-39 0 -72 9 -72 9l5 68s21 -6 68 -6c34 0 59 19 59 73v546h77zM40 562h-72l103 138h82l105 -138h-73l-74 75z" />
    <glyph glyph-name="kcommaaccent" unicode="&#x137;" horiz-adv-x="452" 
d="M70 0v700h77v-700h-77zM354 0l-207 264l194 236h91l-196 -236l211 -264h-93zM188 -133v88h85v-80c0 -104 -60 -117 -95 -117v35c31 0 45 25 45 58c0 8 -1 16 -1 16h-34z" />
    <glyph glyph-name="kgreenlandic" unicode="&#x138;" horiz-adv-x="452" 
d="M70 0v500h77v-500h-77zM354 0l-207 264l194 236h91l-196 -236l211 -264h-93z" />
    <glyph glyph-name="lacute" unicode="&#x13a;" horiz-adv-x="217" 
d="M70 0v700h77v-700h-77zM154 761h-89l116 138h114z" />
    <glyph glyph-name="lcaron" unicode="&#x13e;" horiz-adv-x="304" 
d="M70 0v700h77v-700h-77zM218 602v98h85v-90c0 -104 -60 -125 -95 -125v38c31 0 45 30 45 63c0 8 -1 16 -1 16h-34z" />
    <glyph glyph-name="lcommaaccent" unicode="&#x13c;" horiz-adv-x="217" 
d="M70 0v700h77v-700h-77zM69 -133v88h85v-80c0 -104 -60 -117 -95 -117v35c31 0 45 25 45 58c0 8 -1 16 -1 16h-34z" />
    <glyph glyph-name="ldot" unicode="&#x140;" horiz-adv-x="304" 
d="M70 0v700h77v-700h-77zM221 242v98h82v-98h-82z" />
    <glyph glyph-name="nacute" unicode="&#x144;" horiz-adv-x="520" 
d="M148 0h-78v500h73l5 -34s71 44 147 44c110 0 160 -73 160 -162v-348h-78v342c0 50 -24 97 -84 97c-68 0 -145 -48 -145 -48v-391zM330 562h-89l116 138h114z" />
    <glyph glyph-name="napostrophe" unicode="&#x149;" horiz-adv-x="538" 
d="M166 0h-78v500h73l5 -34s71 44 147 44c110 0 160 -73 160 -162v-348h-78v342c0 50 -24 97 -84 97c-68 0 -145 -48 -145 -48v-391zM0 612v88h85v-80c0 -104 -60 -117 -95 -117v35c31 0 45 25 45 58c0 8 -1 16 -1 16h-34z" />
    <glyph glyph-name="ncaron" unicode="&#x148;" horiz-adv-x="520" 
d="M148 0h-78v500h73l5 -34s71 44 147 44c110 0 160 -73 160 -162v-348h-78v342c0 50 -24 97 -84 97c-68 0 -145 -48 -145 -48v-391zM126 700h72l71 -75l74 75h73l-105 -138h-82z" />
    <glyph glyph-name="ncommaaccent" unicode="&#x146;" horiz-adv-x="520" 
d="M148 0h-78v500h73l5 -34s71 44 147 44c110 0 160 -73 160 -162v-348h-78v342c0 50 -24 97 -84 97c-68 0 -145 -48 -145 -48v-391zM222 -133v88h85v-80c0 -104 -60 -117 -95 -117v35c31 0 45 25 45 58c0 8 -1 16 -1 16h-34z" />
    <glyph glyph-name="obreve" unicode="&#x14f;" horiz-adv-x="514" 
d="M452 152c-3 -90 -77 -162 -194 -162c-127 0 -193 72 -196 162c-2 65 -2 131 0 196c3 89 69 162 196 162c117 0 191 -73 194 -162c2 -65 2 -131 0 -196zM374 344c-3 53 -43 95 -117 95c-73 0 -114 -42 -117 -95c-3 -61 -3 -127 0 -188c3 -53 44 -95 118 -95
c73 0 113 42 116 95c3 61 3 127 0 188zM117 700h74c0 -29 21 -58 66 -58c46 0 65 29 65 58h74c0 -71 -55 -127 -139 -127c-86 0 -140 56 -140 127z" />
    <glyph glyph-name="ohungarumlaut" unicode="&#x151;" horiz-adv-x="514" 
d="M452 152c-3 -90 -77 -162 -194 -162c-127 0 -193 72 -196 162c-2 65 -2 131 0 196c3 89 69 162 196 162c117 0 191 -73 194 -162c2 -65 2 -131 0 -196zM374 344c-3 53 -43 95 -117 95c-73 0 -114 -42 -117 -95c-3 -61 -3 -127 0 -188c3 -53 44 -95 118 -95
c73 0 113 42 116 95c3 61 3 127 0 188zM198 562h-89l116 138h114zM392 562h-89l116 138h114z" />
    <glyph glyph-name="omacron" unicode="&#x14d;" horiz-adv-x="514" 
d="M452 152c-3 -90 -77 -162 -194 -162c-127 0 -193 72 -196 162c-2 65 -2 131 0 196c3 89 69 162 196 162c117 0 191 -73 194 -162c2 -65 2 -131 0 -196zM374 344c-3 53 -43 95 -117 95c-73 0 -114 -42 -117 -95c-3 -61 -3 -127 0 -188c3 -53 44 -95 118 -95
c73 0 113 42 116 95c3 61 3 127 0 188zM106 594v71h302v-71h-302z" />
    <glyph glyph-name="oslashacute" unicode="&#x1ff;" horiz-adv-x="514" 
d="M452 152c-3 -90 -77 -162 -194 -162c-45 0 -82 9 -111 24l-9 -14h-75l34 54c-22 27 -34 61 -35 98c-2 65 -2 131 0 196c3 89 69 162 196 162c42 0 79 -10 109 -27l11 17h76l-37 -58c22 -27 34 -59 35 -94c2 -65 2 -131 0 -196zM140 156c0 -9 2 -18 5 -26l183 291
c-18 11 -42 18 -71 18c-73 0 -114 -42 -117 -95c-3 -61 -3 -127 0 -188zM374 344c-1 8 -2 15 -4 23l-183 -289c19 -11 42 -17 71 -17c73 0 113 42 116 95c3 61 3 127 0 188zM293 562h-89l116 138h114z" />
    <glyph glyph-name="racute" unicode="&#x155;" horiz-adv-x="315" 
d="M305 510v-71c-92 0 -157 -86 -157 -86v-353h-78v500h73l3 -61s63 70 159 71zM192 562h-89l116 138h114z" />
    <glyph glyph-name="rcaron" unicode="&#x159;" horiz-adv-x="315" 
d="M305 510v-71c-92 0 -157 -86 -157 -86v-353h-78v500h73l3 -61s63 70 159 71zM28 700h72l71 -75l74 75h73l-105 -138h-82z" />
    <glyph glyph-name="rcommaaccent" unicode="&#x157;" horiz-adv-x="315" 
d="M305 510v-71c-92 0 -157 -86 -157 -86v-353h-78v500h73l3 -61s63 70 159 71zM69 -133v88h85v-80c0 -104 -60 -117 -95 -117v35c31 0 45 25 45 58c0 8 -1 16 -1 16h-34z" />
    <glyph glyph-name="sacute" unicode="&#x15b;" horiz-adv-x="441" 
d="M362 423l8 69s-65 18 -148 18c-99 0 -172 -43 -172 -142c0 -190 272 -112 272 -234c0 -49 -29 -73 -114 -73c-67 0 -143 21 -143 21l-10 -68s74 -24 158 -24c132 0 188 54 188 149c0 190 -273 116 -273 231c0 49 42 69 94 69c63 0 140 -16 140 -16zM266 562h-89l116 138
h114z" />
    <glyph glyph-name="scedilla" unicode="&#x15f;" horiz-adv-x="441" 
d="M370 492l-8 -69s-77 16 -140 16c-52 0 -94 -20 -94 -69c0 -115 273 -41 273 -231c0 -86 -46 -138 -152 -147l-6 -32c42 0 76 -12 76 -69s-34 -81 -85 -81c-39 0 -77 6 -77 6l3 43s35 -4 59 -4c25 0 40 11 40 36c0 22 -15 30 -40 30h-40l15 70c-76 3 -139 23 -139 23
l10 68s76 -21 143 -21c85 0 114 24 114 73c0 122 -272 44 -272 234c0 99 73 142 172 142c83 0 148 -18 148 -18z" />
    <glyph glyph-name="scircumflex" unicode="&#x15d;" horiz-adv-x="441" 
d="M362 423l8 69s-65 18 -148 18c-99 0 -172 -43 -172 -142c0 -190 272 -112 272 -234c0 -49 -29 -73 -114 -73c-67 0 -143 21 -143 21l-10 -68s74 -24 158 -24c132 0 188 54 188 149c0 190 -273 116 -273 231c0 49 42 69 94 69c63 0 140 -16 140 -16zM147 562h-72l103 138
h82l105 -138h-73l-74 75z" />
    <glyph glyph-name="scommaaccent" unicode="&#x219;" horiz-adv-x="441" 
d="M370 492l-8 -69s-77 16 -140 16c-52 0 -94 -20 -94 -69c0 -115 273 -41 273 -231c0 -95 -56 -149 -188 -149c-84 0 -158 24 -158 24l10 68s76 -21 143 -21c85 0 114 24 114 73c0 122 -272 44 -272 234c0 99 73 142 172 142c83 0 148 -18 148 -18zM179 -133v88h85v-80
c0 -104 -60 -117 -95 -117v35c31 0 45 25 45 58c0 8 -1 16 -1 16h-34z" />
    <glyph glyph-name="c_t" unicode="&#xfb0a;" horiz-adv-x="740" 
d="M380 77l10 -70s-64 -17 -144 -17c-119 0 -181 72 -184 162c-2 65 -2 131 0 196c3 89 66 162 185 162c10 0 23 -1 33 -2c-19 24 -32 56 -32 96c0 73 55 146 163 146c113 0 166 -66 166 -146v-104h143v-71h-143v-295c0 -54 19 -73 53 -73c47 0 83 6 83 6l5 -68
s-48 -9 -94 -9c-86 0 -125 57 -125 130v477c0 51 -27 89 -93 89c-53 0 -87 -40 -87 -86c0 -85 62 -101 62 -101l-6 -72s-68 12 -129 12c-65 0 -104 -45 -106 -95c-2 -61 -2 -127 0 -188c2 -50 40 -95 106 -95c80 0 134 16 134 16z" />
    <glyph glyph-name="s_p" unicode="&#xfb07;" horiz-adv-x="934" 
d="M363 427c-1 1 -78 12 -141 12c-52 0 -94 -20 -94 -69c0 -115 273 -41 273 -231c0 -95 -56 -149 -188 -149c-84 0 -158 24 -158 24l10 68s76 -21 143 -21c85 0 114 24 114 73c0 122 -272 44 -272 234c0 99 73 142 172 142c16 0 31 0 45 -1c-18 24 -31 55 -31 95
c0 73 55 146 163 146c113 0 165 -66 165 -146v-139s72 45 145 45c110 0 160 -69 163 -158c2 -65 2 -131 0 -196c-3 -90 -60 -164 -184 -164c-58 0 -124 19 -124 19v-191h-77v777c0 51 -27 89 -93 89c-53 0 -87 -40 -87 -86c0 -85 62 -101 63 -103zM794 162c2 61 2 123 0 184
c-2 50 -27 93 -87 93c-65 0 -143 -49 -143 -49v-306s44 -21 124 -21c70 0 104 49 106 99z" />
    <glyph glyph-name="s_t" unicode="&#xfb06;" horiz-adv-x="728" 
d="M363 427c-1 1 -78 12 -141 12c-52 0 -94 -20 -94 -69c0 -115 273 -41 273 -231c0 -95 -56 -149 -188 -149c-84 0 -158 24 -158 24l10 68s76 -21 143 -21c85 0 114 24 114 73c0 122 -272 44 -272 234c0 99 73 142 172 142c16 0 31 0 45 -1c-18 24 -31 55 -31 95
c0 73 55 146 163 146c113 0 166 -66 166 -146v-104h143v-71h-143v-295c0 -54 19 -73 53 -73c47 0 83 6 83 6l5 -68s-48 -9 -94 -9c-86 0 -125 57 -125 130v477c0 51 -27 89 -93 89c-53 0 -87 -40 -87 -86c0 -85 62 -101 63 -103z" />
    <glyph glyph-name="tbar" unicode="&#x167;" horiz-adv-x="337" 
d="M20 429v71h76v120h78v-120h143v-71h-143v-105h138v-71h-138v-119c0 -54 19 -73 53 -73c47 0 83 6 83 6l5 -68s-48 -9 -94 -9c-86 0 -125 57 -125 130v133h-71v71h71v105h-76z" />
    <glyph glyph-name="tcaron" unicode="&#x165;" horiz-adv-x="337" 
d="M20 429v71h76v120h78v-120h143v-71h-143v-295c0 -54 19 -73 53 -73c47 0 83 6 83 6l5 -68s-48 -9 -94 -9c-86 0 -125 57 -125 130v309h-76zM232 664v98h85v-90c0 -104 -60 -125 -95 -125v38c31 0 45 30 45 63c0 8 -1 16 -1 16h-34z" />
    <glyph glyph-name="tcommaaccent" unicode="&#x163;" horiz-adv-x="337" 
d="M20 429v71h76v120h78v-120h143v-71h-143v-295c0 -54 19 -73 53 -73c47 0 83 6 83 6l5 -68s-48 -9 -94 -9c-86 0 -125 57 -125 130v309h-76zM107 -133v88h85v-80c0 -104 -60 -117 -95 -117v35c31 0 45 25 45 58c0 8 -1 16 -1 16h-34z" />
    <glyph glyph-name="ubreve" unicode="&#x16d;" horiz-adv-x="520" 
d="M372 500h78v-500h-73l-5 34s-71 -44 -147 -44c-110 0 -160 73 -160 162v348h78v-342c0 -50 24 -97 84 -97c68 0 145 48 145 48v391zM120 700h74c0 -29 21 -58 66 -58c46 0 65 29 65 58h74c0 -71 -55 -127 -139 -127c-86 0 -140 56 -140 127z" />
    <glyph glyph-name="uhungarumlaut" unicode="&#x171;" horiz-adv-x="520" 
d="M372 500h78v-500h-73l-5 34s-71 -44 -147 -44c-110 0 -160 73 -160 162v348h78v-342c0 -50 24 -97 84 -97c68 0 145 48 145 48v391zM194 562h-89l116 138h114zM388 562h-89l116 138h114z" />
    <glyph glyph-name="umacron" unicode="&#x16b;" horiz-adv-x="520" 
d="M372 500h78v-500h-73l-5 34s-71 -44 -147 -44c-110 0 -160 73 -160 162v348h78v-342c0 -50 24 -97 84 -97c68 0 145 48 145 48v391zM109 594v71h302v-71h-302z" />
    <glyph glyph-name="uogonek" unicode="&#x173;" horiz-adv-x="520" 
d="M372 500h78v-500s-85 -49 -85 -99c0 -15 15 -26 31 -26c23 0 47 6 47 6l8 -57s-38 -13 -71 -13c-56 0 -86 41 -86 82c0 61 83 107 83 107l-5 34s-71 -44 -147 -44c-110 0 -160 73 -160 162v348h78v-342c0 -50 24 -97 84 -97c68 0 145 48 145 48v391z" />
    <glyph glyph-name="uring" unicode="&#x16f;" horiz-adv-x="520" 
d="M372 500h78v-500h-73l-5 34s-71 -44 -147 -44c-110 0 -160 73 -160 162v348h78v-342c0 -50 24 -97 84 -97c68 0 145 48 145 48v391zM173 630c0 49 37 85 86 85c48 0 88 -36 88 -85c0 -48 -40 -84 -88 -84c-49 0 -86 36 -86 84zM224 631c0 -20 14 -35 35 -35s36 15 36 35
c0 21 -15 36 -36 36s-35 -15 -35 -36z" />
    <glyph glyph-name="utilde" unicode="&#x169;" horiz-adv-x="520" 
d="M372 500h78v-500h-73l-5 34s-71 -44 -147 -44c-110 0 -160 73 -160 162v348h78v-342c0 -50 24 -97 84 -97c68 0 145 48 145 48v391zM174 579h-70c0 51 39 105 91 105c47 0 94 -42 125 -42c15 0 23 22 23 36h72c0 -51 -38 -105 -89 -105c-47 0 -95 42 -125 42
c-16 0 -25 -20 -27 -36z" />
    <glyph glyph-name="wacute" unicode="&#x1e83;" horiz-adv-x="666" 
d="M491 62l63 438h82l-83 -500h-124l-94 417h-4l-94 -417h-124l-83 500h82l63 -438h4l102 438h104l102 -438h4zM373 562h-89l116 138h114z" />
    <glyph glyph-name="wcircumflex" unicode="&#x175;" horiz-adv-x="666" 
d="M491 62l63 438h82l-83 -500h-124l-94 417h-4l-94 -417h-124l-83 500h82l63 -438h4l102 438h104l102 -438h4zM260 562h-72l103 138h82l105 -138h-73l-74 75z" />
    <glyph glyph-name="wdieresis" unicode="&#x1e85;" horiz-adv-x="666" 
d="M491 62l63 438h82l-83 -500h-124l-94 417h-4l-94 -417h-124l-83 500h82l63 -438h4l102 438h104l102 -438h4zM207 590v98h82v-98h-82zM377 590v98h82v-98h-82z" />
    <glyph glyph-name="wgrave" unicode="&#x1e81;" horiz-adv-x="666" 
d="M491 62l63 438h82l-83 -500h-124l-94 417h-4l-94 -417h-124l-83 500h82l63 -438h4l102 438h104l102 -438h4zM376 562h-89l-141 138h114z" />
    <glyph glyph-name="ycircumflex" unicode="&#x177;" horiz-adv-x="486" 
d="M185 20l-170 480h87l135 -397h4l147 397h83l-261 -680h-81l75 193zM170 562h-72l103 138h82l105 -138h-73l-74 75z" />
    <glyph glyph-name="ygrave" unicode="&#x1ef3;" horiz-adv-x="486" 
d="M185 20l-170 480h87l135 -397h4l147 397h83l-261 -680h-81l75 193zM317 562h-89l-141 138h114z" />
    <glyph glyph-name="zacute" unicode="&#x17a;" horiz-adv-x="433" 
d="M389 428l-256 -353v-4h260v-71h-353v73l257 352v4h-246v71h338v-72zM248 562h-89l116 138h114z" />
    <glyph glyph-name="zdotaccent" unicode="&#x17c;" horiz-adv-x="433" 
d="M389 428l-256 -353v-4h260v-71h-353v73l257 352v4h-246v71h338v-72zM175 590v98h82v-98h-82z" />
    <glyph glyph-name="Eng" unicode="&#x14a;" horiz-adv-x="656" 
d="M493 700h83v-729c0 -122 -62 -161 -132 -161c-39 0 -78 10 -78 10l4 68s35 -2 57 -2c64 0 66 49 66 114l-306 519l-28 65l4 -68v-516h-83v700h99l291 -505l23 -55v560z" />
    <glyph glyph-name="eng" unicode="&#x14b;" horiz-adv-x="520" 
d="M148 0h-78v500h73l5 -34s71 44 147 44c110 0 160 -73 160 -162v-390c0 -81 -50 -138 -138 -138c-39 0 -72 9 -72 9l5 68s21 -6 68 -6c34 0 59 19 59 73v378c0 50 -24 97 -84 97c-68 0 -145 -48 -145 -48v-391z" />
    <glyph glyph-name="longs" unicode="&#x17f;" horiz-adv-x="286" 
d="M20 429v71h60v72c0 81 49 138 137 138c39 0 79 -9 79 -9l-5 -68s-28 6 -75 6c-34 0 -58 -19 -58 -73v-566h-78v429h-60z" />
    <glyph glyph-name="longs_t" unicode="&#xfb05;" 
d="M263 429v71h76v132s-70 7 -123 7c-34 0 -58 -19 -58 -73v-566h-78v429h-60v71h60v72c0 81 49 138 137 138c86 0 200 -15 200 -15v-195h143v-71h-143v-295c0 -54 19 -73 53 -73c47 0 83 6 83 6l5 -68s-48 -9 -94 -9c-86 0 -125 57 -125 130v309h-76z" />
    <glyph glyph-name="estimated" unicode="&#x212e;" horiz-adv-x="796" 
d="M756 329h-577v-206c57 -54 134 -89 219 -89c82 0 157 32 214 83l32 -30c-66 -60 -151 -96 -246 -96c-199 0 -359 160 -359 359s160 359 359 359s359 -160 359 -359c0 -8 0 -13 -1 -21zM398 666c-85 0 -162 -35 -219 -89c0 1 0 -205 0 -205h439v204
c-57 55 -135 90 -220 90z" />
    <glyph glyph-name="litre" unicode="&#x2113;" horiz-adv-x="422" 
d="M84 165l-34 61s22 17 54 42v307c0 73 56 134 134 134c81 0 134 -59 134 -158c0 -122 -109 -248 -191 -316v-136c0 -24 19 -37 44 -37s45 18 45 44v27h74v-26c0 -63 -53 -116 -120 -116c-65 0 -120 53 -120 116v72zM181 576v-242c57 59 113 145 113 215
c0 61 -25 84 -57 84c-35 0 -56 -30 -56 -57z" />
    <glyph glyph-name="afii10017" unicode="&#x410;" horiz-adv-x="607" 
d="M240 700h125l222 -700h-89l-62 203h-266l-62 -203h-88zM413 278l-107 346h-7l-107 -346h221z" />
    <glyph glyph-name="afii10019" unicode="&#x412;" horiz-adv-x="590" 
d="M333 700c131 0 195 -71 195 -184c0 -116 -84 -150 -84 -150s96 -34 96 -165c0 -127 -65 -201 -229 -201h-231v700h253zM344 623h-180v-221h168c68 0 115 39 115 112c0 65 -35 109 -103 109zM164 326v-249h152c111 0 140 40 140 124c0 67 -28 125 -124 125h-168z" />
    <glyph glyph-name="afii10022" unicode="&#x415;" horiz-adv-x="578" 
d="M80 700h438v-78h-354v-220h323v-77h-323v-246h364v-79h-448v700z" />
    <glyph glyph-name="afii10023" unicode="&#x401;" horiz-adv-x="578" 
d="M80 700h438v-78h-354v-220h323v-77h-323v-246h364v-79h-448v700zM163 790v98h82v-98h-82zM333 790v98h82v-98h-82z" />
    <glyph glyph-name="afii10028" unicode="&#x41a;" horiz-adv-x="569" 
d="M531 700l-270 -333l288 -367h-103l-282 366l266 334h101zM164 700v-700h-84v700h84z" />
    <glyph glyph-name="afii10030" unicode="&#x41c;" horiz-adv-x="759" 
d="M679 700v-700h-84v531l3 57l-31 -64l-143 -240h-89l-143 240l-31 64l3 -57v-531h-84v700h100l199 -344l200 344h100z" />
    <glyph glyph-name="afii10031" unicode="&#x41d;" horiz-adv-x="656" 
d="M492 700h84v-700h-84v325h-328v-325h-84v700h84v-298h328v298z" />
    <glyph glyph-name="afii10032" unicode="&#x41e;" horiz-adv-x="643" 
d="M576 482c2 -88 2 -176 0 -264c-3 -125 -103 -228 -254 -228c-154 0 -252 103 -255 228c-2 88 -2 176 0 264c3 125 103 228 255 228c153 0 251 -103 254 -228zM490 217c2 89 2 177 0 266c-2 80 -60 152 -168 152c-107 0 -169 -72 -171 -152c-2 -89 -2 -177 0 -266
c2 -80 62 -152 171 -152c106 0 166 72 168 152z" />
    <glyph glyph-name="afii10034" unicode="&#x420;" horiz-adv-x="572" 
d="M80 0v700h270c114 0 174 -69 179 -156c3 -48 3 -96 0 -144c-5 -88 -65 -157 -179 -157h-186v-243h-84zM444 397c3 49 3 100 0 149c-3 42 -25 76 -92 76h-188v-301h188c67 0 89 35 92 76z" />
    <glyph glyph-name="afii10035" unicode="&#x421;" horiz-adv-x="547" 
d="M499 88l3 -74s-99 -24 -180 -24c-154 0 -252 103 -255 228c-2 88 -2 176 0 264c3 125 103 228 255 228c84 0 175 -23 175 -23l-3 -74s-111 19 -172 19c-106 0 -167 -71 -169 -150c-2 -88 -2 -176 0 -264c2 -79 61 -150 169 -150c59 0 177 20 177 20z" />
    <glyph glyph-name="afii10036" unicode="&#x422;" horiz-adv-x="505" 
d="M20 622v78h465v-78h-191v-622h-84v622h-190z" />
    <glyph glyph-name="afii10039" unicode="&#x425;" horiz-adv-x="608" 
d="M131 700l173 -270l173 270h95l-219 -341l235 -359h-96l-188 292l-188 -292h-96l235 359l-219 341h95z" />
    <glyph glyph-name="afii10054" unicode="&#x405;" horiz-adv-x="578" 
d="M486 687l-4 -74s-108 19 -192 19c-85 0 -149 -29 -149 -109c0 -188 392 -65 392 -334c0 -127 -76 -199 -258 -199c-110 0 -208 25 -208 25l4 75s101 -22 197 -22c133 0 179 33 179 113c0 197 -392 71 -392 339c0 133 101 190 235 190c122 0 196 -23 196 -23z" />
    <glyph glyph-name="afii10055" unicode="&#x406;" horiz-adv-x="244" 
d="M164 700v-700h-84v700h84z" />
    <glyph glyph-name="afii10056" unicode="&#x407;" horiz-adv-x="244" 
d="M164 700v-700h-84v700h84zM-4 790v98h82v-98h-82zM166 790v98h82v-98h-82z" />
    <glyph glyph-name="afii10057" unicode="&#x408;" horiz-adv-x="305" 
d="M20 0l2 68s37 -2 59 -2c64 0 65 49 65 113v521h84v-549c0 -122 -62 -161 -132 -161c-39 0 -78 10 -78 10z" />
    <glyph glyph-name="afii10061" unicode="&#x40c;" horiz-adv-x="569" 
d="M531 700l-270 -333l288 -367h-103l-282 366l266 334h101zM164 700v-700h-84v700h84zM318 762h-89l116 138h114z" />
    <glyph glyph-name="afii10065" unicode="&#x430;" horiz-adv-x="495" 
d="M359 0l-5 44s-79 -54 -154 -54c-95 0 -150 65 -150 156c0 87 47 162 150 162h153v34c0 50 -36 97 -99 97c-74 0 -171 -18 -171 -18l-7 68s94 21 177 21c117 0 177 -73 177 -162v-348h-71zM203 62c73 0 150 68 150 68v107h-149c-58 0 -76 -42 -76 -90c0 -47 19 -85 75 -85
z" />
    <glyph glyph-name="afii10070" unicode="&#x435;" horiz-adv-x="487" 
d="M408 81l10 -67s-59 -24 -170 -24c-119 0 -182 72 -186 162c-1 32 -2 65 -2 98s1 65 2 98c4 89 72 162 186 162c111 0 184 -73 184 -162v-128h-293s0 -41 1 -62c2 -51 40 -97 107 -97c81 0 161 20 161 20zM140 342c-1 -16 -1 -51 -1 -51h216s0 35 -1 51
c-2 52 -44 97 -104 97c-69 0 -107 -44 -110 -97z" />
    <glyph glyph-name="afii10071" unicode="&#x451;" horiz-adv-x="487" 
d="M408 81l10 -67s-59 -24 -170 -24c-119 0 -182 72 -186 162c-1 32 -2 65 -2 98s1 65 2 98c4 89 72 162 186 162c111 0 184 -73 184 -162v-128h-293s0 -41 1 -62c2 -51 40 -97 107 -97c81 0 161 20 161 20zM140 342c-1 -16 -1 -51 -1 -51h216s0 35 -1 51
c-2 52 -44 97 -104 97c-69 0 -107 -44 -110 -97zM117 590v98h82v-98h-82zM287 590v98h82v-98h-82z" />
    <glyph glyph-name="afii10076" unicode="&#x43a;" horiz-adv-x="452" 
d="M70 0v500h77v-500h-77zM354 0l-207 264l194 236h91l-196 -236l211 -264h-93z" />
    <glyph glyph-name="afii10080" unicode="&#x43e;" horiz-adv-x="514" 
d="M452 152c-3 -90 -77 -162 -194 -162c-127 0 -193 72 -196 162c-2 65 -2 131 0 196c3 89 69 162 196 162c117 0 191 -73 194 -162c2 -65 2 -131 0 -196zM374 344c-3 53 -43 95 -117 95c-73 0 -114 -42 -117 -95c-3 -61 -3 -127 0 -188c3 -53 44 -95 118 -95
c73 0 113 42 116 95c3 61 3 127 0 188z" />
    <glyph glyph-name="afii10082" unicode="&#x440;" horiz-adv-x="517" 
d="M70 -180v680h72l5 -35s72 45 145 45c110 0 160 -69 163 -158c2 -65 2 -131 0 -196c-3 -90 -60 -164 -184 -164c-58 0 -124 19 -124 19v-191h-77zM377 162c2 61 2 123 0 184c-2 50 -27 93 -87 93c-65 0 -143 -49 -143 -49v-306s44 -21 124 -21c70 0 104 49 106 99z" />
    <glyph glyph-name="afii10083" unicode="&#x441;" horiz-adv-x="420" 
d="M380 77l10 -70s-64 -17 -144 -17c-119 0 -181 72 -184 162c-2 65 -2 131 0 196c3 89 66 162 185 162c74 0 135 -12 135 -12l-7 -71s-68 12 -129 12c-65 0 -104 -45 -106 -95c-2 -61 -2 -127 0 -188c2 -50 40 -95 106 -95c80 0 134 16 134 16z" />
    <glyph glyph-name="afii10085" unicode="&#x443;" horiz-adv-x="491" 
d="M190 20l-170 480h87l135 -397h4l147 397h83l-261 -680h-81l75 193z" />
    <glyph glyph-name="afii10087" unicode="&#x445;" horiz-adv-x="466" 
d="M120 500l113 -179l113 179h89l-157 -240l168 -260h-88l-125 196l-125 -196h-88l168 260l-157 240h89z" />
    <glyph glyph-name="afii10102" unicode="&#x455;" horiz-adv-x="441" 
d="M370 492l-8 -69s-77 16 -140 16c-52 0 -94 -20 -94 -69c0 -115 273 -41 273 -231c0 -95 -56 -149 -188 -149c-84 0 -158 24 -158 24l10 68s76 -21 143 -21c85 0 114 24 114 73c0 122 -272 44 -272 234c0 99 73 142 172 142c83 0 148 -18 148 -18z" />
    <glyph glyph-name="afii10103" unicode="&#x456;" horiz-adv-x="223" 
d="M72 0v500h78v-500h-78zM70 602v98h83v-98h-83z" />
    <glyph glyph-name="afii10104" unicode="&#x457;" horiz-adv-x="223" 
d="M72 0v500h78v-500h-78zM-14 602v98h82v-98h-82zM156 602v98h82v-98h-82z" />
    <glyph glyph-name="afii10105" unicode="&#x458;" horiz-adv-x="225" 
d="M72 602v98h83v-98h-83zM151 500v-552c0 -81 -49 -138 -137 -138c-39 0 -72 9 -72 9l5 68s21 -6 68 -6c34 0 59 19 59 73v546h77z" />
    <glyph glyph-name="afii10109" unicode="&#x45c;" horiz-adv-x="452" 
d="M70 0v500h77v-500h-77zM354 0l-207 264l194 236h91l-196 -236l211 -264h-93zM276 562h-89l116 138h114z" />
    <glyph glyph-name="afii10018" unicode="&#x411;" horiz-adv-x="572" 
d="M80 0v700h400v-79h-316v-204h186c114 0 172 -69 179 -157c3 -37 3 -73 0 -104c-8 -87 -65 -156 -179 -156h-270zM444 263c-3 41 -25 76 -92 76h-188v-261h188c67 0 88 34 92 76c3 34 3 70 0 109z" />
    <glyph glyph-name="afii10020" unicode="&#x413;" horiz-adv-x="500" 
d="M165 0h-85v700h400v-79h-315v-621z" />
    <glyph glyph-name="afii10021" unicode="&#x414;" horiz-adv-x="620" 
d="M20 -150v229h48c35 73 75 197 75 353v268h387v-621h60v-229h-80l-5 150h-400l-5 -150h-80zM224 622v-199c0 -155 -41 -287 -66 -344h287v543h-221z" />
    <glyph glyph-name="afii10024" unicode="&#x416;" horiz-adv-x="778" 
d="M250 367l-221 333h101l217 -334l-224 -366h-103zM749 700l-221 -333l230 -367h-103l-224 366l217 334h101zM431 700v-700h-84v700h84z" />
    <glyph glyph-name="afii10025" unicode="&#x417;" horiz-adv-x="512" 
d="M200 339v71h27c66 0 134 40 134 124c0 73 -48 101 -135 101c-78 0 -164 -22 -164 -22v73s84 23 173 23c140 0 208 -68 208 -172c0 -79 -38 -133 -101 -160c72 -18 120 -78 120 -177c0 -130 -85 -210 -238 -210c-102 0 -179 22 -179 22l3 76s89 -23 165 -23
c126 0 164 55 164 136c0 103 -59 138 -150 138h-27z" />
    <glyph glyph-name="afii10026" unicode="&#x418;" horiz-adv-x="656" 
d="M80 700h83v-517l-4 -67l27 64l291 520h99v-700h-83v516l4 68l-28 -65l-290 -519h-99v700z" />
    <glyph glyph-name="afii10027" unicode="&#x419;" horiz-adv-x="656" 
d="M186 900h74c0 -37 16 -69 66 -69c51 0 65 32 65 69h74c0 -76 -50 -127 -139 -127c-91 0 -140 51 -140 127zM80 700h83v-517l-4 -67l27 64l291 520h99v-700h-83v516l4 68l-28 -65l-290 -519h-99v700z" />
    <glyph glyph-name="afii10029" unicode="&#x41b;" horiz-adv-x="612" 
d="M132 700h400v-700h-84v623h-235v-177c0 -204 -64 -368 -111 -446h-87c62 101 117 254 117 453v247z" />
    <glyph glyph-name="afii10033" unicode="&#x41f;" horiz-adv-x="656" 
d="M80 700h496v-700h-84v623h-328v-623h-84v700z" />
    <glyph glyph-name="afii10037" unicode="&#x423;" horiz-adv-x="582" 
d="M567 700l-313 -700h-92l94 202l-226 498h95l176 -400l172 400h94z" />
    <glyph glyph-name="afii10062" unicode="&#x40e;" horiz-adv-x="582" 
d="M163 900h74c0 -37 16 -69 66 -69c51 0 65 32 65 69h74c0 -76 -50 -127 -139 -127c-91 0 -140 51 -140 127zM567 700l-313 -700h-92l94 202l-226 498h95l176 -400l172 400h94z" />
    <glyph glyph-name="afii10038" unicode="&#x424;" horiz-adv-x="720" 
d="M402 709v-62c149 -2 246 -94 251 -218c2 -48 2 -109 0 -147c-7 -124 -100 -216 -251 -218v-73h-84v73c-152 2 -244 94 -251 218c-2 38 -2 99 0 147c5 124 101 216 251 218v62h84zM152 282c4 -78 60 -140 166 -140v427c-104 -1 -163 -62 -166 -140c-2 -48 -2 -109 0 -147z
M568 429c-3 78 -63 139 -166 140v-427c105 0 162 62 166 140c2 38 2 99 0 147z" />
    <glyph glyph-name="afii10040" unicode="&#x426;" horiz-adv-x="666" 
d="M551 0h-471v700h84v-623h328v623h84v-621h60v-229h-80z" />
    <glyph glyph-name="afii10041" unicode="&#x427;" horiz-adv-x="569" 
d="M405 345v355h84v-700h-84v267s-85 -24 -189 -24c-111 0 -176 78 -176 177v280h85v-283c0 -53 29 -96 95 -96c88 0 185 24 185 24z" />
    <glyph glyph-name="afii10042" unicode="&#x428;" horiz-adv-x="843" 
d="M763 0h-683v700h84v-623h216v623h84v-623h215v623h84v-700z" />
    <glyph glyph-name="afii10043" unicode="&#x429;" horiz-adv-x="853" 
d="M738 0h-658v700h84v-623h216v623h84v-623h215v623h84v-621h60v-229h-80z" />
    <glyph glyph-name="afii10046" unicode="&#x42c;" horiz-adv-x="572" 
d="M80 0v700h84v-283h182c114 0 176 -69 183 -157c3 -37 3 -73 0 -104c-8 -87 -69 -156 -183 -156h-266zM444 263c-3 41 -29 76 -96 76h-184v-261h184c67 0 92 34 96 76c3 34 3 70 0 109z" />
    <glyph glyph-name="afii10045" unicode="&#x42b;" horiz-adv-x="772" 
d="M80 0v700h84v-283h182c114 0 176 -69 183 -157c3 -37 3 -73 0 -104c-8 -87 -69 -156 -183 -156h-266zM444 263c-3 41 -29 76 -96 76h-184v-261h184c67 0 92 34 96 76c3 34 3 70 0 109zM608 0v700h84v-700h-84z" />
    <glyph glyph-name="afii10044" unicode="&#x42a;" horiz-adv-x="632" 
d="M20 626v74h204v-283h182c114 0 176 -69 183 -157c3 -37 3 -73 0 -104c-8 -87 -69 -156 -183 -156h-266v623zM504 263c-3 41 -29 76 -96 76h-184v-261h184c67 0 92 34 96 76c3 34 3 70 0 109z" />
    <glyph glyph-name="afii10047" unicode="&#x42d;" horiz-adv-x="547" 
d="M123 315v77h272s0 60 -1 90c-3 79 -63 150 -169 150c-61 0 -172 -19 -172 -19l-3 74s91 23 175 23c152 0 252 -103 255 -228c2 -88 2 -176 0 -264c-3 -125 -101 -228 -255 -228c-81 0 -180 24 -180 24l3 74s118 -20 177 -20c108 0 167 71 169 150c1 32 1 97 1 97h-272z
" />
    <glyph glyph-name="afii10048" unicode="&#x42e;" horiz-adv-x="830" 
d="M763 482c2 -88 2 -176 0 -264c-3 -125 -98 -228 -249 -228c-154 0 -247 103 -250 228c-1 35 -2 71 -2 107h-98v-325h-84v700h84v-298h98c0 26 1 53 2 80c3 125 98 228 250 228c153 0 246 -103 249 -228zM677 217c2 89 2 177 0 266c-2 80 -55 152 -163 152
c-107 0 -164 -72 -166 -152c-2 -89 -2 -177 0 -266c2 -80 57 -152 166 -152c106 0 161 72 163 152z" />
    <glyph glyph-name="afii10049" unicode="&#x42f;" horiz-adv-x="604" 
d="M280 255l-137 -255h-93l145 262c-76 19 -116 78 -120 150c-3 48 -3 84 0 132c5 87 65 156 179 156h270v-700h-84v255h-160zM160 409c3 -41 25 -76 92 -76h188v289h-188c-67 0 -89 -34 -92 -76c-3 -49 -3 -88 0 -137z" />
    <glyph glyph-name="afii10050" unicode="&#x490;" horiz-adv-x="493" 
d="M165 0h-85v700h312l5 151h76v-230h-308v-621z" />
    <glyph glyph-name="afii10051" unicode="&#x402;" horiz-adv-x="620" 
d="M20 622v78h438v-78h-192v-216s66 11 127 11c119 0 180 -73 185 -162c2 -33 2 -68 0 -103c-5 -85 -65 -162 -184 -162c-24 0 -62 5 -62 5l10 74s30 -4 51 -4c66 0 98 45 101 91c2 32 2 63 0 95c-3 50 -41 91 -106 91c-52 0 -122 -12 -122 -12v-330h-84v622h-162z" />
    <glyph glyph-name="afii10052" unicode="&#x403;" horiz-adv-x="500" 
d="M165 0h-85v700h400v-79h-315v-621zM311 762h-89l116 138h114z" />
    <glyph glyph-name="afii10053" unicode="&#x404;" horiz-adv-x="547" 
d="M424 392v-77h-272s0 -65 1 -97c2 -79 61 -150 169 -150c59 0 177 20 177 20l3 -74s-99 -24 -180 -24c-154 0 -252 103 -255 228c-2 88 -2 176 0 264c3 125 103 228 255 228c84 0 175 -23 175 -23l-3 -74s-111 19 -172 19c-106 0 -166 -71 -169 -150c-1 -30 -1 -90 -1 -90
h272z" />
    <glyph glyph-name="afii10058" unicode="&#x409;" horiz-adv-x="924" 
d="M439 0v623h-226v-177c0 -204 -64 -368 -111 -446h-87c62 101 117 254 117 453v247h391v-283h175c114 0 176 -69 183 -157c3 -37 3 -73 0 -104c-8 -87 -69 -156 -183 -156h-259zM796 263c-3 41 -29 76 -96 76h-177v-261h177c67 0 92 34 96 76c3 34 3 70 0 109z" />
    <glyph glyph-name="afii10059" unicode="&#x40a;" horiz-adv-x="970" 
d="M484 0v327h-320v-327h-84v700h84v-296h320v296h84v-296h176c114 0 176 -69 183 -157c3 -37 3 -60 0 -91c-8 -87 -69 -156 -183 -156h-260zM842 250c-3 41 -29 76 -96 76h-178v-248h178c67 0 92 34 96 76c3 34 3 57 0 96z" />
    <glyph glyph-name="afii10060" unicode="&#x40b;" horiz-adv-x="618" 
d="M20 622v78h438v-78h-192v-216s66 11 127 11c119 0 185 -71 185 -171v-246h-84v238c0 65 -41 104 -106 104c-52 0 -122 -12 -122 -12v-330h-84v622h-162z" />
    <glyph glyph-name="afii10066" unicode="&#x431;" horiz-adv-x="521" 
d="M381 328c-3 53 -43 95 -117 95c-97 0 -123 -71 -123 -176c0 -93 5 -186 124 -186c73 0 113 42 116 95c3 61 3 111 0 172zM137 423c0 0 39 71 141 71c104 0 178 -73 181 -162c2 -65 2 -115 0 -180c-3 -90 -77 -162 -194 -162c-127 0 -184 73 -196 162c-9 64 -9 94 -9 159
c0 234 50 361 270 380c57 5 91 21 91 21v-72s-26 -17 -71 -21c-132 -12 -202 -49 -213 -196z" />
    <glyph glyph-name="afii10067" unicode="&#x432;" horiz-adv-x="497" 
d="M273 500c106 0 158 -49 158 -133c0 -76 -58 -104 -58 -104s69 -27 69 -117c0 -91 -53 -146 -186 -146h-186v500h203zM280 430h-134v-138h127c50 0 83 23 83 74c0 42 -25 64 -76 64zM146 229v-161h114c80 0 105 23 105 79c0 43 -21 82 -92 82h-127z" />
    <glyph glyph-name="afii10068" unicode="&#x433;" horiz-adv-x="391" 
d="M371 500v-71h-223v-429h-78v500h301z" />
    <glyph glyph-name="afii10069" unicode="&#x434;" horiz-adv-x="507" 
d="M20 -104v172h40c27 50 55 132 55 238v194h315v-432h47v-172h-73l-3 104h-304l-4 -104h-73zM190 430v-130c0 -101 -30 -188 -49 -232h211v362h-162z" />
    <glyph glyph-name="afii10072" unicode="&#x436;" horiz-adv-x="618" 
d="M183 261l-166 239h92l162 -240l-168 -260h-93zM601 500l-166 -239l173 -261h-93l-168 260l162 240h92zM347 500v-500h-75v500h75z" />
    <glyph glyph-name="afii10073" unicode="&#x437;" horiz-adv-x="423" 
d="M152 230v66h26c49 0 98 23 98 78c0 47 -32 67 -99 67c-72 0 -131 -19 -131 -19l-7 68s71 20 145 20c113 0 168 -52 168 -133c0 -52 -26 -90 -68 -111c50 -17 84 -59 84 -125c0 -101 -69 -151 -193 -151c-80 0 -145 21 -145 21l9 69s68 -22 128 -22c95 0 123 30 123 84
c0 68 -44 88 -112 88h-26z" />
    <glyph glyph-name="afii10074" unicode="&#x438;" horiz-adv-x="535" 
d="M70 500h78v-355l-3 -50l20 48l209 357h91v-500h-78v355l3 50l-18 -46l-211 -359h-91v500z" />
    <glyph glyph-name="afii10075" unicode="&#x439;" horiz-adv-x="535" 
d="M129 700h74c0 -37 16 -69 66 -69c51 0 65 32 65 69h74c0 -76 -50 -127 -139 -127c-91 0 -140 51 -140 127zM70 500h78v-355l-3 -50l20 48l209 357h91v-500h-78v355l3 50l-18 -46l-211 -359h-91v500z" />
    <glyph glyph-name="afii10077" unicode="&#x43b;" horiz-adv-x="501" 
d="M107 500h324v-500h-78v429h-172v-114c0 -143 -51 -259 -88 -315h-83c52 74 97 184 97 320v180z" />
    <glyph glyph-name="afii10078" unicode="&#x43c;" horiz-adv-x="619" 
d="M549 500v-500h-77v390l-10 -21l-115 -172h-75l-113 172l-12 24v-393h-77v500h89l151 -238l151 238h88z" />
    <glyph glyph-name="afii10079" unicode="&#x43d;" horiz-adv-x="535" 
d="M387 500h78v-500h-78v226h-239v-226h-78v500h78v-203h239v203z" />
    <glyph glyph-name="afii10081" unicode="&#x43f;" horiz-adv-x="535" 
d="M70 500h395v-500h-78v429h-239v-429h-78v500z" />
    <glyph glyph-name="afii10084" unicode="&#x442;" horiz-adv-x="397" 
d="M10 429v71h377v-71h-150v-429h-78v429h-149z" />
    <glyph glyph-name="afii10086" unicode="&#x444;" horiz-adv-x="721" 
d="M322 -180v184c-23 -3 -48 -4 -76 -4c-119 0 -181 72 -184 162c-2 65 -2 111 0 176c3 89 66 162 185 162c27 0 53 -2 75 -4v204h77v-204c22 2 46 4 75 4c119 0 182 -73 185 -162c2 -65 2 -111 0 -176c-3 -90 -65 -162 -184 -162c-28 0 -54 2 -76 4v-184h-77zM475 429
c-26 0 -53 -2 -76 -5v-348c21 -3 46 -5 76 -5c66 0 104 45 106 95c2 61 2 107 0 168c-2 50 -41 95 -106 95zM246 71c29 0 55 2 76 5v348c-23 3 -50 5 -76 5c-65 0 -104 -45 -106 -95c-2 -61 -2 -107 0 -168c2 -50 40 -95 106 -95z" />
    <glyph glyph-name="afii10088" unicode="&#x446;" horiz-adv-x="542" 
d="M436 0h-366v500h78v-429h239v429h78v-432h47v-172h-73z" />
    <glyph glyph-name="afii10089" unicode="&#x447;" horiz-adv-x="483" 
d="M335 256v244h78v-500h-78v190s-71 -21 -142 -21c-90 0 -143 52 -143 133v198h78v-200c0 -39 20 -66 68 -66c58 0 139 22 139 22z" />
    <glyph glyph-name="afii10090" unicode="&#x448;" horiz-adv-x="685" 
d="M615 0h-545v500h78v-429h157v429h77v-429h156v429h77v-500z" />
    <glyph glyph-name="afii10093" unicode="&#x44b;" horiz-adv-x="636" 
d="M70 0v500h77v-199h137c93 0 141 -51 148 -114c2 -19 2 -56 0 -74c-7 -63 -55 -113 -148 -113h-214zM354 186c-4 26 -20 45 -69 45h-138v-163h138c48 0 65 21 69 46c3 19 3 53 0 72zM488 0v500h78v-500h-78z" />
    <glyph glyph-name="afii10095" unicode="&#x44d;" horiz-adv-x="432" 
d="M94 212v71h199s0 41 -1 61c-2 50 -41 95 -106 95c-61 0 -141 -12 -141 -12l-7 71s73 12 147 12c119 0 182 -73 185 -162c2 -65 2 -131 0 -196c-3 -90 -65 -162 -184 -162c-80 0 -156 17 -156 17l10 70s66 -16 146 -16c66 0 103 45 106 95c1 18 1 56 1 56h-199z" />
    <glyph glyph-name="afii10096" unicode="&#x44e;" horiz-adv-x="687" 
d="M625 346c2 -63 2 -127 0 -192c-3 -88 -80 -164 -200 -164c-121 0 -196 76 -201 164c-1 21 -1 43 -1 66h-75v-220h-78v500h78v-209h75c0 16 0 39 1 55c5 88 82 164 201 164c124 0 197 -74 200 -164zM547 153c1 61 1 130 0 194c-1 53 -41 99 -122 99
c-78 0 -122 -47 -124 -99c-3 -64 -3 -128 0 -194c2 -51 44 -99 124 -99c79 0 121 47 122 99z" />
    <glyph glyph-name="afii10097" unicode="&#x44f;" horiz-adv-x="491" 
d="M228 178l-107 -178h-86l115 187c-58 15 -88 56 -91 108c-2 33 -2 58 0 91c4 63 54 114 146 114h216v-500h-77v178h-116zM137 295c2 -25 18 -47 67 -47h140v184h-140c-49 0 -65 -24 -67 -49c-2 -34 -2 -54 0 -88z" />
    <glyph glyph-name="afii10091" unicode="&#x449;" horiz-adv-x="692" 
d="M586 0h-516v500h78v-429h157v429h77v-429h156v429h77v-432h47v-172h-73z" />
    <glyph glyph-name="afii10094" unicode="&#x44c;" horiz-adv-x="474" 
d="M70 0v500h77v-199h137c93 0 141 -51 148 -114c2 -19 2 -56 0 -74c-7 -63 -55 -113 -148 -113h-214zM354 186c-4 26 -20 45 -69 45h-138v-163h138c48 0 65 21 69 46c3 19 3 53 0 72z" />
    <glyph glyph-name="afii10092" unicode="&#x44a;" horiz-adv-x="511" 
d="M10 432v68h174v-199h137c93 0 141 -51 148 -114c2 -19 2 -56 0 -74c-7 -63 -55 -113 -148 -113h-214v432h-97zM391 186c-4 26 -20 45 -69 45h-138v-163h138c48 0 65 21 69 46c3 19 3 53 0 72z" />
    <glyph glyph-name="afii10101" unicode="&#x454;" horiz-adv-x="432" 
d="M338 283v-71h-199s0 -38 1 -56c3 -50 40 -95 106 -95c80 0 146 16 146 16l10 -70s-76 -17 -156 -17c-119 0 -181 72 -184 162c-2 65 -2 131 0 196c3 89 66 162 185 162c74 0 147 -12 147 -12l-7 -71s-80 12 -141 12c-65 0 -104 -45 -106 -95c-1 -20 -1 -61 -1 -61h199z
" />
    <glyph glyph-name="afii10098" unicode="&#x491;" horiz-adv-x="391" 
d="M371 604v-175h-223v-429h-78v500h226l4 104h71z" />
    <glyph glyph-name="afii10099" unicode="&#x452;" horiz-adv-x="520" 
d="M18 576v67h52v57h78v-57h114v-67h-114v-110s74 41 147 41c110 0 160 -70 160 -159v-400c0 -81 -50 -138 -138 -138c-39 0 -72 9 -72 9l5 68s21 -6 68 -6c34 0 59 19 59 73v388c0 50 -24 94 -84 94c-65 0 -145 -45 -145 -45v-391h-78v576h-52z" />
    <glyph glyph-name="afii10108" unicode="&#x45b;" horiz-adv-x="520" 
d="M18 576v67h52v57h78v-57h114v-67h-114v-110s74 41 147 41c110 0 160 -70 160 -159v-348h-78v342c0 50 -24 94 -84 94c-65 0 -145 -45 -145 -45v-391h-78v576h-52z" />
    <glyph glyph-name="afii10100" unicode="&#x453;" horiz-adv-x="386" 
d="M371 500v-71h-223v-429h-78v500h301zM256 562h-89l116 138h114z" />
    <glyph glyph-name="afii10106" unicode="&#x459;" horiz-adv-x="748" 
d="M107 500h319v-199h132c93 0 141 -51 148 -114c2 -19 2 -56 0 -74c-7 -63 -55 -113 -148 -113h-210v429h-167v-114c0 -143 -51 -259 -88 -315h-83c52 74 97 184 97 320v180zM628 186c-4 26 -20 45 -69 45h-133v-163h133c48 0 65 21 69 46c3 19 3 53 0 72z" />
    <glyph glyph-name="afii10107" unicode="&#x45a;" horiz-adv-x="783" 
d="M382 0v229h-234v-229h-78v500h78v-200h234v200h79v-199h132c93 0 141 -51 148 -114c2 -19 2 -56 0 -74c-7 -63 -55 -113 -148 -113h-211zM663 186c-4 26 -20 45 -69 45h-133v-163h133c48 0 65 21 69 46c3 19 3 53 0 72z" />
    <glyph glyph-name="afii10110" unicode="&#x45e;" horiz-adv-x="486" 
d="M104 700h74c0 -37 16 -69 66 -69c51 0 65 32 65 69h74c0 -76 -50 -127 -139 -127c-91 0 -140 51 -140 127zM185 20l-170 480h87l135 -397h4l147 397h83l-261 -680h-81l75 193z" />
    <glyph glyph-name="afii10145" unicode="&#x40f;" horiz-adv-x="656" 
d="M287 -150l-1 150h-206v700h84v-623h328v623h84v-700h-205l-1 -150h-83z" />
    <glyph glyph-name="afii10146" unicode="&#x462;" horiz-adv-x="632" 
d="M20 624v76h415v-77h-211v-206h182c114 0 176 -69 183 -157c3 -37 3 -73 0 -104c-8 -87 -69 -156 -183 -156h-266v623zM504 263c-3 41 -29 76 -96 76h-184v-261h184c67 0 92 34 96 76c3 34 3 70 0 109z" />
    <glyph glyph-name="afii10147" unicode="&#x472;" horiz-adv-x="643" 
d="M576 482c2 -88 2 -176 0 -264c-3 -125 -103 -228 -254 -228c-154 0 -252 103 -255 228c-2 88 -2 176 0 264c3 125 103 228 255 228c153 0 251 -103 254 -228zM490 217c1 37 1 74 1 111c-25 -22 -58 -41 -98 -41c-65 0 -98 63 -153 63c-37 0 -69 -30 -91 -59
c0 -23 1 -51 2 -74c2 -80 62 -152 171 -152c106 0 166 72 168 152zM245 420c65 0 98 -63 153 -63c36 0 72 31 93 60c0 21 -1 45 -1 66c-2 80 -60 152 -168 152c-107 0 -169 -72 -171 -152c-1 -35 -2 -69 -2 -104c25 22 56 41 96 41z" />
    <glyph glyph-name="afii10195" unicode="&#x473;" horiz-adv-x="514" 
d="M452 152c-3 -90 -77 -162 -194 -162c-127 0 -193 72 -196 162c-2 65 -2 131 0 196c3 89 69 162 196 162c117 0 191 -73 194 -162c2 -65 2 -131 0 -196zM374 156l2 54c-14 -10 -31 -16 -52 -16c-52 0 -95 48 -140 48c-22 0 -34 -14 -46 -30c0 0 1 -37 2 -56
c3 -53 44 -95 118 -95c73 0 113 42 116 95zM188 308c52 0 96 -49 141 -49c22 0 34 14 46 31c0 1 0 36 -1 54c-3 53 -43 95 -117 95c-73 0 -114 -42 -117 -95c-1 -18 -2 -33 -2 -51c13 9 30 15 50 15z" />
    <glyph glyph-name="afii10194" unicode="&#x463;" horiz-adv-x="474" 
d="M354 186c-4 26 -20 45 -69 45h-137v-163h137c48 0 65 21 69 46c3 19 3 53 0 72zM148 510v-209h136c93 0 141 -51 148 -114c2 -19 2 -56 0 -74c-7 -63 -55 -113 -148 -113h-214v510h-52v67h52v123h78v-123h114v-67h-114z" />
    <glyph glyph-name="afii10846" unicode="&#x4d9;" horiz-adv-x="487" 
d="M79 419l-10 67s59 24 170 24c119 0 182 -72 186 -162c1 -32 2 -65 2 -98s-1 -65 -2 -98c-4 -89 -72 -162 -186 -162c-111 0 -184 73 -184 162v128h293s0 41 -1 62c-2 51 -40 97 -107 97c-81 0 -161 -20 -161 -20zM347 158c1 16 1 51 1 51h-216s0 -35 1 -51
c2 -52 44 -97 104 -97c69 0 107 44 110 97z" />
    <glyph glyph-name="afii10193" unicode="&#x45f;" horiz-adv-x="535" 
d="M230 -104l-1 104h-159v500h78v-429h239v429h78v-500h-158l-1 -104h-76z" />
    <glyph glyph-name="afii10196" unicode="&#x475;" horiz-adv-x="456" 
d="M396 402l-110 -402h-118l-153 500h82l131 -447l91 358c15 59 46 99 118 99c34 0 54 -7 54 -7l-4 -65s-27 6 -51 6c-21 0 -32 -12 -40 -42z" />
    <glyph glyph-name="afii10148" unicode="&#x474;" horiz-adv-x="587" 
d="M506 566l-149 -566h-127l-210 700h87l184 -624h5l126 497c21 82 56 137 144 137c39 0 62 -9 62 -9l-5 -75s-26 6 -58 6c-34 0 -45 -14 -59 -66z" />
    <glyph glyph-name="t_y" unicode="&#xfb12;" horiz-adv-x="757" 
d="M456 20l-145 409h-137v-295c0 -54 19 -73 53 -73c47 0 83 6 83 6l5 -68s-48 -9 -94 -9c-86 0 -125 57 -125 130v309h-76v71h76v120h78v-120h199l135 -397h4l147 397h83l-261 -680h-81l75 193z" />
    <glyph glyph-name="uni1E02" unicode="&#x1e02;" horiz-adv-x="590" 
d="M333 700c131 0 195 -71 195 -184c0 -116 -84 -150 -84 -150s96 -34 96 -165c0 -127 -65 -201 -229 -201h-231v700h253zM344 623h-180v-221h168c68 0 115 39 115 112c0 65 -35 109 -103 109zM164 326v-249h152c111 0 140 40 140 124c0 67 -28 125 -124 125h-168zM254 790
v98h82v-98h-82z" />
    <glyph glyph-name="uni1E03" unicode="&#x1e03;" horiz-adv-x="517" 
d="M70 15v685h77v-231s70 38 143 38c110 0 162 -70 165 -159c2 -65 2 -131 0 -196c-3 -90 -60 -162 -184 -162c-104 0 -201 25 -201 25zM377 158c2 61 2 123 0 184c-2 50 -29 94 -89 94c-65 0 -141 -42 -141 -42v-321s44 -12 124 -12c70 0 104 47 106 97zM217 791v98h82v-98
h-82z" />
    <glyph glyph-name="uni1E0A" unicode="&#x1e0a;" horiz-adv-x="622" 
d="M75 0v700h225c152 0 252 -93 255 -218c2 -88 2 -176 0 -264c-3 -125 -101 -218 -255 -218h-225zM300 622h-141v-544h141c108 0 167 61 169 140c2 88 2 176 0 264c-2 79 -63 140 -169 140zM246 790v98h82v-98h-82z" />
    <glyph glyph-name="uni1E0B" unicode="&#x1e0b;" horiz-adv-x="517" 
d="M447 700v-700h-72l-5 35s-72 -45 -145 -45c-110 0 -160 70 -163 159c-2 65 -2 131 0 196c3 90 60 164 184 164c58 0 124 -20 124 -20v211h77zM140 339c-2 -61 -2 -123 0 -184c2 -50 27 -94 87 -94c65 0 143 49 143 49v306s-44 22 -124 22c-70 0 -104 -49 -106 -99z
M217 791v98h82v-98h-82z" />
    <glyph glyph-name="uni1E1E" unicode="&#x1e1e;" horiz-adv-x="553" 
d="M80 700h438v-78h-354v-232h323v-78h-323v-312h-84v700zM252 790v98h82v-98h-82z" />
    <glyph glyph-name="uni1E1F" unicode="&#x1e1f;" horiz-adv-x="341" 
d="M20 429v71h76v72c0 81 49 138 137 138c39 0 98 -9 98 -9l-5 -68s-47 6 -94 6c-34 0 -58 -19 -58 -73v-66h143v-71h-143v-429h-78v429h-76zM129 790v98h82v-98h-82z" />
    <glyph glyph-name="uni1E40" unicode="&#x1e40;" horiz-adv-x="759" 
d="M679 700v-700h-84v531l3 57l-31 -64l-143 -240h-89l-143 240l-31 64l3 -57v-531h-84v700h100l199 -344l200 344h100zM338 790v98h82v-98h-82z" />
    <glyph glyph-name="uni1E41" unicode="&#x1e41;" horiz-adv-x="740" 
d="M413 0h-78v356c0 42 -25 83 -72 83c-54 0 -116 -49 -116 -49v-390h-77v500h73l4 -37s64 47 128 47c71 0 108 -58 108 -58s65 58 136 58c92 0 156 -61 156 -162v-348h-78v342c0 58 -34 97 -82 97c-50 0 -102 -47 -102 -47v-392zM329 590v98h82v-98h-82z" />
    <glyph glyph-name="uni1E56" unicode="&#x1e56;" horiz-adv-x="572" 
d="M80 0v700h270c114 0 174 -69 179 -156c3 -48 3 -96 0 -144c-5 -88 -65 -157 -179 -157h-186v-243h-84zM444 397c3 49 3 100 0 149c-3 42 -25 76 -92 76h-188v-301h188c67 0 89 35 92 76zM245 790v98h82v-98h-82z" />
    <glyph glyph-name="uni1E57" unicode="&#x1e57;" horiz-adv-x="517" 
d="M70 -180v680h72l5 -35s72 45 145 45c110 0 160 -69 163 -158c2 -65 2 -131 0 -196c-3 -90 -60 -164 -184 -164c-58 0 -124 19 -124 19v-191h-77zM377 162c2 61 2 123 0 184c-2 50 -27 93 -87 93c-65 0 -143 -49 -143 -49v-306s44 -21 124 -21c70 0 104 49 106 99z
M217 590v98h82v-98h-82z" />
    <glyph glyph-name="uni1E60" unicode="&#x1e60;" horiz-adv-x="578" 
d="M486 687l-4 -74s-108 19 -192 19c-85 0 -149 -29 -149 -109c0 -188 392 -65 392 -334c0 -127 -76 -199 -258 -199c-110 0 -208 25 -208 25l4 75s101 -22 197 -22c133 0 179 33 179 113c0 197 -392 71 -392 339c0 133 101 190 235 190c122 0 196 -23 196 -23zM248 790v98
h82v-98h-82z" />
    <glyph glyph-name="uni1E61" unicode="&#x1e61;" horiz-adv-x="441" 
d="M362 423l8 69s-65 18 -148 18c-99 0 -172 -43 -172 -142c0 -190 272 -112 272 -234c0 -49 -29 -73 -114 -73c-67 0 -143 21 -143 21l-10 -68s74 -24 158 -24c132 0 188 54 188 149c0 190 -273 116 -273 231c0 49 42 69 94 69c63 0 140 -16 140 -16zM179 590v98h82v-98
h-82z" />
    <glyph glyph-name="uni1E6A" unicode="&#x1e6a;" horiz-adv-x="505" 
d="M20 622v78h465v-78h-191v-622h-84v622h-190zM211 790v98h82v-98h-82z" />
    <glyph glyph-name="uni1E6B" unicode="&#x1e6b;" horiz-adv-x="337" 
d="M20 429v71h76v120h78v-120h143v-71h-143v-295c0 -54 19 -73 53 -73c47 0 83 6 83 6l5 -68s-48 -9 -94 -9c-86 0 -125 57 -125 130v309h-76zM91 790v98h82v-98h-82z" />
    <glyph glyph-name="f_f" unicode="&#xfb00;" horiz-adv-x="635" 
d="M174 429v-429h-78v429h-76v71h76v72c0 81 49 138 137 138c39 0 98 -9 98 -9l-5 -68s-47 6 -94 6c-34 0 -58 -19 -58 -73v-66h216v72c0 81 49 138 137 138c39 0 98 -9 98 -9l-5 -68s-47 6 -94 6c-34 0 -58 -19 -58 -73v-66h143v-71h-143v-429h-78v429h-216z" />
    <glyph glyph-name="f_f_i" unicode="&#xfb03;" horiz-adv-x="835" 
d="M20 429v71h76v72c0 81 49 138 137 138c39 0 98 -9 98 -9l-5 -68s-47 6 -94 6c-34 0 -58 -19 -58 -73v-66h216v72c0 81 49 138 137 138c39 0 98 -9 98 -9l-5 -68s-47 6 -94 6c-34 0 -58 -19 -58 -73v-66h294v-500h-78v429h-216v-429h-78v429h-216v-429h-78v429h-76z
M682 602v98h83v-98h-83z" />
    <glyph glyph-name="f_f_l" unicode="&#xfb04;" horiz-adv-x="831" 
d="M20 429v71h76v72c0 81 49 138 137 138c39 0 98 -9 98 -9l-5 -68s-47 6 -94 6c-34 0 -58 -19 -58 -73v-66h216v72c0 81 49 138 137 138c72 0 233 -10 234 -10v-700h-77v634s-99 5 -158 5c-34 0 -58 -19 -58 -73v-66h143v-71h-143v-429h-78v429h-216v-429h-78v429h-76z" />
    <glyph glyph-name="Acutesmall" unicode="&#xf7b4;" horiz-adv-x="222" 
d="M82 592h-82l109 138h114z" />
    <glyph glyph-name="Brevesmall" unicode="&#xf6f4;" horiz-adv-x="279" 
d="M0 730h74c0 -29 21 -58 66 -58c46 0 65 29 65 58h74c0 -71 -55 -127 -139 -127c-86 0 -140 56 -140 127z" />
    <glyph glyph-name="Caronsmall" unicode="&#xf6f5;" horiz-adv-x="290" 
d="M0 730h72l71 -75l74 75h73l-105 -138h-82z" />
    <glyph glyph-name="Cedillasmall" unicode="&#xf7b8;" horiz-adv-x="222" 
d="M222 -109c0 -57 -34 -81 -85 -81c-39 0 -77 6 -77 6l3 43s35 -4 59 -4c25 0 40 11 40 36c0 22 -15 30 -40 30h-40l17 79h55l-8 -40c42 0 76 -12 76 -69z" />
    <glyph glyph-name="Circumflexsmall" unicode="&#xf6f6;" horiz-adv-x="290" 
d="M72 592h-72l103 138h82l105 -138h-73l-74 75z" />
    <glyph glyph-name="commaaccent.small" unicode="&#xf635;" horiz-adv-x="85" 
d="M0 -133v88h85v-80c0 -104 -60 -117 -95 -117v35c31 0 45 25 45 58c0 8 -1 16 -1 16h-34z" />
    <glyph glyph-name="Dieresissmall" unicode="&#xf7a8;" horiz-adv-x="252" 
d="M0 620v98h82v-98h-82zM170 620v98h82v-98h-82z" />
    <glyph glyph-name="Dotaccentsmall" unicode="&#xf6f7;" horiz-adv-x="82" 
d="M0 620v98h82v-98h-82z" />
    <glyph glyph-name="Hungarumlautsmall" unicode="&#xf6f8;" horiz-adv-x="417" 
d="M82 592h-82l109 138h114zM276 592h-83l110 138h114z" />
    <glyph glyph-name="Gravesmall" unicode="&#xf760;" horiz-adv-x="223" 
d="M223 592h-82l-141 138h114z" />
    <glyph glyph-name="dblGrave.small" horiz-adv-x="424" 
d="M230 592h-89l-141 138h114zM424 592h-89l-141 138h114z" />
    <glyph glyph-name="Macronsmall" unicode="&#xf7af;" horiz-adv-x="302" 
d="M0 624v71h302v-71h-302z" />
    <glyph glyph-name="Ogoneksmall" unicode="&#xf6fb;" horiz-adv-x="157" 
d="M149 -119l8 -57s-38 -13 -71 -13c-56 0 -86 41 -86 82c0 61 77 107 77 107h79s-85 -49 -85 -99c0 -15 15 -26 31 -26c23 0 47 6 47 6z" />
    <glyph glyph-name="Ringsmall" unicode="&#xf6fc;" horiz-adv-x="174" 
d="M0 660c0 49 37 85 86 85c48 0 88 -36 88 -85c0 -48 -40 -84 -88 -84c-49 0 -86 36 -86 84zM51 661c0 -20 14 -35 35 -35s36 15 36 35c0 21 -15 36 -36 36s-35 -15 -35 -36z" />
    <glyph glyph-name="Tildesmall" unicode="&#xf6fe;" horiz-adv-x="311" 
d="M70 609h-70c0 51 39 105 91 105c47 0 94 -42 125 -42c15 0 23 22 23 36h72c0 -51 -38 -105 -89 -105c-47 0 -95 42 -125 42c-16 0 -25 -20 -27 -36z" />
    <glyph glyph-name="Aacutesmall" unicode="&#xf7e1;" horiz-adv-x="514" 
d="M203 537h108l183 -537h-81l-49 147h-215l-48 -147h-81zM341 218l-85 254l-83 -254h168zM294 592h-82l109 138h114z" />
    <glyph glyph-name="Abreve.small" unicode="&#xf66d;" horiz-adv-x="514" 
d="M203 537h108l183 -537h-81l-49 147h-215l-48 -147h-81zM341 218l-85 254l-83 -254h168zM111 730h74c0 -29 21 -58 66 -58c46 0 65 29 65 58h74c0 -71 -55 -127 -139 -127c-86 0 -140 56 -140 127z" />
    <glyph glyph-name="Acircumflexsmall" unicode="&#xf7e2;" horiz-adv-x="514" 
d="M203 537h108l183 -537h-81l-49 147h-215l-48 -147h-81zM341 218l-85 254l-83 -254h168zM184 592h-72l103 138h82l105 -138h-73l-74 75z" />
    <glyph glyph-name="Adieresissmall" unicode="&#xf7e4;" horiz-adv-x="514" 
d="M203 537h108l183 -537h-81l-49 147h-215l-48 -147h-81zM341 218l-85 254l-83 -254h168zM128 620v98h82v-98h-82zM298 620v98h82v-98h-82z" />
    <glyph glyph-name="Agravesmall" unicode="&#xf7e0;" horiz-adv-x="514" 
d="M203 537h108l183 -537h-81l-49 147h-215l-48 -147h-81zM341 218l-85 254l-83 -254h168zM292 592h-82l-141 138h114z" />
    <glyph glyph-name="Amacron.small" unicode="&#xf66e;" horiz-adv-x="514" 
d="M203 537h108l183 -537h-81l-49 147h-215l-48 -147h-81zM341 218l-85 254l-83 -254h168zM106 624v71h302v-71h-302z" />
    <glyph glyph-name="Aogonek.small" unicode="&#xf66f;" horiz-adv-x="514" 
d="M487 -119l8 -57s-38 -13 -71 -13c-56 0 -86 41 -86 82c0 61 75 107 75 107l-49 147h-215l-48 -147h-81l183 537h108l183 -537s-85 -49 -85 -99c0 -15 15 -26 31 -26c23 0 47 6 47 6zM341 218l-85 254l-83 -254h168z" />
    <glyph glyph-name="Aringsmall" unicode="&#xf7e5;" horiz-adv-x="514" 
d="M203 537h108l183 -537h-81l-49 147h-215l-48 -147h-81zM341 218l-85 254l-83 -254h168zM170 660c0 49 37 85 86 85c48 0 88 -36 88 -85c0 -48 -40 -84 -88 -84c-49 0 -86 36 -86 84zM221 661c0 -20 14 -35 35 -35s36 15 36 35c0 21 -15 36 -36 36s-35 -15 -35 -36z" />
    <glyph glyph-name="Atildesmall" unicode="&#xf7e3;" horiz-adv-x="514" 
d="M203 537h108l183 -537h-81l-49 147h-215l-48 -147h-81zM341 218l-85 254l-83 -254h168zM168 609h-70c0 51 39 105 91 105c47 0 94 -42 125 -42c15 0 23 22 23 36h72c0 -51 -38 -105 -89 -105c-47 0 -95 42 -125 42c-16 0 -25 -20 -27 -36z" />
    <glyph glyph-name="AEsmall" unicode="&#xf7e6;" horiz-adv-x="785" 
d="M323 537h403v-70h-277v-154h251v-70h-251v-173h286v-70h-362v147h-202l-90 -147h-81zM363 467l-150 -249h160v249h-10z" />
    <glyph glyph-name="AEacute.small" unicode="&#xf670;" horiz-adv-x="785" 
d="M323 537h403v-70h-277v-154h251v-70h-251v-173h286v-70h-362v147h-202l-90 -147h-81zM363 467l-150 -249h160v249h-10zM488 592h-82l109 138h114z" />
    <glyph glyph-name="Cacute.small" unicode="&#xf671;" horiz-adv-x="462" 
d="M422 80l5 -71s-86 -19 -152 -19c-126 0 -210 83 -213 178c-2 66 -2 134 0 201c3 96 89 178 213 178c69 0 148 -18 148 -18l-6 -69s-93 16 -142 16c-83 0 -132 -51 -134 -107c-3 -67 -3 -136 0 -201c2 -58 49 -107 134 -107c48 0 147 19 147 19zM306 592h-82l109 138h114z
" />
    <glyph glyph-name="Ccaron.small" unicode="&#xf672;" horiz-adv-x="462" 
d="M422 80l5 -71s-86 -19 -152 -19c-126 0 -210 83 -213 178c-2 66 -2 134 0 201c3 96 89 178 213 178c69 0 148 -18 148 -18l-6 -69s-93 16 -142 16c-83 0 -132 -51 -134 -107c-3 -67 -3 -136 0 -201c2 -58 49 -107 134 -107c48 0 147 19 147 19zM122 730h72l71 -75l74 75
h73l-105 -138h-82z" />
    <glyph glyph-name="Ccedillasmall" unicode="&#xf7e7;" horiz-adv-x="462" 
d="M369 -109c0 -57 -34 -81 -85 -81c-39 0 -77 6 -77 6l3 43s35 -4 59 -4c25 0 40 11 40 36c0 22 -15 30 -40 30h-40l15 71c-109 12 -180 89 -182 176c-2 66 -2 134 0 201c3 96 89 178 213 178c69 0 148 -18 148 -18l-6 -69s-93 16 -142 16c-83 0 -132 -51 -134 -107
c-3 -67 -3 -136 0 -201c2 -58 49 -107 134 -107c48 0 147 19 147 19l5 -71s-67 -15 -128 -18l-6 -31c42 0 76 -12 76 -69z" />
    <glyph glyph-name="Ccircumflex.small" unicode="&#xf673;" horiz-adv-x="462" 
d="M422 80l5 -71s-86 -19 -152 -19c-126 0 -210 83 -213 178c-2 66 -2 134 0 201c3 96 89 178 213 178c69 0 148 -18 148 -18l-6 -69s-93 16 -142 16c-83 0 -132 -51 -134 -107c-3 -67 -3 -136 0 -201c2 -58 49 -107 134 -107c48 0 147 19 147 19zM200 592h-72l103 138h82
l105 -138h-73l-74 75z" />
    <glyph glyph-name="Cdotaccent.small" unicode="&#xf674;" horiz-adv-x="462" 
d="M422 80l5 -71s-86 -19 -152 -19c-126 0 -210 83 -213 178c-2 66 -2 134 0 201c3 96 89 178 213 178c69 0 148 -18 148 -18l-6 -69s-93 16 -142 16c-83 0 -132 -51 -134 -107c-3 -67 -3 -136 0 -201c2 -58 49 -107 134 -107c48 0 147 19 147 19zM228 620v98h82v-98h-82z
" />
    <glyph glyph-name="Dcaron.small" unicode="&#xf675;" horiz-adv-x="531" 
d="M70 0v537h186c136 0 210 -75 213 -170c2 -66 2 -134 0 -199c-3 -94 -77 -168 -213 -168h-186zM256 467h-110v-397h110c86 0 134 41 135 98c2 65 2 133 0 199c-1 58 -48 100 -135 100zM92 730h72l71 -75l74 75h73l-105 -138h-82z" />
    <glyph glyph-name="Dcroat.small" unicode="&#xf676;" horiz-adv-x="531" 
d="M20 305h50v232h186c136 0 210 -75 213 -170c2 -66 2 -134 0 -199c-3 -94 -77 -168 -213 -168h-186v242h-50v63zM256 467h-110v-162h107v-63h-107v-172h110c86 0 134 41 135 98c2 65 2 133 0 199c-1 58 -48 100 -135 100z" />
    <glyph glyph-name="Eacutesmall" unicode="&#xf7e9;" horiz-adv-x="494" 
d="M70 537h365v-70h-289v-154h263v-70h-263v-173h298v-70h-374v537zM284 592h-82l109 138h114z" />
    <glyph glyph-name="Ebreve.small" unicode="&#xf677;" horiz-adv-x="494" 
d="M70 537h365v-70h-289v-154h263v-70h-263v-173h298v-70h-374v537zM113 730h74c0 -29 21 -58 66 -58c46 0 65 29 65 58h74c0 -71 -55 -127 -139 -127c-86 0 -140 56 -140 127z" />
    <glyph glyph-name="Ecaron.small" unicode="&#xf678;" horiz-adv-x="494" 
d="M70 537h365v-70h-289v-154h263v-70h-263v-173h298v-70h-374v537zM112 730h72l71 -75l74 75h73l-105 -138h-82z" />
    <glyph glyph-name="Ecircumflexsmall" unicode="&#xf7ea;" horiz-adv-x="494" 
d="M70 537h365v-70h-289v-154h263v-70h-263v-173h298v-70h-374v537zM176 592h-72l103 138h82l105 -138h-73l-74 75z" />
    <glyph glyph-name="Edieresissmall" unicode="&#xf7eb;" horiz-adv-x="494" 
d="M70 537h365v-70h-289v-154h263v-70h-263v-173h298v-70h-374v537zM133 620v98h82v-98h-82zM303 620v98h82v-98h-82z" />
    <glyph glyph-name="Edotaccent.small" unicode="&#xf679;" horiz-adv-x="494" 
d="M70 537h365v-70h-289v-154h263v-70h-263v-173h298v-70h-374v537zM225 620v98h82v-98h-82z" />
    <glyph glyph-name="Egravesmall" unicode="&#xf7e8;" horiz-adv-x="494" 
d="M70 537h365v-70h-289v-154h263v-70h-263v-173h298v-70h-374v537zM307 592h-82l-141 138h114z" />
    <glyph glyph-name="Emacron.small" unicode="&#xf67a;" horiz-adv-x="494" 
d="M70 537h365v-70h-289v-154h263v-70h-263v-173h298v-70h-374v537zM99 624v71h302v-71h-302z" />
    <glyph glyph-name="Eogonek.small" unicode="&#xf67c;" horiz-adv-x="494" 
d="M437 -119l8 -57s-38 -13 -71 -13c-56 0 -86 41 -86 82c0 61 77 107 77 107h-295v537h365v-70h-289v-154h263v-70h-263v-173h298v-70s-85 -49 -85 -99c0 -15 15 -26 31 -26c23 0 47 6 47 6z" />
    <glyph glyph-name="Gbreve.small" unicode="&#xf67d;" horiz-adv-x="524" 
d="M280 208v70h184v-259s-96 -29 -190 -29c-126 0 -209 84 -212 178c-2 68 -2 133 0 201c3 95 88 178 212 178c101 0 179 -20 179 -20l-5 -69s-91 18 -174 18s-130 -51 -133 -107c-3 -64 -3 -139 0 -201c3 -57 48 -108 133 -108c61 0 115 13 115 13v135h-109zM130 730h74
c0 -29 21 -58 66 -58c46 0 65 29 65 58h74c0 -71 -55 -127 -139 -127c-86 0 -140 56 -140 127z" />
    <glyph glyph-name="Gcircumflex.small" unicode="&#xf67e;" horiz-adv-x="524" 
d="M280 208v70h184v-259s-96 -29 -190 -29c-126 0 -209 84 -212 178c-2 68 -2 133 0 201c3 95 88 178 212 178c101 0 179 -20 179 -20l-5 -69s-91 18 -174 18s-130 -51 -133 -107c-3 -64 -3 -139 0 -201c3 -57 48 -108 133 -108c61 0 115 13 115 13v135h-109zM201 592h-72
l103 138h82l105 -138h-73l-74 75z" />
    <glyph glyph-name="Gcommaaccent.small" unicode="&#xf67f;" horiz-adv-x="524" 
d="M280 208v70h184v-259s-96 -29 -190 -29c-126 0 -209 84 -212 178c-2 68 -2 133 0 201c3 95 88 178 212 178c101 0 179 -20 179 -20l-5 -69s-91 18 -174 18s-130 -51 -133 -107c-3 -64 -3 -139 0 -201c3 -57 48 -108 133 -108c61 0 115 13 115 13v135h-109zM234 -133v88
h85v-80c0 -104 -60 -117 -95 -117v35c31 0 45 25 45 58c0 8 -1 16 -1 16h-34z" />
    <glyph glyph-name="Gdotaccent.small" unicode="&#xf680;" horiz-adv-x="524" 
d="M280 208v70h184v-259s-96 -29 -190 -29c-126 0 -209 84 -212 178c-2 68 -2 133 0 201c3 95 88 178 212 178c101 0 179 -20 179 -20l-5 -69s-91 18 -174 18s-130 -51 -133 -107c-3 -64 -3 -139 0 -201c3 -57 48 -108 133 -108c61 0 115 13 115 13v135h-109zM229 620v98h82
v-98h-82z" />
    <glyph glyph-name="Hbar.small" unicode="&#xf681;" horiz-adv-x="552" 
d="M35 392v69h35v76h76v-76h260v76h76v-76h35v-69h-35v-392h-76v243h-260v-243h-76v392h-35zM146 313h260v79h-260v-79z" />
    <glyph glyph-name="Hcircumflex.small" unicode="&#xf682;" horiz-adv-x="552" 
d="M406 537h76v-537h-76v243h-260v-243h-76v537h76v-224h260v224zM200 592h-72l103 138h82l105 -138h-73l-74 75z" />
    <glyph glyph-name="Iacutesmall" unicode="&#xf7ed;" horiz-adv-x="218" 
d="M148 537v-537h-78v537h78zM146 592h-82l109 138h114z" />
    <glyph glyph-name="Ibreve.small" unicode="&#xf683;" horiz-adv-x="218" 
d="M148 537v-537h-78v537h78zM-32 730h74c0 -29 21 -58 66 -58c46 0 65 29 65 58h74c0 -71 -55 -127 -139 -127c-86 0 -140 56 -140 127z" />
    <glyph glyph-name="Icircumflexsmall" unicode="&#xf7ee;" horiz-adv-x="218" 
d="M148 537v-537h-78v537h78zM42 592h-72l103 138h82l105 -138h-73l-74 75z" />
    <glyph glyph-name="Idieresissmall" unicode="&#xf7ef;" horiz-adv-x="218" 
d="M148 537v-537h-78v537h78zM-17 620v98h82v-98h-82zM153 620v98h82v-98h-82z" />
    <glyph glyph-name="Idotaccent.small" unicode="&#xf6ad;" horiz-adv-x="218" 
d="M148 537v-537h-78v537h78zM68 620v98h82v-98h-82z" />
    <glyph glyph-name="Igravesmall" unicode="&#xf7ec;" horiz-adv-x="218" 
d="M148 537v-537h-78v537h78zM151 592h-82l-141 138h114z" />
    <glyph glyph-name="Imacron.small" unicode="&#xf685;" horiz-adv-x="218" 
d="M148 537v-537h-78v537h78zM-42 624v71h302v-71h-302z" />
    <glyph glyph-name="Iogonek.small" unicode="&#xf686;" horiz-adv-x="218" 
d="M141 -119l8 -57s-38 -13 -71 -13c-56 0 -86 41 -86 82c0 61 78 107 78 107v537h78v-537s-85 -49 -85 -99c0 -15 15 -26 31 -26c23 0 47 6 47 6z" />
    <glyph glyph-name="Itilde.small" unicode="&#xf687;" horiz-adv-x="218" 
d="M148 537v-537h-78v537h78zM23 609h-70c0 51 39 105 91 105c47 0 94 -42 125 -42c15 0 23 22 23 36h72c0 -51 -38 -105 -89 -105c-47 0 -95 42 -125 42c-16 0 -25 -20 -27 -36z" />
    <glyph glyph-name="IJ.small" unicode="&#xf684;" horiz-adv-x="451" 
d="M148 537v-537h-78v537h78zM202 -1l2 60s32 -1 52 -1c48 0 48 33 48 79v400h77v-422c0 -94 -54 -125 -112 -125c-33 0 -67 9 -67 9z" />
    <glyph glyph-name="Jcircumflex.small" unicode="&#xf688;" horiz-adv-x="264" 
d="M15 -1l2 60s32 -1 52 -1c48 0 48 33 48 79v400h77v-422c0 -94 -54 -125 -112 -125c-33 0 -67 9 -67 9zM82 592h-72l103 138h82l105 -138h-73l-74 75z" />
    <glyph glyph-name="Kcommaaccent.small" unicode="&#xf689;" horiz-adv-x="485" 
d="M146 537v-253l217 253h94l-223 -256l236 -281h-96l-228 277v-277h-76v537h76zM207 -133v88h85v-80c0 -104 -60 -117 -95 -117v35c31 0 45 25 45 58c0 8 -1 16 -1 16h-34z" />
    <glyph glyph-name="Lacute.small" unicode="&#xf68a;" horiz-adv-x="424" 
d="M70 537h78v-467h256v-70h-334v537zM145 592h-82l109 138h114z" />
    <glyph glyph-name="Lcaron.small" unicode="&#xf68b;" horiz-adv-x="424" 
d="M70 537h78v-467h256v-70h-334v537zM289 449v88h85v-80c0 -104 -60 -117 -95 -117v35c31 0 45 25 45 58c0 8 -1 16 -1 16h-34z" />
    <glyph glyph-name="Lcommaaccent.small" unicode="&#xf68c;" horiz-adv-x="424" 
d="M70 537h78v-467h256v-70h-334v537zM183 -133v88h85v-80c0 -104 -60 -117 -95 -117v35c31 0 45 25 45 58c0 8 -1 16 -1 16h-34z" />
    <glyph glyph-name="Ldot.small" unicode="&#xf68d;" horiz-adv-x="424" 
d="M70 537h78v-467h256v-70h-334v537zM289 242v98h82v-98h-82z" />
    <glyph glyph-name="Lslashsmall" unicode="&#xf6f9;" horiz-adv-x="424" 
d="M296 314l-148 -79v-165h256v-70h-334v194l-50 -26v71l50 26v272h78v-230l148 79v-72z" />
    <glyph glyph-name="Nacute.small" unicode="&#xf68e;" horiz-adv-x="556" 
d="M410 537h76v-537h-87l-241 393l-15 35l3 -43v-385h-76v537h87l242 -395l14 -33l-3 40v388zM302 592h-82l109 138h114z" />
    <glyph glyph-name="Ncaron.small" unicode="&#xf68f;" horiz-adv-x="556" 
d="M410 537h76v-537h-87l-241 393l-15 35l3 -43v-385h-76v537h87l242 -395l14 -33l-3 40v388zM126 730h72l71 -75l74 75h73l-105 -138h-82z" />
    <glyph glyph-name="Ncommaaccent.small" unicode="&#xf690;" horiz-adv-x="556" 
d="M410 537h76v-537h-87l-241 393l-15 35l3 -43v-385h-76v537h87l242 -395l14 -33l-3 40v388zM230 -133v88h85v-80c0 -104 -60 -117 -95 -117v35c31 0 45 25 45 58c0 8 -1 16 -1 16h-34z" />
    <glyph glyph-name="Ntildesmall" unicode="&#xf7f1;" horiz-adv-x="556" 
d="M410 537h76v-537h-87l-241 393l-15 35l3 -43v-385h-76v537h87l242 -395l14 -33l-3 40v388zM187 609h-70c0 51 39 105 91 105c47 0 94 -42 125 -42c15 0 23 22 23 36h72c0 -51 -38 -105 -89 -105c-47 0 -95 42 -125 42c-16 0 -25 -20 -27 -36z" />
    <glyph glyph-name="Oacutesmall" unicode="&#xf7f3;" horiz-adv-x="551" 
d="M489 369c2 -67 2 -135 0 -201c-3 -97 -88 -178 -213 -178c-127 0 -211 83 -214 178c-2 66 -2 134 0 201c3 96 89 178 214 178c127 0 210 -80 213 -178zM410 173c2 67 2 119 0 187c-2 58 -50 116 -134 116c-86 0 -134 -57 -136 -116c-2 -68 -2 -120 0 -187
c2 -60 47 -112 136 -112c84 0 132 52 134 112zM310 592h-82l109 138h114z" />
    <glyph glyph-name="Obreve.small" unicode="&#xf691;" horiz-adv-x="551" 
d="M489 369c2 -67 2 -135 0 -201c-3 -97 -88 -178 -213 -178c-127 0 -211 83 -214 178c-2 66 -2 134 0 201c3 96 89 178 214 178c127 0 210 -80 213 -178zM410 173c2 67 2 119 0 187c-2 58 -50 116 -134 116c-86 0 -134 -57 -136 -116c-2 -68 -2 -120 0 -187
c2 -60 47 -112 136 -112c84 0 132 52 134 112zM135 730h74c0 -29 21 -58 66 -58c46 0 65 29 65 58h74c0 -71 -55 -127 -139 -127c-86 0 -140 56 -140 127z" />
    <glyph glyph-name="Ocircumflexsmall" unicode="&#xf7f4;" horiz-adv-x="551" 
d="M489 369c2 -67 2 -135 0 -201c-3 -97 -88 -178 -213 -178c-127 0 -211 83 -214 178c-2 66 -2 134 0 201c3 96 89 178 214 178c127 0 210 -80 213 -178zM410 173c2 67 2 119 0 187c-2 58 -50 116 -134 116c-86 0 -134 -57 -136 -116c-2 -68 -2 -120 0 -187
c2 -60 47 -112 136 -112c84 0 132 52 134 112zM204 592h-72l103 138h82l105 -138h-73l-74 75z" />
    <glyph glyph-name="Odieresissmall" unicode="&#xf7f6;" horiz-adv-x="551" 
d="M489 369c2 -67 2 -135 0 -201c-3 -97 -88 -178 -213 -178c-127 0 -211 83 -214 178c-2 66 -2 134 0 201c3 96 89 178 214 178c127 0 210 -80 213 -178zM410 173c2 67 2 119 0 187c-2 58 -50 116 -134 116c-86 0 -134 -57 -136 -116c-2 -68 -2 -120 0 -187
c2 -60 47 -112 136 -112c84 0 132 52 134 112zM149 620v98h82v-98h-82zM319 620v98h82v-98h-82z" />
    <glyph glyph-name="Ogravesmall" unicode="&#xf7f2;" horiz-adv-x="551" 
d="M489 369c2 -67 2 -135 0 -201c-3 -97 -88 -178 -213 -178c-127 0 -211 83 -214 178c-2 66 -2 134 0 201c3 96 89 178 214 178c127 0 210 -80 213 -178zM410 173c2 67 2 119 0 187c-2 58 -50 116 -134 116c-86 0 -134 -57 -136 -116c-2 -68 -2 -120 0 -187
c2 -60 47 -112 136 -112c84 0 132 52 134 112zM315 592h-82l-141 138h114z" />
    <glyph glyph-name="Ohungarumlaut.small" unicode="&#xf692;" horiz-adv-x="551" 
d="M489 369c2 -67 2 -135 0 -201c-3 -97 -88 -178 -213 -178c-127 0 -211 83 -214 178c-2 66 -2 134 0 201c3 96 89 178 214 178c127 0 210 -80 213 -178zM410 173c2 67 2 119 0 187c-2 58 -50 116 -134 116c-86 0 -134 -57 -136 -116c-2 -68 -2 -120 0 -187
c2 -60 47 -112 136 -112c84 0 132 52 134 112zM207 592h-82l109 138h114zM401 592h-82l109 138h114z" />
    <glyph glyph-name="Omacron.small" unicode="&#xf693;" horiz-adv-x="551" 
d="M489 369c2 -67 2 -135 0 -201c-3 -97 -88 -178 -213 -178c-127 0 -211 83 -214 178c-2 66 -2 134 0 201c3 96 89 178 214 178c127 0 210 -80 213 -178zM410 173c2 67 2 119 0 187c-2 58 -50 116 -134 116c-86 0 -134 -57 -136 -116c-2 -68 -2 -120 0 -187
c2 -60 47 -112 136 -112c84 0 132 52 134 112zM124 624v71h302v-71h-302z" />
    <glyph glyph-name="Otildesmall" unicode="&#xf7f5;" horiz-adv-x="551" 
d="M489 369c2 -67 2 -135 0 -201c-3 -97 -88 -178 -213 -178c-127 0 -211 83 -214 178c-2 66 -2 134 0 201c3 96 89 178 214 178c127 0 210 -80 213 -178zM410 173c2 67 2 119 0 187c-2 58 -50 116 -134 116c-86 0 -134 -57 -136 -116c-2 -68 -2 -120 0 -187
c2 -60 47 -112 136 -112c84 0 132 52 134 112zM194 609h-70c0 51 39 105 91 105c47 0 94 -42 125 -42c15 0 23 22 23 36h72c0 -51 -38 -105 -89 -105c-47 0 -95 42 -125 42c-16 0 -25 -20 -27 -36z" />
    <glyph glyph-name="Oslashsmall" unicode="&#xf7f8;" horiz-adv-x="551" 
d="M61 0l41 64c-25 29 -39 66 -40 104c-2 66 -2 134 0 201c3 96 89 178 214 178c47 0 88 -11 121 -30l13 20h80l-41 -63c25 -29 39 -66 40 -105c2 -67 2 -135 0 -201c-3 -97 -88 -178 -213 -178c-47 0 -88 12 -122 31l-13 -21h-80zM410 173c2 67 2 119 0 187
c-1 14 -4 27 -9 40l-208 -319c21 -13 49 -20 83 -20c84 0 132 52 134 112zM140 173c0 -14 3 -27 8 -39l208 320c-21 13 -48 22 -80 22c-86 0 -134 -57 -136 -116c-2 -68 -2 -120 0 -187z" />
    <glyph glyph-name="Oslashacute.small" unicode="&#xf694;" horiz-adv-x="551" 
d="M61 0l41 64c-25 29 -39 66 -40 104c-2 66 -2 134 0 201c3 96 89 178 214 178c47 0 88 -11 121 -30l13 20h80l-41 -63c25 -29 39 -66 40 -105c2 -67 2 -135 0 -201c-3 -97 -88 -178 -213 -178c-47 0 -88 12 -122 31l-13 -21h-80zM410 173c2 67 2 119 0 187
c-1 14 -4 27 -9 40l-208 -319c21 -13 49 -20 83 -20c84 0 132 52 134 112zM140 173c0 -14 3 -27 8 -39l208 320c-21 13 -48 22 -80 22c-86 0 -134 -57 -136 -116c-2 -68 -2 -120 0 -187zM307 592h-82l109 138h114z" />
    <glyph glyph-name="OEsmall" unicode="&#xf6fa;" horiz-adv-x="825" 
d="M415 537h351v-70h-275v-154h249v-70h-249v-173h284v-70h-360v39s-50 -49 -139 -49c-127 0 -211 83 -214 178c-2 66 -2 134 0 201c3 96 89 178 214 178c89 0 139 -48 139 -48v38zM410 173c2 67 2 119 0 187c-2 58 -50 116 -134 116c-86 0 -134 -57 -136 -116
c-2 -68 -2 -120 0 -187c2 -60 47 -112 136 -112c84 0 132 52 134 112z" />
    <glyph glyph-name="Racute.small" unicode="&#xf695;" horiz-adv-x="506" 
d="M374 0l-109 189h-119v-189h-76v537h223c97 0 147 -55 151 -123c2 -36 2 -63 0 -99c-3 -56 -39 -105 -96 -119l118 -196h-92zM365 312c2 36 2 66 0 102c-2 29 -19 53 -72 53h-147v-208h147c53 0 70 24 72 53zM257 592h-82l109 138h114z" />
    <glyph glyph-name="Rcaron.small" unicode="&#xf696;" horiz-adv-x="506" 
d="M374 0l-109 189h-119v-189h-76v537h223c97 0 147 -55 151 -123c2 -36 2 -63 0 -99c-3 -56 -39 -105 -96 -119l118 -196h-92zM365 312c2 36 2 66 0 102c-2 29 -19 53 -72 53h-147v-208h147c53 0 70 24 72 53zM93 730h72l71 -75l74 75h73l-105 -138h-82z" />
    <glyph glyph-name="Rcommaaccent.small" unicode="&#xf697;" horiz-adv-x="506" 
d="M374 0l-109 189h-119v-189h-76v537h223c97 0 147 -55 151 -123c2 -36 2 -63 0 -99c-3 -56 -39 -105 -96 -119l118 -196h-92zM365 312c2 36 2 66 0 102c-2 29 -19 53 -72 53h-147v-208h147c53 0 70 24 72 53zM203 -133v88h85v-80c0 -104 -60 -117 -95 -117v35
c31 0 45 25 45 58c0 8 -1 16 -1 16h-34z" />
    <glyph glyph-name="Sacute.small" unicode="&#xf698;" horiz-adv-x="495" 
d="M412 529l-4 -69s-92 16 -159 16c-69 0 -121 -17 -121 -75c0 -135 322 -49 322 -251c0 -104 -64 -160 -217 -160c-90 0 -175 20 -175 20l3 72s83 -21 162 -21c107 0 147 21 147 81c0 139 -320 43 -320 256c0 103 84 149 196 149c101 0 166 -18 166 -18zM276 592h-82
l109 138h114z" />
    <glyph glyph-name="Scaronsmall" unicode="&#xf6fd;" horiz-adv-x="495" 
d="M412 529l-4 -69s-92 16 -159 16c-69 0 -121 -17 -121 -75c0 -135 322 -49 322 -251c0 -104 -64 -160 -217 -160c-90 0 -175 20 -175 20l3 72s83 -21 162 -21c107 0 147 21 147 81c0 139 -320 43 -320 256c0 103 84 149 196 149c101 0 166 -18 166 -18zM98 730h72l71 -75
l74 75h73l-105 -138h-82z" />
    <glyph glyph-name="Scedilla.small" unicode="&#xf699;" horiz-adv-x="495" 
d="M331 -109c0 -57 -34 -81 -85 -81c-39 0 -77 6 -77 6l3 43s35 -4 59 -4c25 0 40 11 40 36c0 22 -15 30 -40 30h-40l15 70c-80 3 -148 19 -148 19l3 72s83 -21 162 -21c107 0 147 21 147 81c0 139 -320 43 -320 256c0 103 84 149 196 149c101 0 166 -18 166 -18l-4 -69
s-92 16 -159 16c-69 0 -121 -17 -121 -75c0 -135 322 -49 322 -251c0 -98 -56 -152 -189 -159l-6 -31c42 0 76 -12 76 -69z" />
    <glyph glyph-name="Scircumflex.small" unicode="&#xf69a;" horiz-adv-x="495" 
d="M412 529l-4 -69s-92 16 -159 16c-69 0 -121 -17 -121 -75c0 -135 322 -49 322 -251c0 -104 -64 -160 -217 -160c-90 0 -175 20 -175 20l3 72s83 -21 162 -21c107 0 147 21 147 81c0 139 -320 43 -320 256c0 103 84 149 196 149c101 0 166 -18 166 -18zM175 592h-72
l103 138h82l105 -138h-73l-74 75z" />
    <glyph glyph-name="Scommaaccent.small" unicode="&#xf69b;" horiz-adv-x="495" 
d="M412 529l-4 -69s-92 16 -159 16c-69 0 -121 -17 -121 -75c0 -135 322 -49 322 -251c0 -104 -64 -160 -217 -160c-90 0 -175 20 -175 20l3 72s83 -21 162 -21c107 0 147 21 147 81c0 139 -320 43 -320 256c0 103 84 149 196 149c101 0 166 -18 166 -18zM194 -133v88h85
v-80c0 -104 -60 -117 -95 -117v35c31 0 45 25 45 58c0 8 -1 16 -1 16h-34z" />
    <glyph glyph-name="Tcaron.small" unicode="&#xf69d;" horiz-adv-x="418" 
d="M15 467v70h388v-70h-155v-467h-78v467h-155zM63 730h72l71 -75l74 75h73l-105 -138h-82z" />
    <glyph glyph-name="Tbar.small" unicode="&#xf69c;" horiz-adv-x="418" 
d="M65 259v67h105v141h-155v70h388v-70h-155v-141h105v-67h-105v-259h-78v259h-105z" />
    <glyph glyph-name="Tcommaaccent.small" unicode="&#xf69e;" horiz-adv-x="418" 
d="M15 467v70h388v-70h-155v-467h-78v467h-155zM168 -133v88h85v-80c0 -104 -60 -117 -95 -117v35c31 0 45 25 45 58c0 8 -1 16 -1 16h-34z" />
    <glyph glyph-name="Uacutesmall" unicode="&#xf7fa;" horiz-adv-x="557" 
d="M65 537h78v-364c0 -60 47 -112 136 -112c84 0 134 52 134 112v364h79v-369c0 -97 -88 -178 -213 -178c-127 0 -214 83 -214 178v369zM306 592h-82l109 138h114z" />
    <glyph glyph-name="Ubreve.small" unicode="&#xf69f;" horiz-adv-x="557" 
d="M65 537h78v-364c0 -60 47 -112 136 -112c84 0 134 52 134 112v364h79v-369c0 -97 -88 -178 -213 -178c-127 0 -214 83 -214 178v369zM137 730h74c0 -29 21 -58 66 -58c46 0 65 29 65 58h74c0 -71 -55 -127 -139 -127c-86 0 -140 56 -140 127z" />
    <glyph glyph-name="Ucircumflexsmall" unicode="&#xf7fb;" horiz-adv-x="557" 
d="M65 537h78v-364c0 -60 47 -112 136 -112c84 0 134 52 134 112v364h79v-369c0 -97 -88 -178 -213 -178c-127 0 -214 83 -214 178v369zM207 592h-72l103 138h82l105 -138h-73l-74 75z" />
    <glyph glyph-name="Udieresissmall" unicode="&#xf7fc;" horiz-adv-x="557" 
d="M65 537h78v-364c0 -60 47 -112 136 -112c84 0 134 52 134 112v364h79v-369c0 -97 -88 -178 -213 -178c-127 0 -214 83 -214 178v369zM154 620v98h82v-98h-82zM324 620v98h82v-98h-82z" />
    <glyph glyph-name="Uhungarumlaut.small" unicode="&#xf6a0;" horiz-adv-x="557" 
d="M65 537h78v-364c0 -60 47 -112 136 -112c84 0 134 52 134 112v364h79v-369c0 -97 -88 -178 -213 -178c-127 0 -214 83 -214 178v369zM207 592h-82l109 138h114zM401 592h-83l110 138h114z" />
    <glyph glyph-name="Ugravesmall" unicode="&#xf7f9;" horiz-adv-x="557" 
d="M65 537h78v-364c0 -60 47 -112 136 -112c84 0 134 52 134 112v364h79v-369c0 -97 -88 -178 -213 -178c-127 0 -214 83 -214 178v369zM332 592h-82l-141 138h114z" />
    <glyph glyph-name="Umacron.small" unicode="&#xf6a1;" horiz-adv-x="557" 
d="M65 537h78v-364c0 -60 47 -112 136 -112c84 0 134 52 134 112v364h79v-369c0 -97 -88 -178 -213 -178c-127 0 -214 83 -214 178v369zM128 624v71h302v-71h-302z" />
    <glyph glyph-name="Uogonek.small" unicode="&#xf6a2;" horiz-adv-x="557" 
d="M344 -119l8 -57s-38 -13 -71 -13c-56 0 -86 41 -86 82c0 45 41 81 63 98c-115 8 -193 87 -193 177v369h78v-364c0 -60 47 -112 136 -112c84 0 134 52 134 112v364h79v-369c0 -78 -56 -145 -143 -169c-7 -4 -83 -50 -83 -98c0 -15 15 -26 31 -26c23 0 47 6 47 6z" />
    <glyph glyph-name="Uring.small" unicode="&#xf6a3;" horiz-adv-x="557" 
d="M65 537h78v-364c0 -60 47 -112 136 -112c84 0 134 52 134 112v364h79v-369c0 -97 -88 -178 -213 -178c-127 0 -214 83 -214 178v369zM193 660c0 49 37 85 86 85c48 0 88 -36 88 -85c0 -48 -40 -84 -88 -84c-49 0 -86 36 -86 84zM244 661c0 -20 14 -35 35 -35s36 15 36 35
c0 21 -15 36 -36 36s-35 -15 -35 -36z" />
    <glyph glyph-name="Utilde.small" unicode="&#xf6a4;" horiz-adv-x="557" 
d="M65 537h78v-364c0 -60 47 -112 136 -112c84 0 134 52 134 112v364h79v-369c0 -97 -88 -178 -213 -178c-127 0 -214 83 -214 178v369zM195 609h-70c0 51 39 105 91 105c47 0 94 -42 125 -42c15 0 23 22 23 36h72c0 -51 -38 -105 -89 -105c-47 0 -95 42 -125 42
c-16 0 -25 -20 -27 -36z" />
    <glyph glyph-name="Wacute.small" unicode="&#xf6a5;" horiz-adv-x="726" 
d="M538 141l79 396h79l-114 -537h-107l-98 377l-12 80h-4l-12 -80l-98 -377h-107l-114 537h79l79 -397l10 -72h4l11 71l99 398h102l99 -398l11 -71h4zM402 592h-82l109 138h114z" />
    <glyph glyph-name="Wcircumflex.small" unicode="&#xf6a6;" horiz-adv-x="726" 
d="M538 141l79 396h79l-114 -537h-107l-98 377l-12 80h-4l-12 -80l-98 -377h-107l-114 537h79l79 -397l10 -72h4l11 71l99 398h102l99 -398l11 -71h4zM291 592h-72l103 138h82l105 -138h-73l-74 75z" />
    <glyph glyph-name="Wdieresis.small" unicode="&#xf6a7;" horiz-adv-x="726" 
d="M538 141l79 396h79l-114 -537h-107l-98 377l-12 80h-4l-12 -80l-98 -377h-107l-114 537h79l79 -397l10 -72h4l11 71l99 398h102l99 -398l11 -71h4zM234 620v98h82v-98h-82zM404 620v98h82v-98h-82z" />
    <glyph glyph-name="Wgrave.small" unicode="&#xf6a8;" horiz-adv-x="726" 
d="M538 141l79 396h79l-114 -537h-107l-98 377l-12 80h-4l-12 -80l-98 -377h-107l-114 537h79l79 -397l10 -72h4l11 71l99 398h102l99 -398l11 -71h4zM398 592h-82l-141 138h114z" />
    <glyph glyph-name="Yacutesmall" unicode="&#xf7fd;" horiz-adv-x="485" 
d="M103 537l140 -249l138 249h89l-189 -325v-212h-77v212l-189 325h88zM283 592h-82l109 138h114z" />
    <glyph glyph-name="Ycircumflex.small" unicode="&#xf6a9;" horiz-adv-x="485" 
d="M103 537l140 -249l138 249h89l-189 -325v-212h-77v212l-189 325h88zM171 592h-72l103 138h82l105 -138h-73l-74 75z" />
    <glyph glyph-name="Ydieresissmall" unicode="&#xf7ff;" horiz-adv-x="485" 
d="M103 537l140 -249l138 249h89l-189 -325v-212h-77v212l-189 325h88zM116 620v98h82v-98h-82zM286 620v98h82v-98h-82z" />
    <glyph glyph-name="Ygrave.small" unicode="&#xf6aa;" horiz-adv-x="485" 
d="M103 537l140 -249l138 249h89l-189 -325v-212h-77v212l-189 325h88zM291 592h-82l-141 138h114z" />
    <glyph glyph-name="Zacute.small" unicode="&#xf6ab;" horiz-adv-x="486" 
d="M437 467l-306 -396h315v-71h-406v70l306 396h-300v71h391v-70zM267 592h-82l109 138h114z" />
    <glyph glyph-name="Zcaronsmall" unicode="&#xf6ff;" horiz-adv-x="486" 
d="M437 467l-306 -396h315v-71h-406v70l306 396h-300v71h391v-70zM91 730h72l71 -75l74 75h73l-105 -138h-82z" />
    <glyph glyph-name="Zdotaccent.small" unicode="&#xf6ac;" horiz-adv-x="486" 
d="M437 467l-306 -396h315v-71h-406v70l306 396h-300v71h391v-70zM185 620v98h82v-98h-82z" />
    <glyph glyph-name="Ethsmall" unicode="&#xf7f0;" horiz-adv-x="531" 
d="M20 305h50v232h186c136 0 210 -75 213 -170c2 -66 2 -134 0 -199c-3 -94 -77 -168 -213 -168h-186v242h-50v63zM256 467h-110v-162h107v-63h-107v-172h110c86 0 134 41 135 98c2 65 2 133 0 199c-1 58 -48 100 -135 100z" />
    <glyph glyph-name="Thornsmall" unicode="&#xf7fe;" horiz-adv-x="480" 
d="M70 0v537h76v-76h144c98 0 149 -54 153 -123c2 -37 2 -72 0 -109c-4 -69 -55 -123 -153 -123h-144v-106h-76zM365 231c2 37 2 69 0 106c-2 29 -19 54 -73 54h-146v-215h146c54 0 71 26 73 55z" />
    <glyph glyph-name="Eng.small" unicode="&#xf67b;" horiz-adv-x="556" 
d="M410 537h76v-558c0 -94 -58 -130 -117 -130c-34 0 -66 8 -66 8l3 58s28 -2 48 -2c54 0 56 38 56 88l-249 397l-18 44l3 -46v-396h-76v537h91l235 -378l19 -44l-5 47v375z" />
    <glyph glyph-name="zerooldstyle" unicode="&#xf730;" horiz-adv-x="534" 
d="M472 378c2 -67 2 -152 0 -218c-3 -95 -87 -170 -205 -170c-120 0 -202 75 -205 170c-2 67 -2 151 0 218c3 95 87 169 205 169c121 0 202 -72 205 -169zM390 160c2 66 2 151 0 218c-2 56 -47 100 -123 100c-75 0 -123 -44 -125 -100c-2 -67 -2 -151 0 -218
c2 -56 49 -100 125 -100c74 0 121 44 123 100z" />
    <glyph glyph-name="oneoldstyle" unicode="&#xf731;" horiz-adv-x="291" 
d="M20 425v69l101 43h80v-537h-79v468z" />
    <glyph glyph-name="twooldstyle" unicode="&#xf732;" horiz-adv-x="483" 
d="M65 456l-4 69s77 22 166 22c116 0 200 -43 200 -149c0 -86 -38 -125 -87 -164l-207 -163h295v-71h-388v83l239 194c53 43 68 67 68 114c0 66 -54 85 -127 85c-78 0 -155 -20 -155 -20z" />
    <glyph glyph-name="threeoldstyle" unicode="&#xf733;" horiz-adv-x="491" 
d="M24 465v72h385v-70l-158 -191c76 -6 185 -43 185 -190c0 -179 -137 -223 -229 -223c-124 0 -187 24 -187 24l4 71s87 -22 179 -22c113 0 152 63 152 152c0 119 -92 119 -155 119h-41v67l151 185v6h-286z" />
    <glyph glyph-name="fouroldstyle" unicode="&#xf734;" horiz-adv-x="512" 
d="M20 13v74l240 450h88l-243 -452h242v176h80v-176h70v-72h-70v-141h-80v141h-327z" />
    <glyph glyph-name="fiveoldstyle" unicode="&#xf735;" horiz-adv-x="535" 
d="M63 -113l4 71s96 -23 172 -23c125 0 160 47 160 149c0 86 -28 135 -143 135c-79 0 -161 -38 -161 -38l-35 57l22 299h366v-72h-295l-15 -196s62 22 129 22c135 0 213 -64 213 -206c0 -124 -63 -222 -239 -222c-117 0 -178 24 -178 24z" />
    <glyph glyph-name="sixoldstyle" unicode="&#xf736;" horiz-adv-x="562" 
d="M458 654l-3 -70s-99 19 -165 19c-99 0 -146 -68 -148 -145c-1 -23 -1 -76 -1 -76s79 37 154 37c138 0 212 -70 212 -209c0 -140 -92 -220 -221 -220c-143 0 -221 99 -224 218c-2 81 -2 164 0 250c3 118 81 217 228 217c81 0 168 -21 168 -21zM289 346
c-75 0 -148 -35 -148 -35s0 -71 1 -103c2 -76 45 -145 143 -145c93 0 143 47 143 147c0 96 -45 136 -139 136z" />
    <glyph glyph-name="sevenoldstyle" unicode="&#xf737;" horiz-adv-x="419" 
d="M10 465v72h389v-84l-259 -581h-81l262 586v7h-311z" />
    <glyph glyph-name="eightoldstyle" unicode="&#xf738;" horiz-adv-x="582" 
d="M507 497c0 -77 -34 -122 -84 -155c61 -38 99 -82 99 -167c0 -132 -108 -185 -230 -185c-126 0 -232 53 -232 185c0 85 38 129 99 167c-50 33 -84 78 -84 155c0 103 84 177 217 177c130 0 215 -74 215 -177zM292 63c77 0 150 29 150 115s-77 127 -150 127
c-74 0 -152 -41 -152 -127s74 -115 152 -115zM428 497c0 63 -55 104 -136 104c-87 0 -138 -41 -138 -104c0 -72 51 -118 138 -118c81 0 136 46 136 118z" />
    <glyph glyph-name="nineoldstyle" unicode="&#xf739;" horiz-adv-x="562" 
d="M104 -117l3 70s99 -19 165 -19c99 0 146 68 148 145c1 23 1 76 1 76s-79 -37 -154 -37c-138 0 -212 70 -212 209c0 140 92 220 221 220c143 0 221 -99 224 -218c2 -81 2 -164 0 -250c-3 -118 -81 -217 -228 -217c-81 0 -168 21 -168 21zM273 191c75 0 148 35 148 35
s0 71 -1 103c-2 76 -45 145 -143 145c-93 0 -143 -47 -143 -147c0 -96 45 -136 139 -136z" />
    <glyph glyph-name="centoldstyle" unicode="&#xf7a2;" horiz-adv-x="460" 
d="M217 -50v52c-97 12 -148 79 -150 160c-2 65 -2 131 0 196c2 80 53 147 150 160v52h78v-51c53 -3 92 -11 92 -11l-7 -71s-68 12 -129 12c-65 0 -104 -45 -106 -95c-2 -61 -2 -127 0 -188c2 -50 40 -95 106 -95c80 0 134 16 134 16l10 -70s-43 -11 -100 -16v-51h-78z" />
    <glyph glyph-name="dollaroldstyle" unicode="&#xf724;" horiz-adv-x="481" 
d="M200 -50v50c-72 5 -130 24 -130 24l10 68s76 -21 143 -21c85 0 114 24 114 73c0 122 -272 44 -272 234c0 86 55 130 135 140v52h78v-52c62 -4 107 -16 107 -16l-8 -69s-77 16 -140 16c-52 0 -94 -20 -94 -69c0 -115 273 -41 273 -231c0 -82 -42 -134 -138 -146v-53h-78z
" />
    <glyph glyph-name="zero.taboldstyle" unicode="&#xf643;" 
d="M495 378c2 -67 2 -152 0 -218c-3 -95 -87 -170 -205 -170c-120 0 -202 75 -205 170c-2 67 -2 151 0 218c3 95 87 169 205 169c121 0 202 -72 205 -169zM413 160c2 66 2 151 0 218c-2 56 -47 100 -123 100c-75 0 -123 -44 -125 -100c-2 -67 -2 -151 0 -218
c2 -56 49 -100 125 -100c74 0 121 44 123 100z" />
    <glyph glyph-name="one.taboldstyle" unicode="&#xf644;" 
d="M113 0v71h173v397l-156 -60v69l155 60h80v-466h156v-71h-408z" />
    <glyph glyph-name="two.taboldstyle" unicode="&#xf645;" 
d="M121 456l-4 69s77 22 166 22c116 0 200 -43 200 -149c0 -86 -38 -125 -87 -164l-207 -163h295v-71h-388v83l239 194c53 43 68 67 68 114c0 66 -54 85 -127 85c-78 0 -155 -20 -155 -20z" />
    <glyph glyph-name="three.taboldstyle" unicode="&#xf646;" 
d="M86 465v72h385v-70l-158 -191c76 -6 185 -43 185 -190c0 -179 -137 -223 -229 -223c-124 0 -187 24 -187 24l4 71s87 -22 179 -22c113 0 152 63 152 152c0 119 -92 119 -155 119h-41v67l151 185v6h-286z" />
    <glyph glyph-name="four.taboldstyle" unicode="&#xf647;" 
d="M51 13v74l240 450h88l-243 -452h242v176h80v-176h70v-72h-70v-141h-80v141h-327z" />
    <glyph glyph-name="five.taboldstyle" unicode="&#xf648;" 
d="M83 -113l4 71s96 -23 172 -23c125 0 160 47 160 149c0 86 -28 135 -143 135c-79 0 -161 -38 -161 -38l-35 57l22 299h366v-72h-295l-15 -196s62 22 129 22c135 0 213 -64 213 -206c0 -124 -63 -222 -239 -222c-117 0 -178 24 -178 24z" />
    <glyph glyph-name="six.taboldstyle" unicode="&#xf649;" 
d="M464 654l-3 -70s-99 19 -165 19c-99 0 -146 -68 -148 -145c-1 -23 -1 -76 -1 -76s79 37 154 37c138 0 212 -70 212 -209c0 -140 -92 -220 -221 -220c-143 0 -221 99 -224 218c-2 81 -2 164 0 250c3 118 81 217 228 217c81 0 168 -21 168 -21zM295 346
c-75 0 -148 -35 -148 -35s0 -71 1 -103c2 -76 45 -145 143 -145c93 0 143 47 143 147c0 96 -45 136 -139 136z" />
    <glyph glyph-name="seven.taboldstyle" unicode="&#xf64a;" 
d="M95 465v72h389v-84l-259 -581h-81l262 586v7h-311z" />
    <glyph glyph-name="eight.taboldstyle" unicode="&#xf64b;" 
d="M506 497c0 -77 -34 -122 -84 -155c61 -38 99 -82 99 -167c0 -132 -108 -185 -230 -185c-126 0 -232 53 -232 185c0 85 38 129 99 167c-50 33 -84 78 -84 155c0 103 84 177 217 177c130 0 215 -74 215 -177zM291 63c77 0 150 29 150 115s-77 127 -150 127
c-74 0 -152 -41 -152 -127s74 -115 152 -115zM427 497c0 63 -55 104 -136 104c-87 0 -138 -41 -138 -104c0 -72 51 -118 138 -118c81 0 136 46 136 118z" />
    <glyph glyph-name="nine.taboldstyle" unicode="&#xf64c;" 
d="M115 -117l3 70s99 -19 165 -19c99 0 146 68 148 145c1 23 1 76 1 76s-79 -37 -154 -37c-138 0 -212 70 -212 209c0 140 92 220 221 220c143 0 221 -99 224 -218c2 -81 2 -164 0 -250c-3 -118 -81 -217 -228 -217c-81 0 -168 21 -168 21zM284 191c75 0 148 35 148 35
s0 71 -1 103c-2 76 -45 145 -143 145c-93 0 -143 -47 -143 -147c0 -96 45 -136 139 -136z" />
    <glyph glyph-name="cent.taboldstyle" unicode="&#xf654;" 
d="M277 -50v52c-97 12 -148 79 -150 160c-2 65 -2 131 0 196c2 80 53 147 150 160v52h78v-51c53 -3 92 -11 92 -11l-7 -71s-68 12 -129 12c-65 0 -104 -45 -106 -95c-2 -61 -2 -127 0 -188c2 -50 40 -95 106 -95c80 0 134 16 134 16l10 -70s-43 -11 -100 -16v-51h-78z" />
    <glyph glyph-name="dollar.taboldstyle" unicode="&#xf653;" 
d="M249 -50v50c-72 5 -130 24 -130 24l10 68s76 -21 143 -21c85 0 114 24 114 73c0 122 -272 44 -272 234c0 86 55 130 135 140v52h78v-52c62 -4 107 -16 107 -16l-8 -69s-77 16 -140 16c-52 0 -94 -20 -94 -69c0 -115 273 -41 273 -231c0 -82 -42 -134 -138 -146v-53h-78z
" />
    <glyph glyph-name="Euro.taboldstyle" unicode="&#xf64e;" 
d="M82 299v60h53c0 3 1 6 1 10c3 96 89 178 213 178c69 0 148 -18 148 -18l-6 -69s-93 16 -142 16c-83 0 -132 -51 -134 -107c0 -4 -1 -7 -1 -10h218v-60h-219c-1 -20 -1 -40 0 -60h194v-59h-193c0 -4 1 -8 1 -12c2 -58 49 -107 134 -107c48 0 147 19 147 19l5 -71
s-86 -19 -152 -19c-126 0 -210 83 -213 178c0 4 -1 8 -1 12h-53v59h52v60h-52z" />
    <glyph glyph-name="sterling.taboldstyle" unicode="&#xf651;" 
d="M107 232v61h41c-7 23 -15 80 -15 111c0 107 84 142 194 142c63 0 129 -13 129 -13l-4 -63s-66 9 -125 9c-65 0 -116 -18 -116 -75c0 -34 8 -90 16 -111h212v-61h-191c2 -14 4 -29 4 -49c0 -52 -44 -117 -44 -117h264v-66h-362v66s63 37 63 117c0 15 -3 31 -10 49h-56z
" />
    <glyph glyph-name="yen.taboldstyle" unicode="&#xf652;" 
d="M458 202v-59h-129v-143h-78v143h-128v59h117l-21 43h-96v61h64l-114 231h91l127 -277l126 277h89l-114 -231h66v-61h-96l-24 -43h120z" />
    <glyph glyph-name="florin.taboldstyle" unicode="&#xf64f;" 
d="M325 252l-27 -266c-7 -69 -50 -123 -132 -123c-44 0 -79 9 -79 9l11 64s24 -6 69 -6c32 0 52 18 58 70l26 252h-73l7 67h72l8 76c8 77 60 131 144 131c37 0 84 -9 84 -9l-13 -64s-34 6 -79 6c-32 0 -57 -18 -62 -70l-8 -70h136l-6 -67h-136z" />
    <glyph glyph-name="numbersign.taboldstyle" unicode="&#xf650;" 
d="M73 325v75h96l20 137h67l-20 -137h140l20 137h67l-20 -137h84v-75h-95l-16 -115h83v-75h-94l-20 -135h-67l20 135h-140l-20 -135h-67l20 135h-86v75h97l16 115h-85zM225 325l-16 -115h140l16 115h-140z" />
    <glyph glyph-name="ampersandsmall" unicode="&#xf726;" horiz-adv-x="516" 
d="M382 176v79h70v-80c0 -52 -14 -89 -34 -114l38 -61h-79l-11 16s-45 -24 -113 -24c-83 0 -193 36 -193 183c0 89 46 137 115 156l-80 132v74h326v-70h-249l182 -301l22 -42s6 25 6 52zM257 62c47 0 74 13 74 13l-120 197c-41 -5 -74 -27 -74 -96c0 -68 23 -114 120 -114z
" />
    <glyph glyph-name="percent.oldstyle" unicode="&#xf642;" horiz-adv-x="769" 
d="M337 435v-68c0 -67 -60 -111 -131 -111h-6c-71 0 -130 45 -130 111v68c0 67 59 111 130 111h6c71 0 131 -44 131 -111zM263 362v77c0 31 -25 51 -61 51c-35 0 -60 -20 -60 -51v-76c0 -31 25 -51 61 -51s60 20 60 50zM209 0l278 538h71l-275 -538h-74zM699 171v-67
c0 -69 -61 -112 -131 -112h-6c-70 0 -130 45 -130 112v67c0 67 60 111 130 111h6c70 0 131 -44 131 -111zM626 99v76c0 31 -26 52 -63 52c-35 0 -60 -21 -60 -52v-75c0 -33 26 -52 62 -52c35 0 61 19 61 51z" />
    <glyph glyph-name="zero.slash" unicode="&#xf638;" horiz-adv-x="593" 
d="M531 492c2 -88 2 -196 0 -284c-2 -125 -98 -218 -234 -218c-139 0 -233 93 -235 218c-2 88 -2 196 0 284c2 125 98 218 235 218c138 0 231 -93 234 -218zM143 208c0 -13 2 -26 5 -38l258 423c-26 25 -63 40 -109 40c-93 0 -153 -62 -154 -141c-2 -88 -2 -196 0 -284z
M448 208c2 88 2 196 0 284c0 12 -2 23 -4 34l-257 -420c26 -25 63 -39 110 -39c92 0 150 62 151 141z" />
    <glyph glyph-name="questionsmall" unicode="&#xf73f;" horiz-adv-x="455" 
d="M51 459l-6 67s69 20 176 20c112 0 189 -45 189 -139c0 -197 -196 -104 -196 -260c1 0 -71 0 -71 0c0 215 182 115 182 248c0 60 -40 81 -109 81c-78 0 -165 -17 -165 -17zM138 0v85h82v-85h-82z" />
    <glyph glyph-name="questiondownsmall" unicode="&#xf7bf;" horiz-adv-x="455" 
d="M410 11l-6 67s-87 -17 -165 -17c-69 0 -109 21 -109 81c0 133 182 33 182 248c0 0 -72 0 -71 0c0 -156 -196 -63 -196 -260c0 -94 77 -139 189 -139c107 0 176 20 176 20zM317 537v-85h-82v85h82z" />
    <glyph glyph-name="exclamsmall" unicode="&#xf721;" horiz-adv-x="258" 
d="M88 0v85h82v-85h-82zM173 537l-9 -390h-70l-9 390h88z" />
    <glyph glyph-name="exclamdownsmall" unicode="&#xf7a1;" horiz-adv-x="258" 
d="M170 537v-85h-82v85h82zM85 0l9 390h70l9 -390h-88z" />
    <glyph glyph-name="zero.fitted" unicode="&#xf639;" horiz-adv-x="593" 
d="M531 492c2 -88 2 -196 0 -284c-2 -125 -98 -218 -234 -218c-139 0 -233 93 -235 218c-2 88 -2 196 0 284c2 125 98 218 235 218c138 0 231 -93 234 -218zM448 208c2 88 2 196 0 284c-1 79 -57 141 -151 141c-93 0 -153 -62 -154 -141c-2 -88 -2 -196 0 -284
c1 -79 59 -141 154 -141c92 0 150 62 151 141z" />
    <glyph glyph-name="one.fitted" unicode="&#xf6dc;" horiz-adv-x="320" 
d="M25 570v75l115 55h90v-700h-84v622z" />
    <glyph glyph-name="two.fitted" unicode="&#xf63a;" horiz-adv-x="538" 
d="M69 612l-4 74s75 24 189 24c132 0 227 -57 227 -200c0 -101 -29 -141 -96 -200l-257 -228v-4h355v-78h-443v106l274 248c65 59 82 88 82 159c0 88 -65 120 -150 120c-91 0 -177 -21 -177 -21z" />
    <glyph glyph-name="three.fitted" unicode="&#xf63b;" horiz-adv-x="528" 
d="M39 622v78h406v-74l-167 -200c80 -6 195 -47 195 -201c0 -189 -144 -235 -241 -235c-131 0 -197 25 -197 25l4 75s92 -23 189 -23c119 0 160 66 160 160c0 125 -97 125 -164 125h-46v72l158 194v4h-297z" />
    <glyph glyph-name="four.fitted" unicode="&#xf63c;" horiz-adv-x="537" 
d="M20 148v78l253 474h92l-256 -474h255v183h84v-183h74v-78h-74v-148h-84v148h-344z" />
    <glyph glyph-name="five.fitted" unicode="&#xf63d;" horiz-adv-x="558" 
d="M64 15l4 75s102 -24 181 -24c132 0 169 49 169 157c0 90 -30 142 -151 142c-83 0 -169 -40 -169 -40l-38 60l23 315h387v-79h-311l-14 -204s63 24 134 24c142 0 224 -68 224 -217c0 -131 -66 -234 -251 -234c-124 0 -188 25 -188 25z" />
    <glyph glyph-name="six.fitted" unicode="&#xf63e;" horiz-adv-x="586" 
d="M479 688l-3 -74s-104 20 -174 20c-104 0 -154 -71 -156 -152c-1 -25 -1 -80 -1 -80s83 39 162 39c146 0 224 -74 224 -220c0 -148 -97 -232 -233 -232c-151 0 -233 104 -236 229c-2 86 -2 173 0 264c3 124 85 228 240 228c85 0 177 -22 177 -22zM301 364
c-79 -3 -156 -37 -156 -37s0 -75 1 -109c2 -79 48 -152 151 -152c98 0 150 49 150 155c0 101 -47 143 -146 143z" />
    <glyph glyph-name="seven.fitted" unicode="&#xf63f;" horiz-adv-x="452" 
d="M22 623v77h410v-88l-273 -612h-85l275 617v6h-327z" />
    <glyph glyph-name="eight.fitted" unicode="&#xf640;" horiz-adv-x="596" 
d="M525 524c0 -83 -36 -130 -88 -163c64 -40 104 -87 104 -176c0 -139 -113 -195 -242 -195c-132 0 -244 56 -244 195c0 89 40 136 104 176c-52 34 -88 82 -88 163c0 108 88 186 228 186c137 0 226 -80 226 -186zM299 67c81 0 158 30 158 121c0 90 -81 134 -158 134
c-78 0 -160 -44 -160 -134c0 -91 78 -121 160 -121zM442 524c0 66 -58 109 -143 109c-91 0 -145 -43 -145 -109c0 -76 54 -125 145 -125c85 0 143 49 143 125z" />
    <glyph glyph-name="nine.fitted" unicode="&#xf641;" horiz-adv-x="586" 
d="M107 11l3 74s104 -20 174 -20c104 0 154 71 156 152c1 25 1 80 1 80s-83 -39 -162 -39c-146 0 -224 74 -224 220c0 148 97 232 233 232c151 0 233 -104 236 -229c2 -86 2 -173 0 -264c-3 -124 -85 -228 -240 -228c-85 0 -177 22 -177 22zM285 335c79 3 156 37 156 37
s0 75 -1 109c-2 79 -48 152 -151 152c-98 0 -150 -49 -150 -155c0 -101 47 -143 146 -143z" />
    <glyph glyph-name="perthousand.oldstyle" horiz-adv-x="1090" 
d="M337 435v-68c0 -67 -60 -111 -131 -111h-6c-71 0 -130 45 -130 111v68c0 67 59 111 130 111h6c71 0 131 -44 131 -111zM263 362v77c0 31 -25 51 -61 51c-35 0 -60 -20 -60 -51v-76c0 -31 25 -51 61 -51s60 20 60 50zM209 0l278 538h71l-275 -538h-74zM699 171v-67
c0 -69 -61 -112 -131 -112h-6c-70 0 -130 45 -130 112v67c0 67 60 111 130 111h6c70 0 131 -44 131 -111zM626 99v76c0 31 -26 52 -63 52c-35 0 -60 -21 -60 -52v-75c0 -33 26 -52 62 -52c35 0 61 19 61 51zM1020 171v-67c0 -69 -61 -112 -131 -112h-6
c-70 0 -130 45 -130 112v67c0 67 60 111 130 111h6c70 0 131 -44 131 -111zM947 99v76c0 31 -26 52 -63 52c-35 0 -60 -21 -60 -52v-75c0 -33 26 -52 62 -52c35 0 61 19 61 51z" />
    </font>
</defs>
</svg>
